<svg width="77" height="77" viewBox="0 0 77 77" fill="none" xmlns="http://www.w3.org/2000/svg">
<path d="M38.4999 12.833C41.9035 12.833 45.1677 14.1851 47.5745 16.5918C49.9812 18.9985 51.3333 22.2627 51.3333 25.6663C51.3333 29.07 49.9812 32.3342 47.5745 34.7409C45.1677 37.1476 41.9035 38.4997 38.4999 38.4997C35.0963 38.4997 31.8321 37.1476 29.4254 34.7409C27.0187 32.3342 25.6666 29.07 25.6666 25.6663C25.6666 22.2627 27.0187 18.9985 29.4254 16.5918C31.8321 14.1851 35.0963 12.833 38.4999 12.833ZM38.4999 44.9163C52.6808 44.9163 64.1666 50.6593 64.1666 57.7497V64.1663H12.8333V57.7497C12.8333 50.6593 24.3191 44.9163 38.4999 44.9163Z" fill="white"/>
</svg>
