<svg width="389" height="934" viewBox="0 0 389 934" fill="none" xmlns="http://www.w3.org/2000/svg">
<path fill-rule="evenodd" clip-rule="evenodd" d="M389 -3H-1V934H389V-3ZM104 346C92.9543 346 84 354.954 84 366V546C84 557.046 92.9543 566 104 566H284C295.046 566 304 557.046 304 546V366C304 354.954 295.046 346 284 346H104Z" fill="#131010" fill-opacity="0.7"/>
<path d="M103.005 346H284.995C295.491 346 304 354.509 304 365.005V546.995C304 557.491 295.491 566 284.995 566H103.005C92.5089 566 84 557.491 84 546.995V365.005C84 354.509 92.5089 346 103.005 346Z" stroke="white" stroke-width="9"/>
</svg>
