<svg width="33" height="27" viewBox="0 0 33 27" fill="none" xmlns="http://www.w3.org/2000/svg">
<path d="M14.1953 8.9749C13.9206 8.72507 13.5664 8.58752 13.2 8.58747L14.1953 8.9749ZM14.1953 8.9749C14.4691 9.2239 14.645 9.56727 14.689 9.9406M14.1953 8.9749L14.689 9.9406M14.689 9.9406L14.7 10.1294V16.8748C14.6996 17.2677 14.5524 17.645 14.2896 17.9298C14.0268 18.2145 13.6683 18.3851 13.2877 18.408C12.9071 18.4308 12.5318 18.3042 12.2385 18.0532C11.9462 17.803 11.7573 17.4477 11.711 17.0593L11.7 16.8706V10.125C11.7 9.71613 11.8588 9.32469 12.1405 9.0366C12.4221 8.74862 12.8033 8.58747 13.2 8.58747L14.689 9.9406ZM31.2342 16.5307L31.2341 16.5308L31.24 16.534L31.471 16.6606L31.4709 16.6607L31.4754 16.6629C32.1504 17.0041 32.7507 17.7073 32.8388 18.632L32.85 18.8747V21.9375C32.8501 23.1915 32.3815 24.3976 31.5412 25.3091C30.7015 26.2199 29.554 26.7677 28.3337 26.8417L28.0478 26.85H4.95C3.7267 26.85 2.549 26.3721 1.65799 25.5128C0.767408 24.654 0.230568 23.4791 0.15813 22.2281L0.15 21.9354V18.8713C0.15 17.9105 0.694603 17.1596 1.35577 16.7566L1.52701 16.6617C2.08414 16.3814 2.5566 15.9528 2.89489 15.4214C3.23373 14.8892 3.42548 14.2735 3.45018 13.6395C3.47487 13.0054 3.3316 12.3762 3.03529 11.8182C2.73896 11.2602 2.30047 10.794 1.76582 10.4693L1.7659 10.4691L1.76002 10.4659L1.52902 10.3394L1.52906 10.3393L1.52462 10.337C0.849626 9.99586 0.24925 9.29257 0.161221 8.36786L0.15 8.12685V5.06247V5.06246C0.149932 3.80841 0.618456 2.60231 1.4588 1.69083C2.29853 0.780017 3.44595 0.232224 4.6663 0.158276L4.95218 0.14997H28.05C29.2733 0.1499 30.451 0.627881 31.342 1.48711C32.2326 2.34595 32.7695 3.52087 32.8419 4.77195L32.85 5.06247V5.06444V8.12834C32.8463 8.55829 32.7329 8.97963 32.5213 9.35063C32.3098 9.7213 32.0077 10.0287 31.6451 10.2428L31.473 10.3382C30.9159 10.6186 30.4434 11.0472 30.1051 11.5785C29.7663 12.1107 29.5745 12.7264 29.5498 13.3605C29.5251 13.9945 29.6684 14.6238 29.9647 15.1817C30.261 15.7397 30.6995 16.2059 31.2342 16.5307ZM28.0592 3.22525L28.0592 3.22497H28.05H4.95H4.94998C4.50811 3.22503 4.08217 3.39097 3.75286 3.69045C3.42365 3.98986 3.21392 4.40181 3.16254 4.84787L3.1623 4.84784L3.16181 4.85627L3.15026 5.05371L3.15 5.05369V5.06247V7.65278V7.73848L3.22383 7.782C4.1794 8.34527 4.97809 9.15007 5.54326 10.1197C6.10843 11.0894 6.42106 12.1914 6.45102 13.3204C6.48098 14.4493 6.22726 15.5671 5.71431 16.5668C5.20167 17.5659 4.44733 18.4135 3.52369 19.0289L3.22002 19.2203L3.15 19.2644V19.3472V21.9375C3.15006 22.3866 3.31125 22.8206 3.60378 23.157C3.89639 23.4936 4.30022 23.7092 4.73901 23.7621L4.73898 23.7623L4.74779 23.7629L4.94084 23.7747L4.94082 23.775H4.95H28.05C28.4919 23.7749 28.9178 23.609 29.2471 23.3095C29.5764 23.0101 29.7861 22.5981 29.8375 22.1521L29.8377 22.1521L29.8382 22.1437L29.8497 21.9462L29.85 21.9462V21.9375V19.3472V19.2615L29.7762 19.2179C28.8206 18.6547 28.0219 17.8499 27.4567 16.8802C26.8916 15.9105 26.5789 14.8085 26.549 13.6796C26.519 12.5506 26.7727 11.4329 27.2857 10.4332C27.7983 9.43408 28.5527 8.58649 29.4763 7.97107L29.78 7.77968L29.85 7.73555V7.65278V5.06247C29.8499 4.61335 29.6888 4.17938 29.3962 3.84292C29.1036 3.50638 28.6998 3.29073 28.261 3.23786L28.261 3.2376L28.2522 3.23706L28.0592 3.22525Z" fill="#C4C4C4" stroke="white" stroke-width="0.3"/>
</svg>
