<svg width="33" height="27" viewBox="0 0 33 27" fill="none" xmlns="http://www.w3.org/2000/svg">
<path d="M28.05 7.8645e-09C29.3126 -7.19242e-05 30.5275 0.493299 31.4461 1.37917C32.3648 2.26503 32.9177 3.47643 32.9918 4.7655L33 5.0625V8.12869C32.9963 8.58445 32.8762 9.03131 32.6516 9.42499C32.427 9.81866 32.1057 10.1455 31.7196 10.3731L31.5431 10.4709C31.0092 10.7389 30.5561 11.1494 30.2316 11.6591C29.9072 12.1688 29.7234 12.7586 29.6997 13.3663C29.676 13.974 29.8134 14.577 30.0972 15.1114C30.381 15.6459 30.8008 16.092 31.312 16.4025L31.5431 16.5291C32.2575 16.8902 32.896 17.6361 32.9884 18.6216L33 18.8713V21.9375C33.0001 23.2288 32.5177 24.4713 31.6515 25.4108C30.7853 26.3503 29.6008 26.9158 28.3404 26.9916L28.05 27H4.95C3.6874 27.0001 2.4725 26.5067 1.55387 25.6208C0.635239 24.735 0.0823226 23.5236 0.0082502 22.2345L7.68974e-09 21.9375V18.8713C7.68974e-09 17.8487 0.5808 17.0522 1.2804 16.6269L1.45695 16.5291C1.99078 16.2611 2.44388 15.8506 2.76836 15.3409C3.09284 14.8312 3.27662 14.2414 3.30029 13.6337C3.32396 13.026 3.18662 12.423 2.90281 11.8886C2.61899 11.3541 2.19925 10.908 1.68795 10.5975L1.45695 10.4709C0.7425 10.1098 0.10395 9.36394 0.01155 8.37844L7.68974e-09 8.13037V5.0625C-7.03258e-05 3.77121 0.482336 2.52869 1.34852 1.58918C2.2147 0.649676 3.39918 0.0841936 4.6596 0.0084377L4.95 7.8645e-09H28.05ZM13.2 8.4375C12.7624 8.4375 12.3427 8.61529 12.0333 8.93176C11.7238 9.24823 11.55 9.67745 11.55 10.125V16.875C11.55 17.3226 11.7238 17.7518 12.0333 18.0682C12.3427 18.3847 12.7624 18.5625 13.2 18.5625C13.6376 18.5625 14.0573 18.3847 14.3667 18.0682C14.6762 17.7518 14.85 17.3226 14.85 16.875V10.125C14.85 9.67745 14.6762 9.24823 14.3667 8.93176C14.0573 8.61529 13.6376 8.4375 13.2 8.4375Z" fill="black"/>
</svg>
