<svg width="140" height="90" viewBox="0 0 140 90" fill="none" xmlns="http://www.w3.org/2000/svg">
<g clip-path="url(#clip0_219_7578)">
<path d="M73.585 14.5661C75.5652 12.3219 76.8854 8.64411 76.8854 6.15794C76.8854 2.35914 73.803 0.586761 70 0.586761C66.197 0.586761 63.1146 2.35914 63.1146 6.15794C63.1146 8.64411 64.4408 12.328 66.421 14.5722C4.21048 16.2962 1.46118 63.0312 1.46118 80.6702C1.46118 88.0198 32.5634 88.7336 70.4178 88.7336C108.272 88.7336 138.545 87.7839 138.545 79.9564C138.545 62.3053 137.854 16.2115 73.585 14.5661Z" fill="url(#paint0_linear_219_7578)" stroke="#4D4D4D" stroke-width="1.93" stroke-miterlimit="10"/>
<path d="M100.575 23.9059C99.0675 23.5671 97.5415 23.301 96.0094 23.1014C93.7688 22.817 91.3949 22.9199 89.3783 23.9422C88.4942 24.3898 87.6525 25.0673 87.3376 26.0049C86.9682 27.0877 87.3678 28.3035 88.0461 29.223C89.6266 31.3825 92.3336 32.1628 94.7135 33.1004C96.403 33.7658 98.0562 34.5764 99.7155 35.3265C102.162 36.4335 104.602 37.5888 106.867 39.0406C111.754 42.168 115.684 46.6806 119.705 50.7939C122.424 53.5765 127.354 59.2263 130.037 61.6339C130.473 62.021 131.133 62.1057 131.605 61.7609C133.949 60.055 130.721 51.8949 129.958 49.6991C127.56 42.785 123.26 36.5121 117.562 31.8967C112.644 27.9164 106.74 25.2972 100.575 23.9059Z" fill="white"/>
<path opacity="0.18" d="M11.6409 83.6827C11.6409 83.6827 4.53142 53.4192 23.6797 39.3189C35.3733 30.705 14.0389 67.689 54.6305 79.781C61.1707 81.7288 63.0359 82.3821 74.9233 84.4025C98.9585 88.4917 125.973 85.2312 118.161 86.5499C104.693 88.8183 10.569 89.6349 11.6348 83.6887L11.6409 83.6827Z" fill="black" fill-opacity="0.8"/>
<path opacity="0.3" d="M65.3311 3.45401C65.3311 3.45401 63.8777 7.3617 69.7639 8.73484L68.9645 14.3363C68.9645 14.3363 62.0186 9.71479 65.3311 3.45401Z" fill="black"/>
<path d="M133.675 68.7558C134.398 68.5488 134.692 67.3603 134.331 66.1014C133.97 64.8425 133.091 63.9898 132.367 64.1969C131.644 64.4039 131.35 65.5923 131.711 66.8513C132.072 68.1102 132.952 68.9629 133.675 68.7558Z" fill="white"/>
<path d="M4.66455 69.9997C4.66455 69.9997 6.44494 37.6312 33.3869 24.5955" stroke="white" stroke-width="2.5" stroke-linecap="round" stroke-linejoin="round"/>
<path d="M73.8574 5.88574C74.5932 5.88574 75.1897 5.28992 75.1897 4.55494C75.1897 3.81997 74.5932 3.22415 73.8574 3.22415C73.1216 3.22415 72.5251 3.81997 72.5251 4.55494C72.5251 5.28992 73.1216 5.88574 73.8574 5.88574Z" fill="white"/>
</g>
<defs>
<linearGradient id="paint0_linear_219_7578" x1="171.936" y1="9.52726" x2="-48.0249" y2="111.791" gradientUnits="userSpaceOnUse">
<stop stop-color="white"/>
<stop offset="1" stop-color="#6B6B6B"/>
</linearGradient>
<clipPath id="clip0_219_7578">
<rect width="138.252" height="89.3204" fill="white" transform="translate(0.873779)"/>
</clipPath>
</defs>
</svg>
