<svg width="21" height="21" viewBox="0 0 21 21" fill="none" xmlns="http://www.w3.org/2000/svg">
<path fill-rule="evenodd" clip-rule="evenodd" d="M7.26807 0.546753C6.73763 0.546753 6.22893 0.757467 5.85385 1.13254C5.47878 1.50761 5.26807 2.01632 5.26807 2.54675V4.54675H7.26807V2.54675H18.2681V13.5468H16.2681V15.5468H18.2681C18.7985 15.5468 19.3072 15.336 19.6823 14.961C20.0574 14.5859 20.2681 14.0772 20.2681 13.5468V2.54675C20.2681 2.01632 20.0574 1.50761 19.6823 1.13254C19.3072 0.757467 18.7985 0.546753 18.2681 0.546753H7.26807ZM2.26807 5.54675C1.73763 5.54675 1.22893 5.75747 0.853853 6.13254C0.47878 6.50761 0.268066 7.01632 0.268066 7.54675V18.5468C0.268066 19.0772 0.47878 19.5859 0.853853 19.961C1.22893 20.336 1.73763 20.5468 2.26807 20.5468H13.2681C13.7985 20.5468 14.3072 20.336 14.6823 19.961C15.0574 19.5859 15.2681 19.0772 15.2681 18.5468V7.54675C15.2681 7.01632 15.0574 6.50761 14.6823 6.13254C14.3072 5.75747 13.7985 5.54675 13.2681 5.54675H2.26807ZM2.26807 7.54675H13.2681V18.5468H2.26807V7.54675Z" fill="#BABABA"/>
</svg>
