<svg width="33" height="27" viewBox="0 0 33 27" fill="none" xmlns="http://www.w3.org/2000/svg">
<path d="M14.1953 8.97493C13.9206 8.7251 13.5664 8.58755 13.2 8.5875L14.1953 8.97493ZM14.1953 8.97493C14.4691 9.22393 14.645 9.5673 14.689 9.94063M14.1953 8.97493L14.689 9.94063M14.689 9.94063L14.7 10.1294V16.8748C14.6996 17.2677 14.5524 17.6451 14.2896 17.9298C14.0268 18.2145 13.6683 18.3851 13.2877 18.408C12.9071 18.4309 12.5318 18.3043 12.2385 18.0532C11.9462 17.803 11.7573 17.4478 11.711 17.0593L11.7 16.8706V10.125C11.7 9.71616 11.8588 9.32472 12.1405 9.03663C12.4221 8.74865 12.8033 8.58751 13.2 8.5875L14.689 9.94063ZM31.2342 16.5307L31.2341 16.5308L31.24 16.534L31.471 16.6606L31.4709 16.6607L31.4754 16.6629C32.1504 17.0041 32.7507 17.7074 32.8388 18.6321L32.85 18.8748V21.9375C32.8501 23.1916 32.3815 24.3977 31.5412 25.3091C30.7015 26.22 29.554 26.7678 28.3337 26.8417L28.0478 26.85H4.95C3.7267 26.8501 2.549 26.3721 1.65799 25.5129C0.767408 24.654 0.230568 23.4792 0.15813 22.2281L0.15 21.9354V18.8713C0.15 17.9105 0.694603 17.1596 1.35577 16.7567L1.52701 16.6617C2.08414 16.3814 2.5566 15.9528 2.89489 15.4215C3.23373 14.8892 3.42548 14.2736 3.45018 13.6395C3.47487 13.0055 3.3316 12.3762 3.03529 11.8182C2.73896 11.2602 2.30047 10.794 1.76582 10.4693L1.7659 10.4692L1.76002 10.466L1.52902 10.3394L1.52906 10.3393L1.52462 10.3371C0.849626 9.99589 0.24925 9.2926 0.161221 8.36789L0.15 8.12689V5.0625V5.06249C0.149932 3.80844 0.618456 2.60234 1.4588 1.69086C2.29853 0.780047 3.44595 0.232255 4.6663 0.158306L4.95218 0.15H28.05C29.2733 0.14993 30.451 0.627911 31.342 1.48714C32.2326 2.34598 32.7695 3.5209 32.8419 4.77198L32.85 5.0625V5.06447V8.12838C32.8463 8.55832 32.7329 8.97966 32.5213 9.35066C32.3098 9.72133 32.0077 10.0287 31.6451 10.2429L31.473 10.3383C30.9159 10.6186 30.4434 11.0472 30.1051 11.5785C29.7663 12.1108 29.5745 12.7264 29.5498 13.3605C29.5251 13.9945 29.6684 14.6238 29.9647 15.1818C30.261 15.7398 30.6995 16.206 31.2342 16.5307ZM28.0592 3.22528L28.0592 3.225H28.05H4.95H4.94998C4.50811 3.22506 4.08217 3.391 3.75286 3.69048C3.42365 3.98989 3.21392 4.40184 3.16254 4.8479L3.1623 4.84787L3.16181 4.8563L3.15026 5.05374L3.15 5.05373V5.0625V7.65281V7.73851L3.22383 7.78203C4.1794 8.34531 4.97809 9.1501 5.54326 10.1198C6.10843 11.0895 6.42106 12.1915 6.45102 13.3204C6.48098 14.4493 6.22726 15.5671 5.71431 16.5668C5.20167 17.5659 4.44733 18.4135 3.52369 19.0289L3.22002 19.2203L3.15 19.2644V19.3472V21.9375C3.15006 22.3866 3.31125 22.8206 3.60378 23.157C3.89639 23.4936 4.30022 23.7092 4.73901 23.7621L4.73898 23.7624L4.74779 23.7629L4.94084 23.7747L4.94082 23.775H4.95H28.05C28.4919 23.7749 28.9178 23.609 29.2471 23.3095C29.5764 23.0101 29.7861 22.5982 29.8375 22.1521L29.8377 22.1521L29.8382 22.1437L29.8497 21.9463L29.85 21.9463V21.9375V19.3472V19.2615L29.7762 19.218C28.8206 18.6547 28.0219 17.8499 27.4567 16.8802C26.8916 15.9105 26.5789 14.8085 26.549 13.6796C26.519 12.5507 26.7727 11.4329 27.2857 10.4332C27.7983 9.43411 28.5527 8.58652 29.4763 7.9711L29.78 7.77971L29.85 7.73558V7.65281V5.0625C29.8499 4.61338 29.6888 4.17941 29.3962 3.84295C29.1036 3.50641 28.6998 3.29076 28.261 3.23789L28.261 3.23763L28.2522 3.23709L28.0592 3.22528Z" fill="#636363" stroke="#2D2D2D" stroke-width="0.3"/>
</svg>
