<svg width="20" height="21" viewBox="0 0 20 21" fill="none" xmlns="http://www.w3.org/2000/svg">
<path fill-rule="evenodd" clip-rule="evenodd" d="M7 0.545218C6.46957 0.545218 5.96086 0.755931 5.58579 1.131C5.21071 1.50608 5 2.01478 5 2.54522V4.54522H7V2.54522H18V13.5452H16V15.5452H18C18.5304 15.5452 19.0391 15.3345 19.4142 14.9594C19.7893 14.5844 20 14.0757 20 13.5452V2.54522C20 2.01478 19.7893 1.50608 19.4142 1.131C19.0391 0.755931 18.5304 0.545218 18 0.545218H7ZM2 5.54522C1.46957 5.54522 0.960859 5.75593 0.585786 6.131C0.210714 6.50608 0 7.01478 0 7.54522V18.5452C0 19.0757 0.210714 19.5844 0.585786 19.9594C0.960859 20.3345 1.46957 20.5452 2 20.5452H13C13.5304 20.5452 14.0391 20.3345 14.4142 19.9594C14.7893 19.5844 15 19.0757 15 18.5452V7.54522C15 7.01478 14.7893 6.50608 14.4142 6.131C14.0391 5.75593 13.5304 5.54522 13 5.54522H2ZM2 7.54522H13V18.5452H2V7.54522Z" fill="#BABABA"/>
</svg>
