<svg width="352" height="195" viewBox="0 0 352 195" fill="none" xmlns="http://www.w3.org/2000/svg">
<rect width="7.67853" height="15.3722" transform="matrix(0.147887 -0.989004 0.989049 0.147588 32 93.5941)" fill="#4F46A5"/>
<rect width="7.68096" height="15.3674" transform="matrix(0.573069 0.819507 -0.820063 0.572273 20.6023 121)" fill="#F2BF27"/>
<path d="M16.3938 28L11.9905 32.6469L16.9523 37.3389L11.9618 42.6053L16.6135 47.0041" stroke="#25C869" stroke-width="2"/>
<rect width="7.67894" height="15.3714" transform="matrix(0.271032 -0.96257 0.962716 0.270513 124 169.391)" fill="#F2BF27"/>
<rect width="7.68083" height="15.3676" transform="matrix(0.901997 -0.431742 0.430878 0.90241 88.7476 144.196)" fill="#4F46A5"/>
<rect x="116" y="100" width="7.6863" height="15.3567" fill="#4F46A5"/>
<rect width="7.68353" height="15.3623" transform="matrix(0.807337 -0.590091 0.590886 0.806755 131 30.5339)" fill="#4F46A5"/>
<rect width="7.68091" height="15.3675" transform="matrix(0.567687 0.823244 -0.823792 0.566892 75.6597 55)" fill="#F2BF27"/>
<rect width="7.68202" height="15.3653" transform="matrix(0.679546 -0.733633 0.734333 0.67879 267 34.6357)" fill="#4F46A5"/>
<rect width="7.68202" height="15.3653" transform="matrix(0.679546 -0.733633 0.734333 0.67879 316 5.63574)" fill="#4F46A5"/>
<rect x="35.3247" y="174.599" width="7.6863" height="15.3567" transform="rotate(-56.1904 35.3247 174.599)" fill="#F2BF27"/>
<rect width="7.67853" height="15.3722" transform="matrix(0.147887 -0.989004 0.989049 0.147588 220 69.5941)" fill="#4F46A5"/>
<rect width="7.67853" height="15.3722" transform="matrix(0.147887 -0.989004 0.989049 0.147588 323 165.594)" fill="#4F46A5"/>
<rect x="195" y="111" width="7.6863" height="15.3567" fill="#F2BF27"/>
<rect x="303" y="179" width="7.6863" height="15.3567" fill="#F2BF27"/>
<rect width="7.68527" height="15.3588" transform="matrix(0.932975 -0.35994 0.360588 0.932725 163 77.7662)" fill="#F2BF27"/>
<rect width="7.68096" height="15.3674" transform="matrix(0.573069 0.819507 -0.820063 0.572273 258.602 111)" fill="#F2BF27"/>
<path d="M141 127L141 133.399H147.832V140.65H154.238" stroke="#25C869" stroke-width="2"/>
<path d="M193.556 157L189.077 161.578L193.954 166.353L188.877 171.541L193.45 176.018" stroke="#25C869" stroke-width="2"/>
<path d="M76.3938 111L71.9905 115.647L76.9523 120.339L71.9618 125.605L76.6135 130.004" stroke="#25C869" stroke-width="2"/>
<path d="M315.394 70L310.99 74.6469L315.952 79.3389L310.962 84.6053L315.613 89.0041" stroke="#25C869" stroke-width="2"/>
</svg>
