<svg width="171" height="171" viewBox="0 0 171 171" fill="none" xmlns="http://www.w3.org/2000/svg">
<path d="M69.0469 93.0938C69.0469 97.4574 70.7803 101.642 73.8659 104.728C76.9514 107.813 81.1364 109.547 85.5 109.547C89.8636 109.547 94.0486 107.813 97.1341 104.728C100.22 101.642 101.953 97.4574 101.953 93.0938C101.953 88.7301 100.22 84.5452 97.1341 81.4596C94.0486 78.3741 89.8636 76.6406 85.5 76.6406C81.1364 76.6406 76.9514 78.3741 73.8659 81.4596C70.7803 84.5452 69.0469 88.7301 69.0469 93.0938ZM120.938 65.25H103.219C101.953 60.1875 100.688 55.125 95.625 55.125H75.375C70.3125 55.125 69.0469 60.1875 67.7812 65.25H50.0625C47.2781 65.25 45 67.5281 45 70.3125V115.875C45 118.659 47.2781 120.938 50.0625 120.938H120.938C123.722 120.938 126 118.659 126 115.875V70.3125C126 67.5281 123.722 65.25 120.938 65.25ZM85.5 115.561C79.5413 115.561 73.8266 113.194 69.6132 108.981C65.3997 104.767 63.0326 99.0525 63.0326 93.0938C63.0326 87.135 65.3997 81.4204 69.6132 77.2069C73.8266 72.9935 79.5413 70.6264 85.5 70.6264C91.4587 70.6264 97.1734 72.9935 101.387 77.2069C105.6 81.4204 107.967 87.135 107.967 93.0938C107.967 99.0525 105.6 104.767 101.387 108.981C97.1734 113.194 91.4587 115.561 85.5 115.561ZM120.938 80.4375H110.812V75.375H120.938V80.4375Z" fill="#25C769"/>
<circle cx="85.5" cy="85.5" r="85.5" fill="#25C869" fill-opacity="0.19"/>
</svg>
