<svg width="352" height="223" viewBox="0 0 352 223" fill="none" xmlns="http://www.w3.org/2000/svg">
<rect width="7.68209" height="15.3651" transform="matrix(0.686021 -0.727582 0.728289 0.68527 0 160.8)" fill="#4F46A5"/>
<rect width="7.68628" height="15.3567" transform="matrix(0.999233 0.0391629 -0.0392438 0.99923 20.6025 114)" fill="#4F46A5"/>
<rect x="43.5557" y="133.882" width="7.6863" height="15.3567" fill="#F2BF27"/>
<path d="M22.7595 93.1876L16.4037 92.3943L15.5567 99.1669L8.35337 98.2678L7.55928 104.617" stroke="#25C869" stroke-width="2"/>
<path d="M36 206.036L39.8925 211.118L45.3184 206.97L49.7299 212.729L54.8167 208.841" stroke="#25C869" stroke-width="2"/>
<path d="M20.4958 32.3567L16.0925 37.0036L21.0543 41.6956L16.0639 46.962L20.7156 51.3608" stroke="#25C869" stroke-width="2"/>
<rect width="7.68209" height="15.3651" transform="matrix(0.686021 -0.727582 0.728289 0.68527 176.785 160.8)" fill="#4F46A5"/>
<rect width="7.68209" height="15.3651" transform="matrix(0.686021 -0.727582 0.728289 0.68527 273.291 160.8)" fill="#4F46A5"/>
<rect width="7.68628" height="15.3567" transform="matrix(0.999233 0.0391629 -0.0392438 0.99923 189.505 116.204)" fill="#4F46A5"/>
<rect width="7.67894" height="15.3714" transform="matrix(0.271032 -0.96257 0.962716 0.270513 123.508 94.5471)" fill="#F2BF27"/>
<rect width="7.68119" height="15.3669" transform="matrix(0.597973 0.801516 -0.802108 0.597179 258.288 103.168)" fill="#F2BF27"/>
<rect x="220.34" y="133.882" width="7.6863" height="15.3567" fill="#F2BF27"/>
<rect x="316.846" y="133.882" width="7.6863" height="15.3567" fill="#F2BF27"/>
<rect width="7.68391" height="15.3615" transform="matrix(0.836854 0.547426 -0.548219 0.836335 142.421 189)" fill="#F2BF27"/>
<rect width="7.68263" height="15.364" transform="matrix(0.734257 -0.678872 0.679628 0.733557 74 176.216)" fill="#F2BF27"/>
<rect width="7.67883" height="15.3716" transform="matrix(0.244908 -0.969546 0.969666 0.244433 76.009 125.97)" fill="#4F46A5"/>
<rect x="142.624" y="50.2728" width="7.6863" height="15.3567" fill="#4F46A5"/>
<rect width="7.68353" height="15.3623" transform="matrix(0.807337 -0.590091 0.590886 0.806755 101 49.5339)" fill="#4F46A5"/>
<rect width="7.68091" height="15.3675" transform="matrix(0.567687 0.823244 -0.823792 0.566892 71.1912 42.7554)" fill="#F2BF27"/>
<rect width="7.68202" height="15.3653" transform="matrix(0.679546 -0.733633 0.734333 0.67879 235 8.63574)" fill="#4F46A5"/>
<rect width="7.68202" height="15.3653" transform="matrix(0.679546 -0.733633 0.734333 0.67879 335.497 31.666)" fill="#4F46A5"/>
<rect width="7.67853" height="15.3722" transform="matrix(0.147887 -0.989004 0.989049 0.147588 221 68.5941)" fill="#4F46A5"/>
<rect x="172.515" y="57.9513" width="7.6863" height="15.3567" fill="#F2BF27"/>
<rect x="267" y="42" width="7.6863" height="15.3567" fill="#F2BF27"/>
<rect width="7.68527" height="15.3588" transform="matrix(0.932975 -0.35994 0.360588 0.932725 129 2.76624)" fill="#F2BF27"/>
<rect width="7.68096" height="15.3674" transform="matrix(0.573069 0.819507 -0.820063 0.572273 321.373 83.6797)" fill="#F2BF27"/>
<path d="M296.05 93.1876L289.694 92.3943L288.847 99.1669L281.644 98.2678L280.85 104.617" stroke="#25C869" stroke-width="2"/>
<path d="M212 214.036L215.892 219.118L221.318 214.97L225.73 220.729L230.817 216.841" stroke="#25C869" stroke-width="2"/>
<path d="M307 188.036L310.892 193.118L316.318 188.97L320.73 194.729L325.817 190.841" stroke="#25C869" stroke-width="2"/>
<path d="M79.425 25.0361L83.3175 30.1177L88.7435 25.9701L93.1549 31.7292L98.2418 27.8408" stroke="#25C869" stroke-width="2"/>
<path d="M139.035 126.189L132.679 125.396L131.832 132.169L124.629 131.27L123.835 137.619" stroke="#25C869" stroke-width="2"/>
<path d="M71.5425 71.213L67.1392 75.8599L72.1009 80.5519L67.1105 85.8183L71.7622 90.2171" stroke="#25C869" stroke-width="2"/>
<path d="M191.394 19L186.99 23.6469L191.952 28.3389L186.962 33.6053L191.613 38.0041" stroke="#25C869" stroke-width="2"/>
<path d="M297.394 9L292.99 13.6469L297.952 18.3389L292.962 23.6053L297.613 28.0041" stroke="#25C869" stroke-width="2"/>
</svg>
