<svg width="21" height="22" viewBox="0 0 21 22" fill="none" xmlns="http://www.w3.org/2000/svg">
<circle cx="10.5" cy="11.5" r="10" stroke="black"/>
<path d="M10.1506 17V8.81818H11.4077V17H10.1506ZM10.7898 7.45455C10.5447 7.45455 10.3335 7.37109 10.1559 7.20419C9.98189 7.03729 9.89489 6.83665 9.89489 6.60227C9.89489 6.3679 9.98189 6.16726 10.1559 6.00035C10.3335 5.83345 10.5447 5.75 10.7898 5.75C11.0348 5.75 11.2443 5.83345 11.4183 6.00035C11.5959 6.16726 11.6847 6.3679 11.6847 6.60227C11.6847 6.83665 11.5959 7.03729 11.4183 7.20419C11.2443 7.37109 11.0348 7.45455 10.7898 7.45455Z" fill="black"/>
</svg>
