<svg width="172" height="171" viewBox="0 0 172 171" fill="none" xmlns="http://www.w3.org/2000/svg">
    <circle cx="86" cy="85.5" r="85.5" fill="#25C869" fill-opacity="0.19" />
    <path
        d="M125.104 118.635L119.543 101.949H113.442L116.83 118.22H57.172L60.5605 101.949H54.4588L48.8941 118.635C47.4826 122.882 49.9842 126.356 54.4588 126.356H119.543C124.018 126.356 126.52 122.882 125.104 118.635ZM107.34 65.3389C107.34 59.9447 105.197 54.7714 101.383 50.9571C97.5686 47.1428 92.3953 45 87.0011 45C81.6069 45 76.4336 47.1428 72.6193 50.9571C68.805 54.7714 66.6622 59.9447 66.6622 65.3389C66.6622 84.7626 87.0011 106.017 87.0011 106.017C87.0011 106.017 107.34 84.7626 107.34 65.3389ZM76.0181 65.583C76.0181 64.1409 76.3022 62.7129 76.8542 61.3806C77.4062 60.0483 78.2152 58.8378 79.2352 57.8183C80.2551 56.7987 81.4659 55.9901 82.7984 55.4386C84.1309 54.8871 85.559 54.6035 87.0011 54.604C89.9134 54.604 92.7065 55.761 94.7658 57.8203C96.8251 59.8796 97.9821 62.6727 97.9821 65.585C97.9821 68.4974 96.8251 71.2904 94.7658 73.3498C92.7065 75.4091 89.9134 76.566 87.0011 76.566C84.0882 76.566 81.2946 75.4089 79.2349 73.3492C77.1752 71.2894 76.0181 68.4959 76.0181 65.583Z"
        fill="#25C769" />
</svg>
