<svg width="29" height="25" viewBox="0 0 29 25" fill="none" xmlns="http://www.w3.org/2000/svg">
<g clip-path="url(#clip0_2001_1874)">
<path d="M1.98111 1.05351L7.22959 2.10183C7.58358 2.21304 7.84227 2.57448 7.84227 2.99152V23.9687C7.84227 24.5803 7.29767 25.0252 6.76668 24.8583L1.5182 23.8656C1.15059 23.7544 0.905524 23.393 0.905524 22.9759V1.92929C0.891908 1.31763 1.43651 0.872792 1.98111 1.05351Z" fill="black"/>
<path d="M11.1916 2.10184L17.332 0.141747C17.8766 -0.0389708 18.4212 0.405872 18.4212 1.03143V22.0642C18.4212 22.4812 18.1762 22.8426 17.8085 22.9539L11.6818 24.8583C11.1372 25.0252 10.6062 24.5803 10.6062 23.9687V2.99152C10.6062 2.58838 10.8513 2.22695 11.2189 2.10184H11.1916Z" fill="black"/>
<path d="M28.1081 2.07975V23.0569C28.1081 23.6685 27.5635 24.1134 27.0325 23.9466L21.7841 22.9539C21.4165 22.8426 21.1714 22.4812 21.1714 22.0642V1.01753C21.1714 0.405868 21.716 -0.0389746 22.2606 0.127842L27.5091 1.17617C28.1217 1.41008 28.1217 2.56058 28.1217 2.97762L28.1149 2.52869L28.1081 2.07975Z" fill="black"/>
</g>
<defs>
<clipPath id="clip0_2001_1874">
<rect width="29" height="24.8" fill="white" transform="translate(0 0.100037)"/>
</clipPath>
</defs>
</svg>
