<svg width="21" height="26" viewBox="0 0 21 26" fill="none" xmlns="http://www.w3.org/2000/svg">
    <path
        d="M10.1254 21.0546C13.1423 21.0546 16.1353 21.1129 19.1522 20.9729C19.6411 20.9496 20.2016 20.8796 20.44 20.4597C20.7501 19.8999 20.2254 19.27 19.7723 18.8152C18.8422 17.8587 18.0671 16.739 17.6259 15.491C16.5885 12.5634 17.4232 9.16928 16.0638 6.35833C15.0979 4.3755 13.0231 2.94087 10.7813 2.75425C8.53948 2.56763 6.22614 3.64069 4.986 5.47189C4.1036 6.77823 3.76971 8.36449 3.61469 9.91576C3.45968 11.467 3.45968 13.0416 3.14964 14.5812C2.83961 16.1208 2.19569 17.6488 0.991324 18.6635C0.538196 19.0484 -0.034176 19.445 0.00159724 20.0282C0.0254461 20.4364 0.35933 20.7747 0.752835 20.9146C1.14634 21.0546 1.5637 21.0662 1.98105 21.0662C4.56865 21.0662 7.14432 21.0429 9.73192 21.0429H10.4116"
        fill="black" />
    <path d="M7.3335 24H13.2002" stroke="black" stroke-width="3" stroke-linecap="round"
        stroke-linejoin="round" />
    <path d="M10.2666 2V4.08201" stroke="black" stroke-width="2.5" stroke-linecap="round"
        stroke-linejoin="round" />
</svg>
