<svg width="160" height="97" viewBox="0 0 160 97" fill="none" xmlns="http://www.w3.org/2000/svg">
<g clip-path="url(#clip0_2055_2352)">
<path d="M80.0002 78.5254C123.905 78.5254 159.497 75.6917 159.497 72.1961C159.497 68.7005 123.905 65.8668 80.0002 65.8668C36.0953 65.8668 0.503418 68.7005 0.503418 72.1961C0.503418 75.6917 36.0953 78.5254 80.0002 78.5254Z" fill="url(#paint0_linear_2055_2352)" stroke="#4C4C4C" stroke-width="1.67" stroke-miterlimit="10"/>
<g opacity="0.32">
<path d="M138.646 72.1646C138.646 72.7161 134.924 73.2256 128.551 73.6511V73.5828C88.5 68.2304 29.2048 73.4672 29.2048 73.4672V73.4882C24.215 73.0995 21.3594 72.6426 21.3594 72.1646C21.3594 70.6991 47.9695 68.0256 80.3575 68.0256C112.746 68.0256 138.646 70.6991 138.646 72.1646Z" fill="#4C4C4C"/>
<path d="M29.2048 73.4882C24.215 73.0995 21.3594 72.6426 21.3594 72.1646C21.3594 70.6991 47.9695 68.0256 80.3575 68.0256C112.746 68.0256 138.646 70.6991 138.646 72.1646C138.646 72.7161 134.924 73.2256 128.551 73.6511C118.002 74.3549 100.195 74.8171 80.0058 74.8171C58.3006 74.8171 39.348 74.2814 29.2048 73.4882Z" stroke="#4C4C4C" stroke-width="0.98" stroke-miterlimit="10"/>
<path d="M29.2046 73.4672C29.2046 73.4672 88.4998 68.2304 128.545 73.5828" stroke="#4C4C4C" stroke-width="0.98" stroke-miterlimit="10"/>
</g>
</g>
<g clip-path="url(#clip1_2055_2352)">
<path d="M130.383 32.0863L130.318 32.1033C130.318 32.1033 130.364 32.0914 130.383 32.0863C131.571 31.9107 132.788 32.4757 133.121 33.3783C133.454 34.2809 132.775 35.1848 131.602 35.417C132.796 35.2397 134.019 35.803 134.359 36.7039C134.704 37.626 133.988 38.5471 132.769 38.7612C132.544 38.7975 132.32 38.8109 132.097 38.8014C128.16 39.7737 125.892 42.8478 127.028 45.966C128.159 49.0701 132.303 51.0965 136.491 50.6628C136.693 50.5645 136.923 50.4966 137.172 50.4464C138.417 50.2256 139.706 50.779 140.065 51.6977C140.417 52.5953 139.727 53.5096 138.523 53.7573C139.748 53.5645 141.01 54.1176 141.362 55.0152C141.715 55.9127 141.024 56.827 139.815 57.0765C139.795 57.0815 139.75 57.0934 139.75 57.0934C139.75 57.0934 139.795 57.0815 139.821 57.0748C141.052 56.8802 142.319 57.4246 142.68 58.3275C143.039 59.2233 142.342 60.1394 141.125 60.3905C141.106 60.3956 141.054 60.4091 141.054 60.4091C141.054 60.4091 141.099 60.3973 141.125 60.3905C142.363 60.1942 143.636 60.7369 143.997 61.6398C144.362 62.5569 143.634 63.4884 142.371 63.7214C142.168 63.7598 141.972 63.7735 141.772 63.7731C101.446 70.847 60.8565 73.871 19.6905 72.9879C19.5062 73.0212 19.3016 73.0295 19.0933 73.0237C17.7585 72.9809 16.509 72.16 16.2954 71.1882C16.0901 70.2218 16.9959 69.4702 18.3307 69.5129C18.3795 69.5152 18.4284 69.5175 18.4772 69.5198C18.4284 69.5175 18.3814 69.5223 18.3325 69.52C17.0042 69.4755 15.7612 68.6529 15.5559 67.6865C15.3505 66.7201 16.2563 65.9685 17.5847 66.0129C17.6335 66.0152 17.6824 66.0175 17.7248 66.0215C17.6759 66.0192 17.6289 66.024 17.5801 66.0217C16.2582 65.9756 15.0216 65.1512 14.8163 64.1848C14.6175 63.2167 15.5186 62.4739 16.8387 62.513C16.8875 62.5152 16.9364 62.5175 16.9788 62.5215C16.9299 62.5192 16.8829 62.524 16.8405 62.52C15.5251 62.4722 14.295 61.6461 14.0961 60.678C13.8973 59.7099 14.8049 58.9654 16.112 59.0079C16.3904 59.018 16.6717 59.0651 16.9326 59.1402C21.2565 59.0411 24.1013 56.4053 23.4046 53.1191C22.7022 49.8117 18.7321 47.0292 14.3503 46.6447C14.1356 46.6934 13.8987 46.7102 13.648 46.7005C12.3602 46.6529 11.1624 45.8184 10.9764 44.8469C10.7904 43.8754 11.687 43.1414 12.9684 43.1906C13.0172 43.1929 13.0596 43.1969 13.1085 43.1992C13.0596 43.1969 13.0191 43.2 12.9702 43.1977C11.6889 43.1484 10.4975 42.3123 10.3198 41.3461C10.1422 40.38 11.0304 39.6406 12.3118 39.6898C12.3607 39.6921 12.4031 39.6961 12.4519 39.6984C12.4031 39.6961 12.3625 39.6992 12.3136 39.6969C11.0388 39.646 9.8538 38.8081 9.67614 37.842C9.49848 36.8758 10.3868 36.1364 11.6617 36.1873C11.7105 36.1896 11.7529 36.1936 11.8018 36.1959C11.7529 36.1936 11.7124 36.1967 11.6635 36.1944C10.3951 36.1418 9.21843 35.3093 9.04536 34.3344C8.8723 33.3595 9.75599 32.6289 11.0244 32.6815C11.2623 32.6947 11.4909 32.7254 11.7141 32.7877C50.6834 34.1263 89.0566 31.7744 127.316 25.5979C127.502 25.5189 127.704 25.4506 127.929 25.4143C129.129 25.2053 130.371 25.7864 130.701 26.7048C131.028 27.6091 130.355 28.5113 129.188 28.7418C129.169 28.7469 129.124 28.7588 129.124 28.7588C129.124 28.7588 129.169 28.7469 129.19 28.7489C130.378 28.5733 131.582 29.1417 131.915 30.0443C132.242 30.9486 131.569 31.8507 130.396 32.0829L130.383 32.0863Z" fill="#F2BF27"/>
<path d="M130.383 32.0863L130.318 32.1033C130.318 32.1033 130.364 32.0914 130.383 32.0863ZM130.383 32.0863C131.571 31.9107 132.788 32.4757 133.121 33.3783C133.454 34.2809 132.775 35.1848 131.602 35.417M130.383 32.0863L130.396 32.0829C131.569 31.8507 132.242 30.9486 131.915 30.0443C131.582 29.1417 130.378 28.5733 129.19 28.7489C129.169 28.7469 129.124 28.7588 129.124 28.7588C129.124 28.7588 129.169 28.7469 129.188 28.7418C130.355 28.5113 131.028 27.6091 130.701 26.7048C130.371 25.7864 129.129 25.2053 127.929 25.4143C127.704 25.4506 127.502 25.5189 127.316 25.5979C89.0566 31.7743 50.6834 34.1263 11.7141 32.7877C11.4909 32.7254 11.2623 32.6947 11.0244 32.6815C9.75599 32.6289 8.8723 33.3595 9.04536 34.3344C9.21843 35.3093 10.3951 36.1418 11.6635 36.1944C11.7124 36.1967 11.7529 36.1936 11.8018 36.1959C11.7529 36.1936 11.7105 36.1896 11.6617 36.1873C10.3868 36.1364 9.49848 36.8758 9.67614 37.842C9.8538 38.8081 11.0388 39.646 12.3136 39.6969C12.3625 39.6992 12.4031 39.6961 12.4519 39.6984C12.4031 39.6961 12.3607 39.6921 12.3118 39.6898C11.0304 39.6406 10.1422 40.38 10.3198 41.3461C10.4975 42.3123 11.6889 43.1484 12.9702 43.1977C13.0191 43.2 13.0596 43.1969 13.1085 43.1992C13.0596 43.1969 13.0172 43.1929 12.9684 43.1906C11.687 43.1414 10.7904 43.8754 10.9764 44.8469C11.1624 45.8184 12.3602 46.6529 13.648 46.7005C13.8987 46.7102 14.1356 46.6934 14.3503 46.6447C18.7321 47.0292 22.7022 49.8117 23.4046 53.1191C24.1013 56.4053 21.2565 59.0411 16.9326 59.1402C16.6717 59.0651 16.3904 59.018 16.112 59.0079C14.8049 58.9654 13.8973 59.7099 14.0961 60.678C14.295 61.6461 15.5251 62.4722 16.8405 62.52C16.8829 62.524 16.9299 62.5192 16.9788 62.5215C16.9364 62.5175 16.8875 62.5152 16.8387 62.513C15.5186 62.4739 14.6175 63.2167 14.8163 64.1848C15.0216 65.1512 16.2582 65.9756 17.5801 66.0217C17.6289 66.024 17.6759 66.0192 17.7248 66.0215C17.6824 66.0175 17.6335 66.0152 17.5847 66.0129C16.2563 65.9685 15.3505 66.7201 15.5559 67.6865C15.7612 68.6529 17.0042 69.4755 18.3325 69.52C18.3814 69.5223 18.4284 69.5175 18.4772 69.5198C18.4284 69.5175 18.3795 69.5152 18.3307 69.5129C16.9959 69.4702 16.0901 70.2218 16.2954 71.1882C16.509 72.16 17.7585 72.9809 19.0933 73.0237C19.3016 73.0295 19.5062 73.0212 19.6905 72.9879C60.8565 73.871 101.446 70.847 141.772 63.7731C141.972 63.7735 142.168 63.7598 142.371 63.7214C143.634 63.4884 144.362 62.5569 143.997 61.6398C143.636 60.7369 142.363 60.1942 141.125 60.3905M131.602 35.417C131.582 35.4221 131.537 35.4339 131.537 35.4339M131.602 35.417C132.796 35.2397 134.019 35.803 134.359 36.7039C134.704 37.626 133.988 38.5471 132.769 38.7612C132.544 38.7975 132.32 38.8109 132.097 38.8014C128.16 39.7737 125.892 42.8478 127.028 45.966C128.159 49.0701 132.303 51.0965 136.491 50.6628C136.693 50.5646 136.923 50.4966 137.172 50.4464C138.417 50.2256 139.706 50.779 140.065 51.6977C140.417 52.5953 139.727 53.5096 138.523 53.7573M138.523 53.7573C138.504 53.7624 138.459 53.7743 138.459 53.7743M138.523 53.7573C139.748 53.5645 141.01 54.1176 141.362 55.0152C141.715 55.9127 141.024 56.827 139.815 57.0765C139.795 57.0815 139.75 57.0934 139.75 57.0934C139.75 57.0934 139.795 57.0815 139.821 57.0748C141.052 56.8802 142.319 57.4246 142.68 58.3275C143.039 59.2233 142.342 60.1394 141.125 60.3905M141.125 60.3905C141.106 60.3956 141.054 60.4091 141.054 60.4091C141.054 60.4091 141.099 60.3973 141.125 60.3905Z" stroke="white" stroke-miterlimit="10"/>
<path d="M143.24 60.017C143.667 59.4893 143.805 58.8333 143.545 58.1836C143.283 57.5268 142.679 57.0125 141.929 56.7029C142.356 56.1753 142.488 55.521 142.234 54.8696C141.972 54.2128 141.375 53.6968 140.625 53.3872C141.052 52.8595 141.184 52.2053 140.93 51.5538C140.432 50.2863 138.644 49.5159 136.926 49.8232C136.656 49.8714 136.399 49.9462 136.155 50.0405C132.429 50.3682 128.879 48.5562 127.884 45.8396C126.881 43.0947 128.773 40.3991 132.26 39.4765C132.509 39.4793 132.759 39.4591 132.994 39.4123C133.811 39.2661 134.491 38.891 134.908 38.3509C135.325 37.8108 135.421 37.1808 135.196 36.5597C134.947 35.8995 134.37 35.3785 133.644 35.055C134.066 34.5361 134.197 33.8818 133.957 33.227C133.714 32.5651 133.136 32.0441 132.419 31.7261C132.841 31.2071 132.972 30.5529 132.732 29.8981C132.489 29.2362 131.918 28.7135 131.2 28.3954C131.616 27.8782 131.754 27.2222 131.513 26.5674C131.29 25.9533 130.765 25.4258 130.044 25.0936C129.321 24.7544 128.48 24.65 127.681 24.784C127.424 24.8288 127.179 24.8931 126.954 24.9823C88.8029 31.1229 50.5495 33.4585 11.6927 32.1283C11.4308 32.076 11.1496 32.0289 10.8841 32.0154C10.0406 31.9798 9.2897 32.1919 8.76869 32.6234C8.25413 33.0531 8.03113 33.6482 8.14465 34.2911C8.26003 34.941 8.69983 35.5663 9.38551 36.0514C9.40397 36.0693 9.42703 36.0783 9.4455 36.0962C9.42801 36.1083 9.41696 36.1188 9.39947 36.1309C8.87846 36.5624 8.66191 37.1558 8.77728 37.8057C8.89266 38.4556 9.33891 39.0792 10.0246 39.5644C10.0431 39.5822 10.0661 39.5913 10.0846 39.6091C10.0671 39.6212 10.056 39.6317 10.0386 39.6439C9.51754 40.0753 9.29454 40.6704 9.41637 41.3186C9.54288 42.011 10.0417 42.651 10.7366 43.1186C10.2035 43.5306 9.93539 44.1375 10.0684 44.8282C10.1902 45.4764 10.6429 46.0983 11.3369 46.5888C12.0354 47.0706 12.8969 47.3585 13.7615 47.3962C14.0399 47.4063 14.3045 47.3898 14.5551 47.3467C18.4235 47.745 21.8751 50.2328 22.4873 53.1179C23.0921 55.9747 20.6478 58.3241 16.8771 58.4821C16.5691 58.4118 16.2621 58.3714 15.956 58.361C15.0785 58.3268 14.3101 58.5511 13.7826 58.9842C13.2552 59.4174 13.0386 60.0108 13.1687 60.6644C13.297 61.3109 13.7645 61.9365 14.4842 62.4203C14.5092 62.4364 14.5258 62.4472 14.5507 62.4633C14.0131 62.884 13.7449 63.4909 13.8908 64.1782C14.0255 64.8231 14.493 65.4486 15.2192 65.9307C15.2441 65.9468 15.2607 65.9576 15.2856 65.9737C14.748 66.3944 14.4799 67.0014 14.6257 67.6887C14.7716 68.3759 15.2981 69.0162 16.027 69.4825C16.0095 69.4946 15.992 69.5068 15.981 69.5173C15.4471 69.9521 15.2324 70.5526 15.3671 71.1974C15.5037 71.8493 15.9822 72.4644 16.7149 72.9448C17.2132 73.2676 17.7851 73.503 18.3761 73.6275C18.6611 73.6888 18.945 73.7201 19.2299 73.7285C19.4723 73.7329 19.711 73.7232 19.9377 73.6939C61.0724 74.5626 101.624 71.5258 141.915 64.4533C142.156 64.4506 142.391 64.4267 142.62 64.3816C143.469 64.227 144.167 63.8397 144.588 63.2909C145.012 62.7491 145.113 62.1103 144.862 61.4959C144.6 60.8391 143.996 60.3249 143.234 60.0187L143.24 60.017Z" fill="url(#paint1_linear_2055_2352)" stroke="black" stroke-miterlimit="10"/>
<path d="M55.8954 53.9656C55.8954 53.9656 55.8705 53.9495 55.8558 53.9458C55.8002 53.7866 55.7733 53.7105 55.7196 53.5583C55.6807 53.4098 55.6962 53.3377 55.6913 53.1878C55.6986 53.1104 55.7022 53.0716 55.7076 52.9871C55.8668 52.8319 56.0446 52.7475 56.2574 52.6917C56.38 52.6595 56.4823 52.6553 56.6122 52.6515C56.7827 52.6445 56.8703 52.6367 57.0408 52.6297C57.1367 52.6272 57.239 52.6231 57.3404 52.6418C57.4086 52.639 57.4363 52.6393 57.5045 52.6365C57.6473 52.6293 57.722 52.6248 57.8649 52.6176C58.1543 52.6172 58.3055 52.6153 58.593 52.6079C58.6825 52.6071 58.7295 52.6023 58.8253 52.5998C59.1664 52.5859 59.3369 52.579 59.676 52.558C59.806 52.5541 59.8742 52.5514 60.0023 52.5404C60.3581 52.5302 60.5369 52.5286 60.8946 52.5255C61.0319 52.497 61.1047 52.4855 61.242 52.457C61.5683 52.4394 61.7323 52.4342 62.0586 52.4166C62.1848 52.3986 62.2512 52.3887 62.3793 52.3778C62.6945 52.3706 62.8522 52.3671 63.1738 52.3582C63.3223 52.3722 63.3988 52.3748 63.5472 52.3888C63.8606 52.3746 64.0164 52.3639 64.3362 52.348C64.4404 52.3509 64.4957 52.3515 64.6081 52.3598L64.6404 52.3513C64.7104 52.3556 64.7778 52.3758 64.8986 52.4423C65.311 52.6213 65.503 52.8279 65.542 52.9764C65.5891 53.0245 65.568 53.0753 65.5809 53.1248C65.5932 53.303 65.5961 53.3929 65.602 53.5728C65.615 53.6223 65.6335 53.693 65.6263 53.7705C65.5557 54.0006 65.3863 54.1433 65.1855 54.2187C65.0086 54.2802 64.8114 54.3168 64.6077 54.3023C64.4224 54.3055 64.3247 54.3009 64.1394 54.3042C63.9375 54.2967 63.8334 54.2938 63.6296 54.2792C63.3144 54.2864 63.1568 54.2899 62.8351 54.2988C62.6867 54.2848 62.6101 54.2822 62.4617 54.2683C62.1594 54.272 62.0018 54.2756 61.6994 54.2793C61.5382 54.3216 61.4543 54.3436 61.2894 54.3718C60.9465 54.3786 60.7741 54.3785 60.4312 54.3853C60.2958 54.4209 60.2249 54.4395 60.0894 54.475C59.8544 54.4989 59.7392 54.5065 59.5042 54.5303C59.4083 54.5328 59.2793 54.5666 59.1779 54.5479C59.0931 54.5399 59.059 54.5413 58.9742 54.5334C58.9097 54.5503 58.8839 54.557 58.8175 54.5669C58.6268 54.6018 58.4286 54.6085 58.1852 54.5741C58.1557 54.5667 58.1409 54.563 58.1114 54.5557C57.9299 54.5731 57.8423 54.5809 57.6607 54.5983C57.3603 54.6092 57.2045 54.6198 56.904 54.6306C56.6717 54.6386 56.4495 54.5534 56.288 54.437C56.1265 54.3207 55.9796 54.1552 55.901 53.9869L55.8954 53.9656Z" fill="white"/>
<path d="M66.9469 45.1936C66.9495 45.072 66.9641 45.0228 67.0045 44.914C67.055 44.7647 67.0834 44.6892 67.132 44.5329C67.1558 44.4133 67.1603 44.3516 67.184 44.232C67.2841 44.0093 67.331 43.8987 67.4228 43.6706C67.4586 43.5705 67.5479 43.5168 67.5892 43.438C67.6822 43.3456 67.7309 43.295 67.8239 43.2026C67.8727 43.152 67.9546 43.07 68.0374 43.0181C68.0724 42.9938 68.0899 42.9816 68.1203 42.9661C68.2777 42.8568 68.3542 42.8065 68.5052 42.6988C68.5539 42.6483 68.6488 42.6158 68.7373 42.585C68.8561 42.5388 68.9187 42.5148 69.0376 42.4685C69.2862 42.3125 69.4105 42.2346 69.6545 42.0874C69.7255 42.0688 69.7623 42.0516 69.8379 42.0242C69.9207 41.9722 70.0092 41.9415 70.1041 41.909C70.2395 41.8735 70.304 41.8565 70.4394 41.821C70.5942 41.7804 70.7859 41.7754 70.9482 41.7631C71.0164 41.7603 71.044 41.7606 71.1104 41.7508C71.2661 41.7401 71.3408 41.7357 71.4966 41.725C71.5731 41.7276 71.6155 41.7316 71.7003 41.7396C71.762 41.7385 71.8966 41.7259 71.9639 41.746C72.2497 41.7844 72.3936 41.8071 72.6794 41.8455C72.7854 41.8554 72.8426 41.8631 72.9504 41.8801C73.0519 41.8989 73.1653 41.9371 73.2667 41.9559C73.5296 42.0381 73.6578 42.08 73.9142 42.1639C74.0553 42.2024 74.1706 42.2478 74.2831 42.3089C74.4704 42.4185 74.5664 42.4689 74.7537 42.5785C74.9132 42.6348 74.9972 42.6657 75.1567 42.7221C75.2739 42.7745 75.3347 42.7963 75.4584 42.847C75.6391 42.9054 75.8071 43.0201 75.9686 43.1364C76.1726 43.3096 76.2778 43.3954 76.4901 43.5739C76.564 43.6453 76.6027 43.688 76.6766 43.7593C76.7237 43.8074 76.7763 43.8767 76.8234 43.9248C76.9343 44.0847 76.9907 44.1681 77.1016 44.328C77.1681 44.4239 77.2004 44.4683 77.267 44.5642C77.3503 44.7767 77.3993 44.8847 77.4826 45.0972C77.5104 45.2032 77.5253 45.2598 77.5531 45.3658C77.5771 45.4049 77.5892 45.4244 77.6132 45.4635C77.6733 45.5611 77.7168 45.7008 77.7428 45.7998C77.7502 45.8281 77.7539 45.8422 77.7613 45.8705C77.7763 45.9799 77.7893 46.0294 77.8042 46.1389C77.8394 46.2732 77.858 46.3439 77.8997 46.4766C77.9442 46.6463 77.95 46.7733 77.9272 46.9228C77.9181 46.9933 77.9209 47.0303 77.9118 47.1007C77.8725 47.2924 77.856 47.3874 77.8167 47.5791C77.7846 47.6933 77.7635 47.7442 77.7315 47.8584C77.7048 47.8881 77.7103 47.9093 77.6957 47.9585C77.6102 48.1321 77.5707 48.218 77.4872 48.3987C77.4303 48.5497 77.294 48.661 77.1642 48.7706C77.1007 48.8175 77.0639 48.8347 76.9939 48.8833C76.9451 48.9339 76.8843 48.965 76.8033 49.024C76.7407 49.048 76.7167 49.0618 76.6541 49.0858C76.435 49.2491 76.3254 49.3308 76.1063 49.4941C76.0336 49.5585 75.994 49.5916 75.9213 49.656C75.808 49.7235 75.7473 49.7546 75.634 49.8221C75.4093 49.9642 75.1919 50.0288 75.002 50.0408C74.6445 50.0968 74.4648 50.1213 74.1137 50.1756C73.9589 50.2163 73.721 50.2031 73.5514 50.1871C73.4942 50.1795 73.4666 50.1791 73.4159 50.1698C73.3302 50.1847 73.2832 50.1895 73.191 50.2061C73.0629 50.217 72.8988 50.2223 72.7587 50.2137C72.6103 50.1998 72.5338 50.1972 72.3872 50.1903C72.2176 50.1743 72.0479 50.1584 71.9004 50.1215C71.8081 50.0852 71.7703 50.0725 71.6781 50.0362C71.4006 50.0032 71.2651 49.9859 70.9959 49.9583C70.8603 49.9409 70.7128 49.9041 70.6039 49.8571C70.4296 49.797 70.3392 49.7678 70.1649 49.7077C70.0561 49.6607 69.9085 49.6238 69.7941 49.5556C69.6982 49.5052 69.6548 49.4712 69.5588 49.4208C69.2626 49.2114 69.1113 49.1075 68.815 48.898C68.6138 48.709 68.5214 48.6198 68.3202 48.4308C68.2371 48.377 68.1956 48.3501 68.119 48.2946C68.0322 48.2267 67.9381 48.1305 67.8798 48.04C67.793 47.9192 67.7486 47.8552 67.6618 47.7344C67.6249 47.6987 67.6064 47.6809 67.5676 47.6382C67.5075 47.5406 67.4022 47.4019 67.3763 47.303C67.317 47.1296 67.2864 47.0393 67.2271 46.8659C67.2012 46.8198 67.1874 46.7932 67.1615 46.7471C67.0884 46.6 67.0643 46.5081 67.0594 46.3582C67.0483 46.3158 67.0446 46.3017 67.0335 46.2592C67.0149 46.1885 67.0056 46.1532 66.9889 46.0895C66.963 45.9905 66.924 45.8421 66.9257 45.7434C66.9356 45.5972 66.9428 45.5197 66.9592 45.3718C66.9572 45.3119 66.9563 45.2819 66.9479 45.2236L66.9469 45.1936ZM69.9215 47.4665C70.1247 47.6626 70.2188 47.7588 70.422 47.9549C70.5474 48.0127 70.6055 48.0503 70.731 48.1081C71.0234 48.2506 71.1655 48.3191 71.4579 48.4615C71.5916 48.4718 71.6617 48.4761 71.7954 48.4864C72.0812 48.5247 72.2315 48.5458 72.5191 48.5912C72.6934 48.5984 72.7846 48.6047 72.9588 48.6119C73.1017 48.6046 73.1764 48.6002 73.3174 48.5858C73.4399 48.5537 73.5026 48.5297 73.6232 48.4905C73.7771 48.4727 73.8564 48.4595 74.0103 48.4418C74.3015 48.3956 74.4453 48.3655 74.7365 48.3193C74.9224 48.1345 75.0172 48.0491 75.203 47.8643C75.2757 47.747 75.3161 47.6911 75.3906 47.5808C75.5045 47.3318 75.5624 47.2108 75.6781 46.9688C75.699 46.7593 75.7052 46.6518 75.7261 46.4423C75.7176 46.3311 75.7175 46.2783 75.7174 46.1725C75.6563 46.0449 75.6267 45.9847 75.5657 45.8571C75.5527 45.8076 75.5471 45.7864 75.5341 45.7369C75.5026 45.6167 75.4692 45.4894 75.4653 45.3695C75.4597 45.3483 75.4579 45.3412 75.4523 45.32C75.3709 45.1146 75.3237 45.0136 75.2441 44.8154C75.183 44.6878 75.1534 44.6275 75.0859 44.5016C74.8561 44.3352 74.7399 44.2599 74.5101 44.0935C74.0912 43.8633 73.8827 43.7517 73.4574 43.5232C73.3467 43.4691 73.2987 43.4439 73.188 43.3898C72.9381 43.3571 72.8174 43.3435 72.574 43.3091C72.4348 43.3305 72.3666 43.3333 72.2275 43.3547C71.7565 43.3724 71.526 43.3875 71.055 43.4053C70.8902 43.4864 70.81 43.5225 70.6516 43.6019C70.5688 43.6538 70.4462 43.686 70.3237 43.7181C70.238 43.7331 70.191 43.7378 70.1053 43.7528C69.9138 43.9164 69.8172 43.9946 69.6238 44.1512C69.566 44.2722 69.5338 44.3335 69.4759 44.4545C69.2993 44.6747 69.2101 44.7812 69.0335 45.0014C69.0311 45.2287 69.0267 45.3433 69.0243 45.5706C69.0798 45.677 69.1075 45.7302 69.163 45.8365L69.2133 46.1332C69.2706 46.2466 69.3002 46.3069 69.3575 46.4203C69.3945 46.5089 69.4121 46.5496 69.4491 46.6381C69.5915 46.8653 69.6636 46.9824 69.8059 47.2096C69.8595 47.3089 69.8854 47.355 69.9372 47.4473L69.9215 47.4665ZM73.6689 59.3314C73.6862 59.2135 73.6971 59.1501 73.7145 59.0322C73.8405 58.8556 73.8993 58.7646 74.0253 58.5879C74.1052 58.446 74.1485 58.3742 74.2266 58.2252C74.3305 58.0695 74.3783 57.9889 74.4822 57.8332C74.5033 57.7823 74.5446 57.7034 74.5998 57.6511C74.633 57.6198 74.6486 57.6006 74.6753 57.5709C74.7773 57.3552 74.8259 57.2517 74.9214 57.0377C74.9591 56.9447 74.9821 56.9009 75.0197 56.8079C75.1181 56.6838 75.1632 56.6191 75.2616 56.495C75.3168 56.4427 75.3582 56.3639 75.4069 56.3133C75.5017 56.2279 75.5524 56.1844 75.6472 56.0991C75.7381 55.8939 75.7803 55.7921 75.8648 55.5885C75.8785 55.5094 75.9347 55.4871 75.9558 55.4362C76.0993 55.2474 76.1775 55.1513 76.3209 54.9625C76.4212 54.8455 76.4681 54.7878 76.5684 54.6708C76.6759 54.4763 76.7265 54.3799 76.8257 54.1801C76.9131 54.0665 76.96 54.0088 77.0455 53.8881C77.1328 53.7216 77.1742 53.6427 77.2615 53.4762C77.3028 53.3974 77.3847 53.3154 77.4335 53.2648C77.4427 53.2473 77.4454 53.2315 77.4546 53.2139C77.5999 53.0322 77.6735 52.9449 77.8272 52.7685C77.8796 52.6792 77.9071 52.6266 77.9595 52.5373C78.0716 52.3341 78.1332 52.2272 78.2435 52.0169C78.3161 51.8996 78.3566 51.8436 78.4311 51.7334C78.4944 51.5807 78.5229 51.5052 78.5862 51.3526C78.622 51.2525 78.6772 51.2002 78.7186 51.1214C78.7636 51.0566 78.7903 51.027 78.8418 50.9605C78.9052 50.8079 78.9336 50.7324 78.997 50.5797C79.0327 50.4796 79.0935 50.4486 79.1349 50.3697C79.1799 50.305 79.2066 50.2753 79.2581 50.2089C79.3702 50.0056 79.4254 49.9005 79.5421 49.6885C79.5649 49.5389 79.6615 49.4078 79.7783 49.2486C79.8546 49.1455 79.8951 49.0895 79.9714 48.9863C80.0662 48.901 80.1104 48.8592 80.2052 48.7738C80.3468 48.578 80.4167 48.4765 80.5565 48.2736C80.618 48.1667 80.6539 48.1195 80.7155 48.0127C80.8405 47.806 80.9021 47.6992 81.0271 47.4925C81.0648 47.3995 81.0877 47.3557 81.1254 47.2627C81.2522 47.0631 81.3157 46.9634 81.4425 46.7638C81.5152 46.6465 81.5492 46.5922 81.6218 46.4749C81.7432 46.307 81.8039 46.2231 81.9318 46.0535C81.9915 45.9396 82.0172 45.8799 82.0769 45.766C82.1614 45.5625 82.2036 45.4607 82.2945 45.2555C82.3322 45.1624 82.3551 45.1186 82.3928 45.0256C82.4139 44.9747 82.4627 44.9241 82.504 44.8453C82.6024 44.7212 82.6475 44.6565 82.7441 44.5253C82.7798 44.4252 82.801 44.3744 82.8349 44.2672C82.9784 44.0784 83.0501 43.984 83.1936 43.7952C83.2718 43.6991 83.3077 43.6519 83.3859 43.5558C83.5017 43.3667 83.5605 43.2757 83.6764 43.0866C83.7269 42.9902 83.7563 42.9447 83.8087 42.8554C83.8831 42.6922 83.9161 42.608 83.9841 42.4466C84.0199 42.3465 84.1009 42.2875 84.1561 42.2352C84.1901 42.1809 84.2104 42.1529 84.2527 42.104C84.3777 41.8974 84.4393 41.7905 84.5643 41.5839C84.5974 41.5525 84.6066 41.535 84.6398 41.5037C84.7078 41.3951 84.7566 41.3445 84.8661 41.2629C84.8772 41.2524 84.8817 41.2437 84.8928 41.2332C85.1377 41.0631 85.5412 40.9195 85.8878 40.9268C86.0473 40.9303 86.1911 40.953 86.3644 40.9831C86.4069 40.9871 86.4281 40.9891 86.4659 41.0018C86.6394 41.1377 86.7633 41.347 86.7202 41.5246C86.7065 41.6038 86.6919 41.653 86.6708 41.7039C86.6 41.8282 86.5678 41.8896 86.4971 42.014C86.4613 42.114 86.4199 42.1929 86.3389 42.252C86.3058 42.2833 86.2966 42.3008 86.2634 42.3322C86.0997 42.549 86.0234 42.6522 85.8578 42.8619C85.822 42.962 85.8009 43.0128 85.767 43.12C85.6622 43.2986 85.6098 43.388 85.505 43.5666C85.4379 43.6523 85.4002 43.6924 85.333 43.778C85.2043 43.9705 85.139 44.0632 85.0084 44.2486C84.8971 44.3761 84.8456 44.4425 84.7407 44.5683C84.6249 44.7574 84.566 44.8484 84.4502 45.0375C84.4521 45.0446 84.4539 45.0516 84.4558 45.0587C84.4404 45.2366 84.4046 45.3367 84.308 45.4678C84.2317 45.571 84.1977 45.6252 84.1213 45.7284C84.0616 45.8423 84.0359 45.902 83.9762 46.0159C83.8566 46.1909 83.7978 46.2819 83.6737 46.4656C83.6343 46.6044 83.6187 46.6765 83.5812 46.8224C83.4524 47.0149 83.3871 47.1076 83.2566 47.293C83.2097 47.4036 83.184 47.4632 83.1372 47.5738C83.0885 47.6772 83.0609 47.7298 83.0123 47.8333C82.9351 48.0122 82.7592 48.1037 82.5953 48.2147C82.5732 48.2356 82.5622 48.2461 82.5466 48.2653C82.4307 48.4544 82.3719 48.5454 82.2496 48.7362C82.2065 48.8609 82.1872 48.9189 82.1441 49.0435C82.0412 49.2293 81.9842 49.3274 81.8813 49.5131C81.8307 49.6095 81.8013 49.655 81.7489 49.7443C81.6165 49.9227 81.5512 50.0154 81.4123 50.1954C81.3747 50.2884 81.3517 50.3322 81.314 50.4252C81.1595 50.6245 81.0832 50.7277 80.9287 50.9269C80.8523 51.0301 80.8183 51.0844 80.742 51.1875C80.6261 51.3766 80.5608 51.4693 80.445 51.6584C80.4092 51.7585 80.3881 51.8094 80.3542 51.9165C80.1997 52.1158 80.1233 52.219 79.9688 52.4182C79.8999 52.5497 79.8696 52.6181 79.8025 52.7566C79.6739 53.002 79.6096 53.1247 79.4828 53.3771C79.3301 53.5834 79.2556 53.6937 79.1029 53.9C79.1022 54.0287 79.0996 54.0974 79.0989 54.226C78.9849 54.4222 78.9215 54.522 78.8075 54.7182C78.7422 54.8109 78.7063 54.8581 78.641 54.9508C78.5142 55.1503 78.4507 55.2501 78.3155 55.4443C78.2282 55.5579 78.1812 55.6156 78.0957 55.7363C77.9937 55.8991 77.9477 55.9867 77.8457 56.1495C77.7969 56.2001 77.7436 56.2595 77.7003 56.3313C77.6709 56.3768 77.6617 56.3943 77.6305 56.4327C77.5486 56.5676 77.5119 56.6377 77.4301 56.7725C77.3887 56.8514 77.2451 56.9344 77.1632 57.0164C77.119 57.0582 77.1034 57.0774 77.0592 57.1192C76.888 57.3077 76.8034 57.4055 76.6258 57.5957C76.6066 57.7065 76.5938 57.7628 76.5747 57.8736C76.422 58.08 76.3456 58.1831 76.1884 58.3982C76.136 58.4876 76.1084 58.5401 76.056 58.6295C75.9171 58.8095 75.85 58.8951 75.7176 59.0735C75.6681 59.2527 75.449 59.416 75.122 59.5623C74.9727 59.6241 74.7479 59.6604 74.4493 59.6783C74.3212 59.6893 74.253 59.6921 74.1165 59.6976C73.9258 59.7325 73.7543 59.7095 73.6694 59.6487C73.6011 59.5986 73.5769 59.4538 73.6753 59.3297L73.6689 59.3314ZM82.45 53.9665C82.4443 53.8395 82.4468 53.7179 82.4826 53.6179C82.5404 53.444 82.567 53.3614 82.6248 53.1876C82.6439 53.0767 82.6568 53.0204 82.6759 52.9096C82.7448 52.7782 82.7752 52.7097 82.8422 52.5712C82.878 52.4711 82.959 52.4121 83.0068 52.3315C83.0362 52.286 83.0454 52.2685 83.0767 52.2301C83.1107 52.1758 83.1309 52.1478 83.1733 52.0989C83.2146 52.0201 83.2901 51.9398 83.372 51.8578C83.418 51.8231 83.4355 51.8109 83.4815 51.7762C83.5782 51.6979 83.6307 51.6615 83.7273 51.5832C83.7963 51.5047 83.8359 51.4716 83.9049 51.393C84.0356 51.2605 84.2262 51.1198 84.403 51.0583C84.7015 50.9346 84.8507 50.8728 85.1427 50.7508C85.2873 50.6978 85.3564 50.6721 85.5011 50.619C85.6642 50.5838 85.7434 50.5705 85.9065 50.5353C86.0954 50.4933 86.3119 50.4516 86.5138 50.4591C86.5562 50.4631 86.5774 50.4651 86.6217 50.4761C86.7922 50.4692 86.8816 50.4684 87.0521 50.4614C87.2355 50.3982 87.4373 50.4057 87.6991 50.4051C87.7249 50.3983 87.7378 50.3949 87.7673 50.4023C88.0301 50.4316 88.1573 50.4436 88.4201 50.4729C88.5658 50.5027 88.6312 50.5157 88.7751 50.5384C89.0508 50.6172 89.19 50.6487 89.4658 50.7275C89.5082 50.7315 89.5294 50.7335 89.5737 50.7446C89.7489 50.7817 89.9628 50.8087 90.1168 50.8968C90.3198 50.9871 90.4157 51.0376 90.6187 51.1279C90.8676 51.1835 91.0604 51.2614 91.3207 51.4652C91.4037 51.519 91.4453 51.5459 91.5265 51.5926C91.7959 51.7788 91.9307 51.872 92.1983 52.0512C92.2333 52.0797 92.25 52.0905 92.285 52.1191C92.4585 52.2549 92.5905 52.3639 92.7097 52.5291C92.8086 52.6695 92.8548 52.7405 92.9537 52.8808C93.0119 52.9713 93.0396 53.0245 93.0914 53.1168C93.2015 53.3524 93.2607 53.4729 93.3726 53.7156C93.4244 53.8078 93.4586 53.8593 93.5103 53.9515C93.5845 54.1815 93.616 54.3017 93.6901 54.5317C93.7161 54.6307 93.7622 54.6488 93.7541 54.7492C93.7645 54.9203 93.772 55.0014 93.7824 55.1725C93.8408 55.3688 93.8301 55.5379 93.7806 55.7172C93.7659 55.7664 93.765 55.7893 93.7522 55.8455C93.745 55.923 93.6557 55.9767 93.6087 56.0343C93.5434 56.127 93.5159 56.1796 93.4506 56.2723C93.4001 56.3687 93.3706 56.4142 93.3201 56.5106C93.3045 56.5827 93.2926 56.6161 93.2771 56.6882C93.2487 56.8166 93.1788 56.918 93.1052 57.0054C93.0712 57.0596 93.051 57.0876 93.0087 57.1365C92.9323 57.2397 92.8983 57.2939 92.8238 57.4042C92.7558 57.5127 92.6462 57.5944 92.5367 57.676C92.5017 57.7003 92.4842 57.7125 92.4557 57.7351C92.2439 57.8738 92.1371 57.9396 91.9253 58.0783C91.7079 58.1958 91.5993 58.2545 91.3755 58.3737C91.2945 58.4327 91.1719 58.4649 91.077 58.4973C90.984 58.5369 90.9343 58.5575 90.8394 58.5899C90.7426 58.6153 90.691 58.6289 90.5878 58.6559C90.3502 58.7485 90.0875 58.7721 89.7852 58.7758C89.7317 58.7823 89.7041 58.782 89.6571 58.7868C89.5345 58.8189 89.306 58.8411 89.1658 58.8325C89.0552 58.8313 89.0064 58.829 88.8957 58.8278C88.751 58.828 88.6764 58.8325 88.5252 58.8344C88.2514 58.8155 88.1113 58.8069 87.8393 58.7951C87.8006 58.8053 87.7794 58.8033 87.7389 58.8064C87.5969 58.7907 87.4291 58.7818 87.2816 58.745C87.1506 58.7189 87.0833 58.6987 86.9588 58.6709C86.8113 58.6341 86.6361 58.5969 86.5152 58.5304C86.4673 58.5052 86.4423 58.489 86.3944 58.4638C86.2155 58.4125 86.1251 58.3833 85.9508 58.3233C85.7958 58.2581 85.6427 58.2 85.5162 58.1123C85.4867 58.1049 85.472 58.1012 85.4425 58.0939C85.2709 58.018 85.1851 57.98 85.0135 57.9041C84.8189 57.8191 84.6307 57.7325 84.4849 57.5969C84.4793 57.5757 84.4774 57.5686 84.4719 57.5474C84.2504 57.3864 84.1387 57.3023 83.9172 57.1412C83.7908 57.0535 83.6569 56.9374 83.5904 56.8415C83.4546 56.6655 83.3899 56.5767 83.2606 56.399C83.22 56.3492 83.2015 56.3314 83.1608 56.2816C83.1008 56.184 83.0231 56.0457 82.9971 55.9467C82.9277 55.7608 82.8971 55.6706 82.8277 55.4848C82.7612 55.3889 82.7288 55.3444 82.6559 55.2502C82.6373 55.1795 82.628 55.1441 82.6113 55.0805C82.5928 55.0098 82.5594 54.8825 82.5685 54.8121C82.5693 54.7363 82.571 54.6905 82.5783 54.613C82.5226 54.4009 82.5012 54.2932 82.452 54.0793C82.452 54.0265 82.4528 54.0036 82.4463 53.9524L82.45 53.9665ZM85.6485 56.173C85.8276 56.3301 85.9162 56.4051 86.1018 56.5605C86.1831 56.6601 86.2255 56.717 86.3133 56.8149C86.5909 56.9007 86.7338 56.9464 87.0179 57.0305C87.2023 57.1031 87.2946 57.1393 87.4726 57.2135C87.8238 57.2121 87.9962 57.2122 88.3492 57.2178C88.4893 57.2264 88.553 57.2324 88.6931 57.241C88.8617 57.2269 88.9493 57.2191 89.118 57.2051C89.2811 57.1698 89.3668 57.1549 89.5299 57.1197C89.8598 57.0633 90.0247 57.0352 90.3592 56.9701C90.4577 56.8989 90.512 56.8695 90.6106 56.7983C90.7928 56.6522 90.8849 56.5827 91.0736 56.435C91.1223 56.3315 91.1499 56.2789 91.1985 56.1755C91.3033 55.9968 91.3557 55.9075 91.467 55.7272C91.4916 55.5846 91.5007 55.5142 91.5254 55.3717C91.4928 55.1687 91.4714 55.0609 91.4388 54.8579C91.4395 54.7292 91.4421 54.6605 91.4428 54.5318C91.3653 54.4463 91.3283 54.4107 91.2443 54.3269C91.2229 54.2192 91.2164 54.168 91.195 54.0602C91.1441 53.9451 91.1228 53.8902 91.072 53.7751C90.9841 53.5714 90.9387 53.4775 90.8508 53.2738C90.7704 53.1513 90.7344 53.0928 90.6604 52.9686C90.4629 52.7937 90.366 52.7133 90.162 52.5401C90.0789 52.4863 90.0374 52.4594 89.9543 52.4056C89.6564 52.2949 89.5033 52.2368 89.2054 52.126C89.0375 52.0642 88.9582 52.0246 88.7903 51.9628C88.4575 51.9292 88.2962 51.9187 87.9634 51.8851C87.8371 51.9031 87.7708 51.9129 87.6464 51.938C87.4685 51.9696 87.3847 51.9916 87.2068 52.0231C87.052 52.0637 86.8557 52.0774 86.6879 52.0686C86.6308 52.0609 86.6031 52.0606 86.546 52.0529C86.3083 52.1455 86.1876 52.1847 85.9435 52.279C85.8542 52.3327 85.8081 52.3674 85.7188 52.4211C85.5348 52.613 85.4437 52.7124 85.2597 52.9043C85.1181 53.1531 85.0473 53.2775 84.9141 53.5316C84.8709 53.6034 84.8461 53.6401 84.8029 53.7119C84.8125 53.9588 84.8118 54.0875 84.8214 54.3344C84.8769 54.4407 84.9111 54.4922 84.9666 54.5986C84.9898 54.7134 84.9982 54.7717 85.0233 54.8936C85.0511 54.9996 85.066 55.0562 85.1002 55.1606C85.1262 55.2596 85.1392 55.3091 85.1716 55.4064C85.2799 55.6349 85.3372 55.7484 85.4454 55.9769C85.5359 56.059 85.5811 56.1 85.6716 56.1821L85.6485 56.173Z" fill="white"/>
<path d="M25.0892 70.3394C23.3363 69.9907 21.842 68.8409 21.5504 67.5193C21.165 65.7612 20.9736 64.8743 20.5946 63.1145C20.3726 62.0844 20.9103 61.1649 21.9899 60.7078C25.4192 59.2488 27.0911 56.3463 26.4046 53.1783C25.7182 50.0103 22.8023 47.0419 18.8083 45.3766C17.5538 44.8518 16.6461 43.8882 16.4453 42.8602C16.1004 41.099 15.9321 40.2211 15.5936 38.4583C15.4486 37.6952 15.7009 37.0017 16.3038 36.4883C16.9067 35.9749 17.7894 35.7131 18.7822 35.7398C53.5214 36.5104 87.7857 34.3675 121.957 29.2181C123.917 28.9081 125.938 29.8591 126.476 31.358C127.075 33.0373 127.379 33.8797 127.986 35.5644C128.338 36.5377 127.982 37.5456 127.057 38.1965C124.111 40.2619 122.921 43.4005 124.009 46.4178C125.097 49.435 128.322 51.8992 132.434 52.7778C133.726 53.051 134.762 53.822 135.129 54.799C135.78 56.4948 136.107 57.3462 136.759 59.042C137.336 60.5307 136.139 62.0388 134.087 62.3883C98.3408 68.185 62.4734 70.8393 26.0784 70.4577C25.7466 70.4541 25.4119 70.4134 25.0846 70.3482L25.0892 70.3394ZM122.896 30.4834C122.737 30.4799 122.573 30.4852 122.408 30.5133C88.1732 35.6867 53.8444 37.8465 19.0407 37.0929C17.9566 37.0599 17.2018 37.7038 17.3636 38.5305C17.7085 40.2917 17.8768 41.1695 18.2281 42.929C18.335 43.4678 18.7986 43.9734 19.4461 44.2343C24.0498 46.1477 27.4126 49.5582 28.2123 53.2104C29.012 56.8626 27.0948 60.2224 23.1395 61.9102C22.5877 62.1456 22.3138 62.6256 22.429 63.1698C22.808 64.9295 23.004 65.8077 23.3913 67.5729C23.4823 67.9722 23.776 68.3562 24.2245 68.6466C24.673 68.9371 25.2263 69.1017 25.7729 69.1095C62.1034 69.5079 97.9081 66.8776 133.598 61.1033C134.673 60.9194 135.308 60.1331 135.004 59.3436C134.353 57.6479 134.026 56.7964 133.381 55.099C133.185 54.591 132.652 54.1868 131.993 54.0421C127.246 53.0279 123.521 50.181 122.275 46.6914C121.028 43.2018 122.417 39.5877 125.815 37.2222C126.288 36.8943 126.466 36.3639 126.283 35.8525C125.682 34.1661 125.38 33.3308 124.786 31.6427C124.651 31.2623 124.33 30.9309 123.881 30.7163C123.574 30.5701 123.236 30.4924 122.896 30.4834Z" fill="white"/>
</g>
<defs>
<linearGradient id="paint0_linear_2055_2352" x1="187.029" y1="24.7183" x2="-0.541185" y2="135.574" gradientUnits="userSpaceOnUse">
<stop stop-color="white"/>
<stop offset="1" stop-color="#B4B4B4"/>
</linearGradient>
<linearGradient id="paint1_linear_2055_2352" x1="135.5" y1="19.4106" x2="-46.5" y2="96.4106" gradientUnits="userSpaceOnUse">
<stop offset="0.0269208" stop-color="#25C869"/>
<stop offset="1" stop-color="#25C869"/>
</linearGradient>
<clipPath id="clip0_2055_2352">
<rect width="160" height="13.5358" fill="white" transform="translate(0 65.4256)"/>
</clipPath>
<clipPath id="clip1_2055_2352">
<rect width="128.411" height="65.6536" fill="white" transform="translate(5 33) rotate(-14.7019)"/>
</clipPath>
</defs>
</svg>
