<svg width="160" height="97" viewBox="0 0 160 97" fill="none" xmlns="http://www.w3.org/2000/svg">
<g clip-path="url(#clip0_2026_2615)">
<path d="M80.0002 78.0337C123.905 78.0337 159.497 74.7816 159.497 70.77C159.497 66.7584 123.905 63.5063 80.0002 63.5063C36.0953 63.5063 0.503418 66.7584 0.503418 70.77C0.503418 74.7816 36.0953 78.0337 80.0002 78.0337Z" fill="url(#paint0_linear_2026_2615)" stroke="#4C4C4C" stroke-width="1.67" stroke-miterlimit="10"/>
<g opacity="0.32">
<path d="M138.646 70.7338C138.646 71.3668 134.924 71.9515 128.551 72.4397V72.3614C88.5 66.2189 29.2048 72.2288 29.2048 72.2288V72.2529C24.215 71.8068 21.3594 71.2824 21.3594 70.7338C21.3594 69.052 47.9695 65.9838 80.3575 65.9838C112.746 65.9838 138.646 69.052 138.646 70.7338Z" fill="#4C4C4C"/>
<path d="M29.2048 72.2529C24.215 71.8068 21.3594 71.2824 21.3594 70.7338C21.3594 69.052 47.9695 65.9838 80.3575 65.9838C112.746 65.9838 138.646 69.052 138.646 70.7338C138.646 71.3668 134.924 71.9515 128.551 72.4397C118.002 73.2475 100.195 73.7779 80.0058 73.7779C58.3006 73.7779 39.348 73.1631 29.2048 72.2529Z" stroke="#4C4C4C" stroke-width="0.98" stroke-miterlimit="10"/>
<path d="M29.2046 72.2287C29.2046 72.2287 88.4998 66.2189 128.545 72.3614" stroke="#4C4C4C" stroke-width="0.98" stroke-miterlimit="10"/>
</g>
</g>
<g clip-path="url(#clip1_2026_2615)">
<path d="M130.383 31.6757L130.318 31.6926C130.318 31.6926 130.364 31.6808 130.383 31.6757C131.571 31.5001 132.788 32.0651 133.121 32.9677C133.454 33.8703 132.775 34.7741 131.602 35.0064C132.796 34.829 134.019 35.3923 134.359 36.2932C134.704 37.2154 133.988 38.1365 132.769 38.3505C132.544 38.3869 132.32 38.4003 132.097 38.3908C128.16 39.3631 125.892 42.4371 127.028 45.5553C128.159 48.6594 132.303 50.6859 136.491 50.2522C136.693 50.1539 136.923 50.0859 137.172 50.0358C138.417 49.8149 139.706 50.3684 140.065 51.2871C140.417 52.1846 139.727 53.099 138.523 53.3467C139.748 53.1539 141.01 53.707 141.362 54.6045C141.715 55.5021 141.024 56.4164 139.815 56.6658C139.795 56.6709 139.75 56.6827 139.75 56.6827C139.75 56.6827 139.795 56.6709 139.821 56.6641C141.052 56.4696 142.319 57.014 142.68 57.9169C143.039 58.8127 142.342 59.7287 141.125 59.9799C141.106 59.9849 141.054 59.9985 141.054 59.9985C141.054 59.9985 141.099 59.9866 141.125 59.9799C142.363 59.7836 143.636 60.3263 143.997 61.2292C144.362 62.1463 143.634 63.0778 142.371 63.3108C142.168 63.3491 141.972 63.3628 141.772 63.3624C101.446 70.4364 60.8565 73.4604 19.6905 72.5773C19.5062 72.6105 19.3016 72.6189 19.0933 72.6131C17.7585 72.5703 16.509 71.7493 16.2954 70.7775C16.0901 69.8111 16.9959 69.0595 18.3307 69.1023C18.3795 69.1046 18.4284 69.1069 18.4772 69.1092C18.4284 69.1069 18.3814 69.1117 18.3325 69.1094C17.0042 69.0649 15.7612 68.2423 15.5559 67.2759C15.3505 66.3094 16.2563 65.5578 17.5847 65.6023C17.6335 65.6046 17.6824 65.6069 17.7248 65.6109C17.6759 65.6086 17.6289 65.6134 17.5801 65.6111C16.2582 65.5649 15.0216 64.7406 14.8163 63.7742C14.6175 62.8061 15.5186 62.0632 16.8387 62.1023C16.8875 62.1046 16.9364 62.1069 16.9788 62.1109C16.9299 62.1086 16.8829 62.1134 16.8405 62.1094C15.5251 62.0615 14.295 61.2355 14.0961 60.2674C13.8973 59.2993 14.8049 58.5548 16.112 58.5973C16.3904 58.6073 16.6717 58.6545 16.9326 58.7296C21.2565 58.6305 24.1013 55.9946 23.4046 52.7085C22.7022 49.4011 18.7321 46.6185 14.3503 46.234C14.1356 46.2828 13.8987 46.2996 13.648 46.2898C12.3602 46.2423 11.1624 45.4078 10.9764 44.4363C10.7904 43.4648 11.687 42.7307 12.9684 42.78C13.0172 42.7823 13.0596 42.7863 13.1085 42.7886C13.0596 42.7863 13.0191 42.7893 12.9702 42.787C11.6889 42.7378 10.4975 41.9016 10.3198 40.9355C10.1422 39.9694 11.0304 39.2299 12.3118 39.2792C12.3607 39.2815 12.4031 39.2855 12.4519 39.2878C12.4031 39.2855 12.3625 39.2886 12.3136 39.2863C11.0388 39.2353 9.8538 38.3975 9.67614 37.4313C9.49848 36.4652 10.3868 35.7258 11.6617 35.7767C11.7105 35.779 11.7529 35.783 11.8018 35.7853C11.7529 35.783 11.7124 35.7861 11.6635 35.7838C10.3951 35.7312 9.21843 34.8987 9.04536 33.9238C8.8723 32.9489 9.75599 32.2182 11.0244 32.2709C11.2623 32.284 11.4909 32.3147 11.7141 32.3771C50.6834 33.7157 89.0566 31.3637 127.316 25.1873C127.502 25.1083 127.704 25.04 127.929 25.0036C129.129 24.7946 130.371 25.3758 130.701 26.2942C131.028 27.1985 130.355 28.1007 129.188 28.3312C129.169 28.3363 129.124 28.3481 129.124 28.3481C129.124 28.3481 129.169 28.3363 129.19 28.3383C130.378 28.1626 131.582 28.731 131.915 29.6336C132.242 30.5379 131.569 31.4401 130.396 31.6723L130.383 31.6757Z" fill="url(#paint1_linear_2026_2615)"/>
<path d="M130.383 31.6757L130.318 31.6926C130.318 31.6926 130.364 31.6808 130.383 31.6757ZM130.383 31.6757C131.571 31.5001 132.788 32.0651 133.121 32.9677C133.454 33.8703 132.775 34.7741 131.602 35.0064M130.383 31.6757L130.396 31.6723C131.569 31.4401 132.242 30.5379 131.915 29.6336C131.582 28.731 130.378 28.1626 129.19 28.3383C129.169 28.3363 129.124 28.3481 129.124 28.3481C129.124 28.3481 129.169 28.3363 129.188 28.3312C130.355 28.1007 131.028 27.1985 130.701 26.2942C130.371 25.3758 129.129 24.7946 127.929 25.0036C127.704 25.04 127.502 25.1083 127.316 25.1873C89.0566 31.3637 50.6834 33.7157 11.7141 32.3771C11.4909 32.3147 11.2623 32.284 11.0244 32.2709C9.75599 32.2182 8.8723 32.9489 9.04536 33.9238C9.21843 34.8987 10.3951 35.7312 11.6635 35.7838C11.7124 35.7861 11.7529 35.783 11.8018 35.7853C11.7529 35.783 11.7105 35.779 11.6617 35.7767C10.3868 35.7258 9.49848 36.4652 9.67614 37.4313C9.8538 38.3975 11.0388 39.2353 12.3136 39.2863C12.3625 39.2886 12.4031 39.2855 12.4519 39.2878C12.4031 39.2855 12.3607 39.2815 12.3118 39.2792C11.0304 39.2299 10.1422 39.9694 10.3198 40.9355C10.4975 41.9016 11.6889 42.7378 12.9702 42.787C13.0191 42.7893 13.0596 42.7863 13.1085 42.7886C13.0596 42.7863 13.0172 42.7823 12.9684 42.78C11.687 42.7307 10.7904 43.4648 10.9764 44.4363C11.1624 45.4078 12.3602 46.2423 13.648 46.2898C13.8987 46.2996 14.1356 46.2828 14.3503 46.234C18.7321 46.6185 22.7022 49.4011 23.4046 52.7085C24.1013 55.9946 21.2565 58.6305 16.9326 58.7296C16.6717 58.6545 16.3904 58.6073 16.112 58.5973C14.8049 58.5548 13.8973 59.2993 14.0961 60.2674C14.295 61.2355 15.5251 62.0615 16.8405 62.1094C16.8829 62.1134 16.9299 62.1086 16.9788 62.1109C16.9364 62.1069 16.8875 62.1046 16.8387 62.1023C15.5186 62.0632 14.6175 62.8061 14.8163 63.7742C15.0216 64.7406 16.2582 65.5649 17.5801 65.6111C17.6289 65.6134 17.6759 65.6086 17.7248 65.6109C17.6824 65.6069 17.6335 65.6046 17.5847 65.6023C16.2563 65.5578 15.3505 66.3094 15.5559 67.2759C15.7612 68.2423 17.0042 69.0649 18.3325 69.1094C18.3814 69.1117 18.4284 69.1069 18.4772 69.1092C18.4284 69.1069 18.3795 69.1046 18.3307 69.1023C16.9959 69.0595 16.0901 69.8111 16.2954 70.7775C16.509 71.7493 17.7585 72.5703 19.0933 72.6131C19.3016 72.6189 19.5062 72.6105 19.6905 72.5773C60.8565 73.4604 101.446 70.4364 141.772 63.3624C141.972 63.3628 142.168 63.3491 142.371 63.3108C143.634 63.0778 144.362 62.1463 143.997 61.2292C143.636 60.3263 142.363 59.7836 141.125 59.9799M131.602 35.0064C131.582 35.0114 131.537 35.0233 131.537 35.0233M131.602 35.0064C132.796 34.829 134.019 35.3923 134.359 36.2932C134.704 37.2154 133.988 38.1365 132.769 38.3505C132.544 38.3869 132.32 38.4003 132.097 38.3908C128.16 39.3631 125.892 42.4371 127.028 45.5553C128.159 48.6594 132.303 50.6859 136.491 50.2522C136.693 50.1539 136.923 50.0859 137.172 50.0358C138.417 49.8149 139.706 50.3684 140.065 51.2871C140.417 52.1846 139.727 53.099 138.523 53.3467M138.523 53.3467C138.504 53.3518 138.459 53.3636 138.459 53.3636M138.523 53.3467C139.748 53.1539 141.01 53.707 141.362 54.6045C141.715 55.5021 141.024 56.4164 139.815 56.6658C139.795 56.6709 139.75 56.6827 139.75 56.6827C139.75 56.6827 139.795 56.6709 139.821 56.6641C141.052 56.4696 142.319 57.014 142.68 57.9169C143.039 58.8127 142.342 59.7287 141.125 59.9799M141.125 59.9799C141.106 59.9849 141.054 59.9985 141.054 59.9985C141.054 59.9985 141.099 59.9866 141.125 59.9799Z" stroke="white" stroke-miterlimit="10"/>
<path d="M143.24 59.6064C143.667 59.0787 143.805 58.4227 143.545 57.773C143.283 57.1162 142.679 56.6019 141.929 56.2923C142.356 55.7647 142.488 55.1104 142.234 54.459C141.972 53.8021 141.375 53.2862 140.625 52.9766C141.052 52.4489 141.184 51.7947 140.93 51.1432C140.432 49.8757 138.644 49.1053 136.926 49.4126C136.656 49.4608 136.399 49.5356 136.155 49.6298C132.429 49.9576 128.879 48.1456 127.884 45.429C126.881 42.6841 128.773 39.9885 132.26 39.0659C132.509 39.0687 132.759 39.0485 132.994 39.0017C133.811 38.8555 134.491 38.4804 134.908 37.9403C135.325 37.4002 135.421 36.7702 135.196 36.149C134.947 35.4889 134.37 34.9678 133.644 34.6444C134.066 34.1255 134.197 33.4712 133.957 32.8164C133.714 32.1545 133.136 31.6335 132.419 31.3154C132.841 30.7965 132.972 30.1423 132.732 29.4874C132.489 28.8256 131.918 28.3029 131.2 27.9848C131.616 27.4676 131.754 26.8116 131.513 26.1568C131.29 25.5427 130.765 25.0152 130.044 24.683C129.321 24.3437 128.48 24.2394 127.681 24.3734C127.424 24.4182 127.179 24.4825 126.954 24.5717C88.8029 30.7123 50.5495 33.0479 11.6927 31.7176C11.4308 31.6654 11.1496 31.6183 10.8841 31.6048C10.0406 31.5692 9.2897 31.7813 8.76869 32.2128C8.25413 32.6425 8.03113 33.2376 8.14465 33.8805C8.26003 34.5304 8.69983 35.1557 9.38551 35.6408C9.40397 35.6587 9.42703 35.6677 9.4455 35.6856C9.42801 35.6977 9.41696 35.7082 9.39947 35.7203C8.87846 36.1518 8.66191 36.7452 8.77728 37.3951C8.89266 38.045 9.33891 38.6686 10.0246 39.1538C10.0431 39.1716 10.0661 39.1807 10.0846 39.1985C10.0671 39.2106 10.056 39.2211 10.0386 39.2332C9.51754 39.6647 9.29454 40.2598 9.41637 40.908C9.54288 41.6004 10.0417 42.2404 10.7366 42.708C10.2035 43.12 9.93539 43.7269 10.0684 44.4176C10.1902 45.0658 10.6429 45.6877 11.3369 46.1782C12.0354 46.66 12.8969 46.9479 13.7615 46.9856C14.0399 46.9957 14.3045 46.9792 14.5551 46.9361C18.4235 47.3344 21.8751 49.8222 22.4873 52.7073C23.0921 55.5641 20.6478 57.9135 16.8771 58.0715C16.5691 58.0012 16.2621 57.9608 15.956 57.9504C15.0785 57.9162 14.3101 58.1405 13.7826 58.5736C13.2552 59.0067 13.0386 59.6002 13.1687 60.2538C13.297 60.9003 13.7645 61.5259 14.4842 62.0097C14.5092 62.0258 14.5258 62.0365 14.5507 62.0527C14.0131 62.4734 13.7449 63.0803 13.8908 63.7676C14.0255 64.4124 14.493 65.038 15.2192 65.5201C15.2441 65.5362 15.2607 65.547 15.2856 65.5631C14.748 65.9838 14.4799 66.5908 14.6257 67.2781C14.7716 67.9653 15.2981 68.6056 16.027 69.0719C16.0095 69.084 15.992 69.0962 15.981 69.1066C15.4471 69.5415 15.2324 70.142 15.3671 70.7868C15.5037 71.4387 15.9822 72.0538 16.7149 72.5342C17.2132 72.857 17.7851 73.0923 18.3761 73.2169C18.6611 73.2782 18.945 73.3095 19.2299 73.3179C19.4723 73.3223 19.711 73.3126 19.9377 73.2833C61.0724 74.152 101.624 71.1152 141.915 64.0426C142.156 64.04 142.391 64.0161 142.62 63.971C143.469 63.8164 144.167 63.4291 144.589 62.8803C145.012 62.3385 145.113 61.6997 144.862 61.0853C144.6 60.4285 143.996 59.9143 143.234 59.6081L143.24 59.6064Z" fill="url(#paint2_linear_2026_2615)" stroke="black" stroke-miterlimit="10"/>
<path d="M55.8954 53.555C55.8954 53.555 55.8705 53.5389 55.8558 53.5352C55.8002 53.3759 55.7733 53.2999 55.7196 53.1477C55.6807 52.9992 55.6962 52.9271 55.6913 52.7772C55.6986 52.6997 55.7022 52.661 55.7076 52.5764C55.8668 52.4213 56.0446 52.3369 56.2574 52.281C56.38 52.2489 56.4823 52.2447 56.6122 52.2408C56.7827 52.2339 56.8703 52.226 57.0408 52.2191C57.1367 52.2166 57.239 52.2124 57.3404 52.2312C57.4086 52.2284 57.4363 52.2287 57.5045 52.2259C57.6473 52.2187 57.722 52.2142 57.8649 52.2069C58.1543 52.2066 58.3055 52.2047 58.593 52.1972C58.6825 52.1965 58.7295 52.1917 58.8253 52.1892C59.1664 52.1753 59.3369 52.1684 59.676 52.1474C59.806 52.1435 59.8742 52.1407 60.0023 52.1298C60.3581 52.1196 60.5369 52.118 60.8946 52.1149C61.0319 52.0864 61.1047 52.0748 61.242 52.0464C61.5683 52.0288 61.7323 52.0235 62.0586 52.0059C62.1848 51.9879 62.2512 51.9781 62.3793 51.9671C62.6945 51.96 62.8522 51.9564 63.1738 51.9476C63.3223 51.9616 63.3988 51.9642 63.5472 51.9781C63.8606 51.9639 64.0164 51.9533 64.3362 51.9374C64.4404 51.9403 64.4957 51.9409 64.6081 51.9492L64.6404 51.9407C64.7104 51.945 64.7778 51.9651 64.8986 52.0317C65.311 52.2107 65.503 52.4172 65.542 52.5657C65.5891 52.6138 65.568 52.6647 65.5809 52.7142C65.5932 52.8924 65.5961 52.9823 65.602 53.1622C65.615 53.2117 65.6335 53.2824 65.6263 53.3598C65.5557 53.59 65.3863 53.7327 65.1855 53.808C65.0086 53.8696 64.8114 53.9062 64.6077 53.8916C64.4224 53.8949 64.3247 53.8903 64.1394 53.8936C63.9375 53.8861 63.8334 53.8832 63.6296 53.8686C63.3144 53.8757 63.1568 53.8793 62.8351 53.8881C62.6867 53.8742 62.6101 53.8716 62.4617 53.8576C62.1594 53.8614 62.0018 53.8649 61.6994 53.8687C61.5382 53.911 61.4543 53.933 61.2894 53.9612C60.9465 53.968 60.7741 53.9679 60.4312 53.9747C60.2958 54.0102 60.2249 54.0289 60.0894 54.0644C59.8544 54.0883 59.7392 54.0958 59.5042 54.1197C59.4083 54.1222 59.2793 54.156 59.1779 54.1373C59.0931 54.1293 59.059 54.1307 58.9742 54.1227C58.9097 54.1396 58.8839 54.1464 58.8175 54.1563C58.6268 54.1912 58.4286 54.1978 58.1852 54.1635C58.1557 54.1561 58.1409 54.1524 58.1114 54.145C57.9299 54.1624 57.8423 54.1703 57.6607 54.1877C57.3603 54.1985 57.2045 54.2092 56.904 54.22C56.6717 54.228 56.4495 54.1427 56.288 54.0264C56.1265 53.9101 55.9796 53.7445 55.901 53.5762L55.8954 53.555Z" fill="white"/>
<path d="M66.9469 44.783C66.9495 44.6614 66.9641 44.6122 67.0045 44.5034C67.055 44.3541 67.0834 44.2786 67.132 44.1223C67.1558 44.0027 67.1603 43.941 67.184 43.8214C67.2841 43.5987 67.331 43.4881 67.4228 43.26C67.4586 43.1599 67.5479 43.1062 67.5892 43.0274C67.6822 42.935 67.7309 42.8844 67.8239 42.792C67.8727 42.7414 67.9546 42.6594 68.0374 42.6075C68.0724 42.5832 68.0899 42.571 68.1203 42.5555C68.2777 42.4462 68.3542 42.3959 68.5052 42.2882C68.5539 42.2376 68.6488 42.2052 68.7373 42.1744C68.8561 42.1281 68.9187 42.1041 69.0376 42.0578C69.2862 41.9019 69.4105 41.824 69.6545 41.6768C69.7255 41.6582 69.7623 41.641 69.8379 41.6136C69.9207 41.5616 70.0092 41.5308 70.1041 41.4984C70.2395 41.4628 70.304 41.4459 70.4394 41.4104C70.5942 41.3698 70.7859 41.3648 70.9482 41.3525C71.0164 41.3497 71.044 41.35 71.1104 41.3402C71.2661 41.3295 71.3408 41.325 71.4966 41.3144C71.5731 41.317 71.6155 41.321 71.7003 41.329C71.762 41.3279 71.8966 41.3153 71.9639 41.3354C72.2497 41.3738 72.3936 41.3965 72.6794 41.4348C72.7854 41.4448 72.8426 41.4525 72.9504 41.4695C73.0519 41.4883 73.1653 41.5265 73.2667 41.5453C73.5296 41.6274 73.6578 41.6694 73.9142 41.7533C74.0553 41.7918 74.1706 41.8372 74.2831 41.8983C74.4704 42.0079 74.5664 42.0583 74.7537 42.1679C74.9132 42.2242 74.9972 42.2551 75.1567 42.3115C75.2739 42.3639 75.3347 42.3857 75.4584 42.4364C75.6391 42.4948 75.8071 42.6094 75.9686 42.7258C76.1726 42.899 76.2778 42.9847 76.4901 43.1633C76.564 43.2346 76.6027 43.2774 76.6766 43.3487C76.7237 43.3968 76.7763 43.4661 76.8234 43.5142C76.9343 43.6741 76.9907 43.7575 77.1016 43.9174C77.1681 44.0133 77.2004 44.0577 77.267 44.1536C77.3503 44.366 77.3993 44.4741 77.4826 44.6865C77.5104 44.7926 77.5253 44.8492 77.5531 44.9552C77.5771 44.9943 77.5892 45.0138 77.6132 45.0528C77.6733 45.1504 77.7168 45.2902 77.7428 45.3892C77.7502 45.4174 77.7539 45.4316 77.7613 45.4599C77.7763 45.5693 77.7893 45.6188 77.8042 45.7283C77.8394 45.8626 77.858 45.9333 77.8997 46.066C77.9442 46.2357 77.95 46.3627 77.9272 46.5122C77.9181 46.5826 77.9209 46.6197 77.9118 46.6901C77.8725 46.8818 77.856 46.9768 77.8167 47.1685C77.7846 47.2827 77.7635 47.3336 77.7315 47.4478C77.7048 47.4775 77.7103 47.4987 77.6957 47.5479C77.6102 47.7215 77.5707 47.8074 77.4872 47.9881C77.4303 48.139 77.294 48.2504 77.1642 48.36C77.1007 48.4069 77.0639 48.4241 76.9939 48.4727C76.9451 48.5233 76.8843 48.5544 76.8033 48.6134C76.7407 48.6374 76.7167 48.6512 76.6541 48.6752C76.435 48.8385 76.3254 48.9202 76.1063 49.0835C76.0336 49.1479 75.994 49.181 75.9213 49.2454C75.808 49.3129 75.7473 49.344 75.634 49.4115C75.4093 49.5535 75.1919 49.6182 75.002 49.6302C74.6445 49.6862 74.4648 49.7107 74.1137 49.765C73.9589 49.8056 73.721 49.7925 73.5514 49.7765C73.4942 49.7688 73.4666 49.7685 73.4159 49.7592C73.3302 49.7741 73.2832 49.7789 73.191 49.7955C73.0629 49.8064 72.8988 49.8117 72.7587 49.8031C72.6103 49.7892 72.5338 49.7866 72.3872 49.7797C72.2176 49.7637 72.0479 49.7478 71.9004 49.7109C71.8081 49.6746 71.7703 49.6619 71.6781 49.6256C71.4006 49.5926 71.2651 49.5753 70.9959 49.5477C70.8603 49.5303 70.7128 49.4935 70.6039 49.4464C70.4296 49.3864 70.3392 49.3572 70.1649 49.2971C70.0561 49.2501 69.9085 49.2132 69.7941 49.145C69.6982 49.0946 69.6548 49.0606 69.5588 49.0102C69.2626 48.8008 69.1113 48.6969 68.815 48.4874C68.6138 48.2984 68.5214 48.2092 68.3202 48.0202C68.2371 47.9664 68.1956 47.9395 68.119 47.884C68.0322 47.8161 67.9381 47.7199 67.8798 47.6293C67.793 47.5085 67.7486 47.4446 67.6618 47.3238C67.6249 47.2881 67.6064 47.2703 67.5676 47.2276C67.5075 47.13 67.4022 46.9913 67.3763 46.8923C67.317 46.719 67.2864 46.6287 67.2271 46.4553C67.2012 46.4092 67.1874 46.3826 67.1615 46.3365C67.0884 46.1894 67.0643 46.0975 67.0594 45.9476C67.0483 45.9052 67.0446 45.891 67.0335 45.8486C67.0149 45.7779 67.0056 45.7426 66.9889 45.6789C66.963 45.5799 66.924 45.4314 66.9257 45.3327C66.9356 45.1866 66.9428 45.1091 66.9592 44.9612C66.9572 44.9012 66.9563 44.8713 66.9479 44.813L66.9469 44.783ZM69.9215 47.0559C70.1247 47.252 70.2188 47.3482 70.422 47.5443C70.5474 47.6021 70.6055 47.6397 70.731 47.6975C71.0234 47.8399 71.1655 47.9085 71.4579 48.0509C71.5916 48.0612 71.6617 48.0655 71.7954 48.0758C72.0812 48.1141 72.2315 48.1352 72.5191 48.1806C72.6934 48.1878 72.7846 48.1941 72.9588 48.2013C73.1017 48.194 73.1764 48.1895 73.3174 48.1752C73.4399 48.1431 73.5026 48.1191 73.6232 48.0798C73.7771 48.0621 73.8564 48.0489 74.0103 48.0312C74.3015 47.985 74.4453 47.9549 74.7365 47.9087C74.9224 47.7239 75.0172 47.6385 75.203 47.4537C75.2757 47.3364 75.3161 47.2804 75.3906 47.1702C75.5045 46.9212 75.5624 46.8002 75.6781 46.5582C75.699 46.3487 75.7052 46.2412 75.7261 46.0317C75.7176 45.9205 75.7175 45.8676 75.7174 45.7619C75.6563 45.6343 75.6267 45.574 75.5657 45.4465C75.5527 45.397 75.5471 45.3758 75.5341 45.3263C75.5026 45.2061 75.4692 45.0788 75.4653 44.9589C75.4597 44.9377 75.4579 44.9306 75.4523 44.9094C75.3709 44.704 75.3237 44.603 75.2441 44.4047C75.183 44.2772 75.1534 44.2169 75.0859 44.091C74.8561 43.9246 74.7399 43.8493 74.5101 43.6829C74.0912 43.4527 73.8827 43.3411 73.4574 43.1126C73.3467 43.0585 73.2987 43.0333 73.188 42.9792C72.9381 42.9465 72.8174 42.9329 72.574 42.8985C72.4348 42.9199 72.3666 42.9227 72.2275 42.944C71.7565 42.9618 71.526 42.9769 71.055 42.9947C70.8902 43.0757 70.81 43.1119 70.6516 43.1912C70.5688 43.2432 70.4462 43.2754 70.3237 43.3075C70.238 43.3225 70.191 43.3272 70.1053 43.3422C69.9138 43.5058 69.8172 43.584 69.6238 43.7405C69.566 43.8615 69.5338 43.9229 69.4759 44.0439C69.2993 44.264 69.2101 44.3706 69.0335 44.5908C69.0311 44.8181 69.0267 44.9326 69.0243 45.16C69.0798 45.2664 69.1075 45.3195 69.163 45.4259L69.2133 45.7226C69.2706 45.836 69.3002 45.8963 69.3575 46.0097C69.3945 46.0983 69.4121 46.139 69.4491 46.2275C69.5915 46.4547 69.6636 46.5718 69.8059 46.799C69.8595 46.8983 69.8854 46.9444 69.9372 47.0366L69.9215 47.0559ZM73.6689 58.9208C73.6862 58.8029 73.6971 58.7395 73.7145 58.6216C73.8405 58.445 73.8993 58.3539 74.0253 58.1773C74.1052 58.0354 74.1485 57.9636 74.2266 57.8146C74.3305 57.6589 74.3783 57.5783 74.4822 57.4226C74.5033 57.3717 74.5446 57.2928 74.5998 57.2405C74.633 57.2092 74.6486 57.1899 74.6753 57.1603C74.7773 56.9446 74.8259 56.8411 74.9214 56.6271C74.9591 56.5341 74.9821 56.4903 75.0197 56.3973C75.1181 56.2732 75.1632 56.2085 75.2616 56.0844C75.3168 56.0321 75.3582 55.9532 75.4069 55.9027C75.5017 55.8173 75.5524 55.7738 75.6472 55.6885C75.7381 55.4832 75.7803 55.3815 75.8648 55.1779C75.8785 55.0987 75.9347 55.0764 75.9558 55.0256C76.0993 54.8368 76.1775 54.7407 76.3209 54.5519C76.4212 54.4349 76.4681 54.3772 76.5684 54.2602C76.6759 54.0657 76.7265 53.9693 76.8257 53.7695C76.9131 53.6558 76.96 53.5982 77.0455 53.4775C77.1328 53.311 77.1742 53.2321 77.2615 53.0656C77.3028 52.9868 77.3847 52.9048 77.4335 52.8542C77.4427 52.8367 77.4454 52.8209 77.4546 52.8033C77.5999 52.6216 77.6735 52.5343 77.8272 52.3579C77.8796 52.2686 77.9071 52.216 77.9595 52.1267C78.0716 51.9234 78.1332 51.8166 78.2435 51.6063C78.3161 51.489 78.3566 51.433 78.4311 51.3228C78.4944 51.1701 78.5229 51.0946 78.5862 50.942C78.622 50.8419 78.6772 50.7896 78.7186 50.7107C78.7636 50.646 78.7903 50.6163 78.8418 50.5499C78.9052 50.3973 78.9336 50.3218 78.997 50.1691C79.0327 50.069 79.0935 50.038 79.1349 49.9591C79.1799 49.8944 79.2066 49.8647 79.2581 49.7983C79.3702 49.595 79.4254 49.4899 79.5421 49.2779C79.5649 49.1283 79.6615 48.9971 79.7783 48.838C79.8546 48.7349 79.8951 48.6789 79.9714 48.5757C80.0662 48.4904 80.1104 48.4486 80.2052 48.3632C80.3468 48.1674 80.4167 48.0659 80.5565 47.8629C80.618 47.7561 80.6539 47.7089 80.7155 47.602C80.8405 47.3954 80.9021 47.2886 81.0271 47.0819C81.0648 46.9889 81.0877 46.9451 81.1254 46.8521C81.2522 46.6525 81.3157 46.5528 81.4425 46.3532C81.5152 46.2359 81.5492 46.1816 81.6218 46.0643C81.7432 45.8964 81.8039 45.8125 81.9318 45.6429C81.9915 45.529 82.0172 45.4693 82.0769 45.3554C82.1614 45.1519 82.2036 45.0501 82.2945 44.8448C82.3322 44.7518 82.3551 44.708 82.3928 44.615C82.4139 44.5641 82.4627 44.5135 82.504 44.4347C82.6024 44.3106 82.6475 44.2459 82.7441 44.1147C82.7798 44.0146 82.801 43.9637 82.8349 43.8566C82.9784 43.6678 83.0501 43.5734 83.1936 43.3846C83.2718 43.2885 83.3077 43.2413 83.3859 43.1452C83.5017 42.9561 83.5605 42.8651 83.6764 42.676C83.7269 42.5796 83.7563 42.5341 83.8087 42.4448C83.8831 42.2816 83.9161 42.1974 83.9841 42.036C84.0199 41.9359 84.1009 41.8768 84.1561 41.8246C84.1901 41.7703 84.2104 41.7423 84.2527 41.6934C84.3777 41.4868 84.4393 41.3799 84.5643 41.1733C84.5974 41.1419 84.6066 41.1244 84.6398 41.093C84.7078 40.9845 84.7566 40.9339 84.8661 40.8523C84.8772 40.8418 84.8817 40.833 84.8928 40.8226C85.1377 40.6525 85.5412 40.5089 85.8878 40.5162C86.0473 40.5197 86.1911 40.5424 86.3644 40.5725C86.4069 40.5765 86.4281 40.5785 86.4659 40.5912C86.6394 40.7271 86.7633 40.9364 86.7202 41.114C86.7065 41.1932 86.6919 41.2424 86.6708 41.2932C86.6 41.4176 86.5678 41.479 86.4971 41.6033C86.4613 41.7034 86.4199 41.7823 86.3389 41.8413C86.3058 41.8727 86.2966 41.8902 86.2634 41.9216C86.0997 42.1384 86.0234 42.2415 85.8578 42.4513C85.822 42.5513 85.8009 42.6022 85.767 42.7094C85.6622 42.888 85.6098 42.9774 85.505 43.156C85.4379 43.2416 85.4002 43.2818 85.333 43.3674C85.2043 43.5599 85.139 43.6526 85.0084 43.838C84.8971 43.9655 84.8456 44.0319 84.7407 44.1577C84.6249 44.3468 84.566 44.4378 84.4502 44.6269C84.4521 44.634 84.4539 44.641 84.4558 44.6481C84.4404 44.826 84.4046 44.926 84.308 45.0572C84.2317 45.1604 84.1977 45.2146 84.1213 45.3178C84.0616 45.4317 84.0359 45.4914 83.9762 45.6053C83.8566 45.7802 83.7978 45.8713 83.6737 46.055C83.6343 46.1938 83.6187 46.2659 83.5812 46.4118C83.4524 46.6043 83.3871 46.697 83.2566 46.8824C83.2097 46.993 83.184 47.0526 83.1372 47.1631C83.0885 47.2666 83.0609 47.3192 83.0123 47.4226C82.9351 47.6016 82.7592 47.6931 82.5953 47.8041C82.5732 47.825 82.5622 47.8355 82.5466 47.8547C82.4307 48.0438 82.3719 48.1348 82.2496 48.3256C82.2065 48.4503 82.1872 48.5083 82.1441 48.6329C82.0412 48.8187 81.9842 48.9167 81.8813 49.1025C81.8307 49.1989 81.8013 49.2444 81.7489 49.3337C81.6165 49.512 81.5512 49.6047 81.4123 49.7848C81.3747 49.8778 81.3517 49.9216 81.314 50.0146C81.1595 50.2139 81.0832 50.317 80.9287 50.5163C80.8523 50.6195 80.8183 50.6737 80.742 50.7769C80.6261 50.966 80.5608 51.0587 80.445 51.2478C80.4092 51.3479 80.3881 51.3988 80.3542 51.5059C80.1997 51.7052 80.1233 51.8084 79.9688 52.0076C79.8999 52.1391 79.8696 52.2075 79.8025 52.346C79.6739 52.5914 79.6096 52.714 79.4828 52.9665C79.3301 53.1728 79.2556 53.2831 79.1029 53.4894C79.1022 53.618 79.0996 53.6868 79.0989 53.8154C78.9849 54.0116 78.9215 54.1114 78.8075 54.3076C78.7422 54.4003 78.7063 54.4475 78.641 54.5402C78.5142 54.7397 78.4507 54.8395 78.3155 55.0337C78.2282 55.1473 78.1812 55.205 78.0957 55.3257C77.9937 55.4885 77.9477 55.5761 77.8457 55.7389C77.7969 55.7895 77.7436 55.8489 77.7003 55.9207C77.6709 55.9662 77.6617 55.9837 77.6305 56.0221C77.5486 56.157 77.5119 56.2271 77.4301 56.3619C77.3887 56.4408 77.2451 56.5238 77.1632 56.6058C77.119 56.6476 77.1034 56.6668 77.0592 56.7086C76.888 56.8971 76.8034 56.9949 76.6258 57.1851C76.6066 57.2959 76.5938 57.3522 76.5747 57.463C76.422 57.6694 76.3456 57.7725 76.1884 57.9876C76.136 58.0769 76.1084 58.1295 76.056 58.2188C75.9171 58.3989 75.85 58.4845 75.7176 58.6629C75.6681 58.8421 75.449 59.0054 75.122 59.1517C74.9727 59.2135 74.7479 59.2498 74.4493 59.2677C74.3212 59.2787 74.253 59.2814 74.1165 59.287C73.9258 59.3219 73.7543 59.2989 73.6694 59.2381C73.6011 59.188 73.5769 59.0431 73.6753 58.9191L73.6689 58.9208ZM82.45 53.5559C82.4443 53.4289 82.4468 53.3073 82.4826 53.2072C82.5404 53.0334 82.567 52.9508 82.6248 52.7769C82.6439 52.6661 82.6568 52.6098 82.6759 52.499C82.7448 52.3675 82.7752 52.2991 82.8422 52.1606C82.878 52.0605 82.959 52.0015 83.0068 51.9209C83.0362 51.8754 83.0454 51.8579 83.0767 51.8195C83.1107 51.7652 83.1309 51.7372 83.1733 51.6883C83.2146 51.6094 83.2901 51.5292 83.372 51.4472C83.418 51.4125 83.4355 51.4003 83.4815 51.3656C83.5782 51.2873 83.6307 51.2509 83.7273 51.1726C83.7963 51.094 83.8359 51.061 83.9049 50.9824C84.0356 50.8499 84.2262 50.7092 84.403 50.6477C84.7015 50.524 84.8507 50.4622 85.1427 50.3402C85.2873 50.2872 85.3564 50.2615 85.5011 50.2084C85.6642 50.1732 85.7434 50.1599 85.9065 50.1247C86.0954 50.0827 86.3119 50.041 86.5138 50.0485C86.5562 50.0525 86.5774 50.0545 86.6217 50.0655C86.7922 50.0586 86.8816 50.0578 87.0521 50.0508C87.2355 49.9876 87.4373 49.9951 87.6991 49.9944C87.7249 49.9877 87.7378 49.9843 87.7673 49.9917C88.0301 50.021 88.1573 50.0329 88.4201 50.0622C88.5658 50.092 88.6312 50.1051 88.7751 50.1278C89.0508 50.2066 89.19 50.2381 89.4658 50.3169C89.5082 50.3209 89.5294 50.3229 89.5737 50.334C89.7489 50.3711 89.9628 50.3981 90.1168 50.4862C90.3198 50.5765 90.4157 50.6269 90.6187 50.7173C90.8676 50.7729 91.0604 50.8508 91.3207 51.0546C91.4037 51.1084 91.4453 51.1353 91.5265 51.182C91.7959 51.3682 91.9307 51.4614 92.1983 51.6405C92.2333 51.6691 92.25 51.6799 92.285 51.7085C92.4585 51.8443 92.5905 51.9533 92.7097 52.1185C92.8086 52.2589 92.8548 52.3299 92.9537 52.4702C93.0119 52.5607 93.0396 52.6139 93.0914 52.7061C93.2015 52.9418 93.2607 53.0623 93.3726 53.305C93.4244 53.3972 93.4586 53.4487 93.5103 53.5409C93.5845 53.7709 93.616 53.8911 93.6901 54.121C93.7161 54.22 93.7622 54.2382 93.7541 54.3386C93.7645 54.5096 93.772 54.5908 93.7824 54.7619C93.8408 54.9582 93.8301 55.1273 93.7806 55.3066C93.7659 55.3557 93.765 55.3787 93.7522 55.4349C93.745 55.5124 93.6557 55.5661 93.6087 55.6237C93.5434 55.7164 93.5159 55.769 93.4506 55.8617C93.4001 55.9581 93.3706 56.0036 93.3201 56.1C93.3045 56.1721 93.2926 56.2055 93.2771 56.2776C93.2487 56.4059 93.1788 56.5074 93.1052 56.5947C93.0712 56.649 93.051 56.677 93.0087 56.7259C92.9323 56.829 92.8983 56.8833 92.8238 56.9936C92.7558 57.1021 92.6462 57.1838 92.5367 57.2654C92.5017 57.2897 92.4842 57.3018 92.4557 57.3244C92.2439 57.4631 92.1371 57.529 91.9253 57.6677C91.7079 57.7851 91.5993 57.8439 91.3755 57.9631C91.2945 58.0221 91.1719 58.0543 91.077 58.0867C90.984 58.1263 90.9343 58.1469 90.8394 58.1793C90.7426 58.2047 90.691 58.2182 90.5878 58.2453C90.3502 58.3379 90.0875 58.3615 89.7852 58.3652C89.7317 58.3717 89.7041 58.3714 89.6571 58.3762C89.5345 58.4083 89.306 58.4305 89.1658 58.4219C89.0552 58.4207 89.0064 58.4184 88.8957 58.4172C88.751 58.4174 88.6764 58.4219 88.5252 58.4237C88.2514 58.4049 88.1113 58.3963 87.8393 58.3845C87.8006 58.3947 87.7794 58.3927 87.7389 58.3958C87.5969 58.3801 87.4291 58.3712 87.2816 58.3344C87.1506 58.3083 87.0833 58.2881 86.9588 58.2603C86.8113 58.2235 86.6361 58.1863 86.5152 58.1198C86.4673 58.0946 86.4423 58.0784 86.3944 58.0532C86.2155 58.0019 86.1251 57.9727 85.9508 57.9127C85.7958 57.8475 85.6427 57.7894 85.5162 57.7017C85.4867 57.6943 85.472 57.6906 85.4425 57.6832C85.2709 57.6073 85.1851 57.5694 85.0135 57.4935C84.8189 57.4085 84.6307 57.3219 84.4849 57.1863C84.4793 57.1651 84.4774 57.158 84.4719 57.1368C84.2504 56.9757 84.1387 56.8917 83.9172 56.7306C83.7908 56.6429 83.6569 56.5268 83.5904 56.4309C83.4546 56.2549 83.3899 56.1661 83.2606 55.9884C83.22 55.9386 83.2015 55.9208 83.1608 55.871C83.1008 55.7734 83.0231 55.635 82.9971 55.5361C82.9277 55.3502 82.8971 55.26 82.8277 55.0742C82.7612 54.9782 82.7288 54.9338 82.6559 54.8396C82.6373 54.7689 82.628 54.7335 82.6113 54.6699C82.5928 54.5992 82.5594 54.4719 82.5685 54.4015C82.5693 54.3257 82.571 54.2799 82.5783 54.2024C82.5226 53.9903 82.5012 53.8825 82.452 53.6687C82.452 53.6158 82.4528 53.5929 82.4463 53.5417L82.45 53.5559ZM85.6485 55.7624C85.8276 55.9195 85.9162 55.9945 86.1018 56.1499C86.1831 56.2495 86.2255 56.3063 86.3133 56.4042C86.5909 56.4901 86.7338 56.5357 87.0179 56.6199C87.2023 56.6925 87.2946 56.7287 87.4726 56.8029C87.8238 56.8015 87.9962 56.8016 88.3492 56.8072C88.4893 56.8158 88.553 56.8218 88.6931 56.8304C88.8617 56.8163 88.9493 56.8085 89.118 56.7945C89.2811 56.7592 89.3668 56.7443 89.5299 56.7091C89.8598 56.6527 90.0247 56.6246 90.3592 56.5595C90.4577 56.4883 90.512 56.4589 90.6106 56.3877C90.7928 56.2416 90.8849 56.1721 91.0736 56.0244C91.1223 55.9209 91.1499 55.8683 91.1985 55.7649C91.3033 55.5862 91.3557 55.4969 91.467 55.3165C91.4916 55.174 91.5007 55.1036 91.5254 54.9611C91.4928 54.7581 91.4714 54.6503 91.4388 54.4472C91.4395 54.3186 91.4421 54.2499 91.4428 54.1212C91.3653 54.0357 91.3283 54.0001 91.2443 53.9163C91.2229 53.8086 91.2164 53.7574 91.195 53.6496C91.1441 53.5345 91.1228 53.4796 91.072 53.3645C90.9841 53.1608 90.9387 53.0669 90.8508 52.8632C90.7704 52.7407 90.7344 52.6822 90.6604 52.558C90.4629 52.3831 90.366 52.3027 90.162 52.1295C90.0789 52.0757 90.0374 52.0488 89.9543 51.995C89.6564 51.8842 89.5033 51.8262 89.2054 51.7154C89.0375 51.6536 88.9582 51.614 88.7903 51.5522C88.4575 51.5186 88.2962 51.508 87.9634 51.4744C87.8371 51.4925 87.7708 51.5023 87.6464 51.5274C87.4685 51.5589 87.3847 51.5809 87.2068 51.6125C87.052 51.6531 86.8557 51.6668 86.6879 51.6579C86.6308 51.6503 86.6031 51.65 86.546 51.6423C86.3083 51.7349 86.1876 51.7741 85.9435 51.8684C85.8542 51.922 85.8081 51.9568 85.7188 52.0105C85.5348 52.2024 85.4437 52.3018 85.2597 52.4937C85.1181 52.7425 85.0473 52.8668 84.9141 53.121C84.8709 53.1928 84.8461 53.2295 84.8029 53.3013C84.8125 53.5482 84.8118 53.6769 84.8214 53.9237C84.8769 54.0301 84.9111 54.0816 84.9666 54.188C84.9898 54.3028 84.9982 54.3611 85.0233 54.4829C85.0511 54.589 85.066 54.6456 85.1002 54.75C85.1262 54.8489 85.1392 54.8984 85.1716 54.9957C85.2799 55.2243 85.3372 55.3377 85.4454 55.5663C85.5359 55.6484 85.5811 55.6894 85.6716 55.7715L85.6485 55.7624Z" fill="white"/>
<path d="M25.0892 69.9288C23.3363 69.58 21.842 68.4303 21.5504 67.1087C21.165 65.3506 20.9736 64.4636 20.5946 62.7039C20.3726 61.6738 20.9103 60.7543 21.9899 60.2972C25.4192 58.8381 27.0911 55.9357 26.4046 52.7677C25.7182 49.5997 22.8023 46.6313 18.8083 44.966C17.5538 44.4411 16.6461 43.4776 16.4453 42.4496C16.1004 40.6884 15.9321 39.8105 15.5936 38.0477C15.4486 37.2846 15.7009 36.5911 16.3038 36.0777C16.9067 35.5643 17.7894 35.3025 18.7822 35.3292C53.5214 36.0998 87.7857 33.9569 121.957 28.8075C123.917 28.4975 125.938 29.4485 126.476 30.9474C127.075 32.6267 127.379 33.469 127.986 35.1537C128.338 36.1271 127.982 37.1349 127.057 37.7858C124.111 39.8512 122.921 42.9899 124.009 46.0071C125.097 49.0244 128.322 51.4886 132.434 52.3672C133.726 52.6404 134.762 53.4114 135.129 54.3884C135.78 56.0842 136.107 56.9356 136.759 58.6314C137.336 60.1201 136.139 61.6282 134.087 61.9777C98.3408 67.7744 62.4734 70.4286 26.0784 70.0471C25.7466 70.0435 25.4119 70.0028 25.0846 69.9376L25.0892 69.9288ZM122.896 30.0728C122.737 30.0693 122.573 30.0745 122.408 30.1027C88.1732 35.276 53.8444 37.4359 19.0407 36.6822C17.9566 36.6493 17.2018 37.2932 17.3636 38.1199C17.7085 39.881 17.8768 40.7589 18.2281 42.5184C18.335 43.0572 18.7986 43.5628 19.4461 43.8237C24.0498 45.7371 27.4126 49.1476 28.2123 52.7998C29.012 56.4519 27.0948 59.8118 23.1395 61.4996C22.5877 61.735 22.3138 62.215 22.429 62.7592C22.808 64.5189 23.004 65.3971 23.3913 67.1622C23.4823 67.5616 23.776 67.9456 24.2245 68.236C24.673 68.5264 25.2263 68.6911 25.7729 68.6989C62.1034 69.0973 97.9081 66.467 133.598 60.6927C134.673 60.5087 135.308 59.7225 135.004 58.933C134.353 57.2372 134.026 56.3858 133.381 54.6884C133.185 54.1804 132.652 53.7762 131.993 53.6315C127.246 52.6173 123.521 49.7704 122.275 46.2808C121.028 42.7912 122.417 39.177 125.815 36.8116C126.288 36.4836 126.466 35.9533 126.283 35.4419C125.682 33.7555 125.38 32.9202 124.786 31.2321C124.651 30.8517 124.33 30.5203 123.881 30.3056C123.574 30.1595 123.236 30.0818 122.896 30.0728Z" fill="white"/>
<path d="M88.6171 66.4792L89.3247 68.0846L89.6198 68.754L90.3471 68.6755L92.0935 68.4869L91.0547 69.9105L90.6241 70.5006L91.0552 71.0902L92.0908 72.5065L90.3471 72.3183L89.6198 72.2398L89.3247 72.9092L88.6171 74.5145L87.9094 72.9092L87.6143 72.2398L86.887 72.3183L85.1434 72.5065L86.1789 71.0902L86.61 70.5006L86.1794 69.9105L85.1406 68.4869L86.887 68.6755L87.6143 68.754L87.9094 68.0846L88.6171 66.4792Z" fill="white" stroke="white" stroke-width="2"/>
</g>
<defs>
<linearGradient id="paint0_linear_2026_2615" x1="187.029" y1="16.2835" x2="-13.0063" y2="119.299" gradientUnits="userSpaceOnUse">
<stop stop-color="white"/>
<stop offset="1" stop-color="#B4B4B4"/>
</linearGradient>
<linearGradient id="paint1_linear_2026_2615" x1="5.03022" y1="56.4694" x2="137.152" y2="43.3297" gradientUnits="userSpaceOnUse">
<stop/>
<stop offset="1" stop-color="#A0A0A0"/>
</linearGradient>
<linearGradient id="paint2_linear_2026_2615" x1="4" y1="56.5" x2="138" y2="43" gradientUnits="userSpaceOnUse">
<stop/>
<stop offset="1" stop-color="#A0A0A0"/>
</linearGradient>
<clipPath id="clip0_2026_2615">
<rect width="160" height="15.534" fill="white" transform="translate(0 63)"/>
</clipPath>
<clipPath id="clip1_2026_2615">
<rect width="128.411" height="65.6536" fill="white" transform="translate(5 32.5894) rotate(-14.7019)"/>
</clipPath>
</defs>
</svg>
