<svg width="171" height="171" viewBox="0 0 171 171" fill="none" xmlns="http://www.w3.org/2000/svg">
<path d="M85.5 57.6562C82.1434 57.6562 78.9242 58.9897 76.5507 61.3632C74.1772 63.7367 72.8438 66.9559 72.8438 70.3125C72.8438 73.6691 74.1772 76.8883 76.5507 79.2618C78.9242 81.6353 82.1434 82.9688 85.5 82.9688C88.8566 82.9688 92.0758 81.6353 94.4493 79.2618C96.8228 76.8883 98.1562 73.6691 98.1562 70.3125C98.1562 66.9559 96.8228 63.7367 94.4493 61.3632C92.0758 58.9897 88.8566 57.6562 85.5 57.6562ZM72 89.7188C68.6434 89.7188 65.4242 91.0522 63.0507 93.4257C60.6772 95.7992 59.3438 99.0184 59.3438 102.375V106.384C59.3438 108.929 61.1865 111.096 63.6975 111.504C78.1357 113.863 92.8642 113.863 107.302 111.504C108.518 111.307 109.623 110.683 110.421 109.745C111.218 108.807 111.656 107.616 111.656 106.384V102.375C111.656 99.0184 110.323 95.7992 107.949 93.4257C105.576 91.0522 102.357 89.7188 99 89.7188H97.8525C97.2281 89.7188 96.6071 89.82 96.0165 90.009L93.0938 90.9641C88.1594 92.5748 82.8406 92.5748 77.9062 90.9641L74.9835 90.009C74.3917 89.8164 73.7732 89.7185 73.1509 89.7188H72Z" fill="#25C769"/>
<circle cx="85.5" cy="85.5" r="85.5" fill="#25C869" fill-opacity="0.19"/>
</svg>
