<svg width="32" height="32" viewBox="0 0 32 32" fill="none" xmlns="http://www.w3.org/2000/svg">
<path d="M15.9997 18.3333C18.577 18.3333 20.6663 16.244 20.6663 13.6667C20.6663 11.0893 18.577 9 15.9997 9C13.4223 9 11.333 11.0893 11.333 13.6667C11.333 16.244 13.4223 18.3333 15.9997 18.3333Z" stroke="#636363" stroke-width="2.5" stroke-linecap="round" stroke-linejoin="round"/>
<path d="M7.59961 27.2C9.08271 24.4337 12.2918 22.5333 15.9996 22.5333C19.7074 22.5333 22.9037 24.445 24.3996 27.2" stroke="#636363" stroke-width="2.5" stroke-linecap="round" stroke-linejoin="round"/>
<path d="M16 30C23.732 30 30 23.732 30 16C30 8.26801 23.732 2 16 2C8.26801 2 2 8.26801 2 16C2 23.732 8.26801 30 16 30Z" stroke="#636363" stroke-width="2.5" stroke-linecap="round" stroke-linejoin="round"/>
</svg>
