<svg width="160" height="16" viewBox="0 0 160 16" fill="none" xmlns="http://www.w3.org/2000/svg">
<g clip-path="url(#clip0_219_7588)">
<path d="M80 15.0337C123.905 15.0337 159.497 11.7816 159.497 7.77001C159.497 3.7584 123.905 0.506348 80 0.506348C36.0951 0.506348 0.503174 3.7584 0.503174 7.77001C0.503174 11.7816 36.0951 15.0337 80 15.0337Z" fill="url(#paint0_linear_219_7588)" stroke="#464646" stroke-width="1.67" stroke-miterlimit="10"/>
<g opacity="0.32">
<path d="M138.646 7.73384C138.646 8.36677 134.924 8.95148 128.552 9.43974V9.36138C88.5002 3.21892 29.205 9.22876 29.205 9.22876V9.25287C24.2152 8.80681 21.3596 8.28238 21.3596 7.73384C21.3596 6.05204 47.9697 2.98383 80.3577 2.98383C112.746 2.98383 138.646 6.05204 138.646 7.73384Z" fill="#464646"/>
<path d="M29.205 9.25287C24.2152 8.80681 21.3596 8.28238 21.3596 7.73384C21.3596 6.05204 47.9697 2.98383 80.3577 2.98383C112.746 2.98383 138.646 6.05204 138.646 7.73384C138.646 8.36677 134.924 8.95148 128.552 9.43974C118.002 10.2475 100.196 10.7779 80.0061 10.7779C58.3009 10.7779 39.3483 10.1631 29.205 9.25287Z" stroke="#464646" stroke-width="0.98" stroke-miterlimit="10"/>
<path d="M29.2051 9.22876C29.2051 9.22876 88.5003 3.21891 128.546 9.36137" stroke="#464646" stroke-width="0.98" stroke-miterlimit="10"/>
</g>
</g>
<defs>
<linearGradient id="paint0_linear_219_7588" x1="187.028" y1="-46.7165" x2="-13.0065" y2="56.2994" gradientUnits="userSpaceOnUse">
<stop stop-color="white"/>
<stop offset="1" stop-color="#4A4A4A"/>
</linearGradient>
<clipPath id="clip0_219_7588">
<rect width="160" height="15.534" fill="white"/>
</clipPath>
</defs>
</svg>
