<svg width="44" height="38" viewBox="0 0 44 38" fill="none" xmlns="http://www.w3.org/2000/svg">
<path d="M0 18.75C0 23.7228 1.97544 28.4919 5.49175 32.0083C9.00805 35.5246 13.7772 37.5 18.75 37.5C23.7292 37.5 28.5 35.5417 32.0833 32.0833L28.9583 28.9583C27.6463 30.3467 26.0634 31.4513 24.3076 32.2038C22.5518 32.9563 20.6603 33.3407 18.75 33.3333C5.75 33.3333 -0.749999 17.625 8.4375 8.4375C17.625 -0.749999 33.3333 5.77083 33.3333 18.75H27.0833L35.4167 27.0833H35.625L43.75 18.75H37.5C37.5 13.7772 35.5246 9.00805 32.0083 5.49175C28.4919 1.97544 23.7228 0 18.75 0C13.7772 0 9.00805 1.97544 5.49175 5.49175C1.97544 9.00805 0 13.7772 0 18.75Z" fill="white"/>
</svg>
