<svg width="22" height="22" viewBox="0 0 22 22" fill="none" xmlns="http://www.w3.org/2000/svg">
<path d="M12.7141 2.21237L12.9311 2.80906C13.2891 3.82886 14.45 4.30621 15.4264 3.83971L16.0014 3.56848C17.5528 2.83076 19.1584 4.44725 18.4315 5.99864L18.1603 6.57364C17.6938 7.55004 18.182 8.71088 19.1909 9.06889L19.7876 9.28587C21.4041 9.86086 21.4041 12.1391 19.7876 12.7141L19.1909 12.9311C18.1711 13.2891 17.6938 14.45 18.1603 15.4264L18.4315 16.0014C19.1692 17.5528 17.5528 19.1584 16.0014 18.4315L15.4264 18.1603C14.45 17.6938 13.2891 18.182 12.9311 19.1909L12.7141 19.7876C12.1391 21.4041 9.86086 21.4041 9.28587 19.7876L9.06889 19.1909C8.71088 18.1711 7.55004 17.6938 6.57364 18.1603L5.99864 18.4315C4.44725 19.1692 2.84161 17.5528 3.56848 16.0014L3.83971 15.4264C4.30621 14.45 3.81801 13.2891 2.80906 12.9311L2.21237 12.7141C0.595877 12.1391 0.595877 9.86086 2.21237 9.28587L2.80906 9.06889C3.82886 8.71088 4.30621 7.55004 3.83971 6.57364L3.56848 5.99864C2.83076 4.44725 4.44725 2.84161 5.99864 3.56848L6.57364 3.83971C7.55004 4.30621 8.71088 3.81801 9.06889 2.80906L9.28587 2.21237C9.86086 0.595877 12.1391 0.595877 12.7141 2.21237Z" stroke="#25C869" stroke-width="2" stroke-linecap="round" stroke-linejoin="round"/>
<path d="M12.0285 5.72742L12.1587 6.08544C12.3735 6.69732 13.07 6.98373 13.6558 6.70382L14.0008 6.54109C14.9317 6.09845 15.895 7.06835 15.4589 7.99919L15.2962 8.34418C15.0163 8.93002 15.3092 9.62653 15.9146 9.84133L16.2726 9.97152C17.2425 10.3165 17.2425 11.6835 16.2726 12.0285L15.9146 12.1587C15.3027 12.3735 15.0163 13.07 15.2962 13.6558L15.4589 14.0008C15.9015 14.9317 14.9317 15.895 14.0008 15.4589L13.6558 15.2962C13.07 15.0163 12.3735 15.3092 12.1587 15.9146L12.0285 16.2726C11.6835 17.2425 10.3165 17.2425 9.97152 16.2726L9.84133 15.9146C9.62653 15.3027 8.93002 15.0163 8.34418 15.2962L7.99919 15.4589C7.06835 15.9015 6.10496 14.9317 6.54109 14.0008L6.70382 13.6558C6.98373 13.07 6.69081 12.3735 6.08544 12.1587L5.72742 12.0285C4.75753 11.6835 4.75753 10.3165 5.72742 9.97152L6.08544 9.84133C6.69732 9.62653 6.98373 8.93002 6.70382 8.34418L6.54109 7.99919C6.09845 7.06835 7.06835 6.10496 7.99919 6.54109L8.34418 6.70382C8.93002 6.98373 9.62653 6.69081 9.84133 6.08544L9.97152 5.72742C10.3165 4.75753 11.6835 4.75753 12.0285 5.72742Z" fill="#25C869"/>
</svg>
