<svg width="138" height="142" viewBox="0 0 138 142" fill="none" xmlns="http://www.w3.org/2000/svg">
<path d="M131.617 78.4792L132.325 80.0846L132.62 80.754L133.347 80.6755L135.094 80.4869L134.055 81.9105L133.624 82.5006L134.055 83.0902L135.091 84.5065L133.347 84.3183L132.62 84.2398L132.325 84.9092L131.617 86.5145L130.909 84.9092L130.614 84.2398L129.887 84.3183L128.143 84.5065L129.179 83.0902L129.61 82.5006L129.179 81.9105L128.141 80.4869L129.887 80.6755L130.614 80.754L130.909 80.0846L131.617 78.4792Z" fill="white" stroke="white" stroke-width="2"/>
<path d="M39.868 129.304L41.0276 131.945L41.1748 132.28L41.539 132.241L44.4125 131.931L42.7048 134.261L42.4883 134.556L42.7046 134.851L44.4139 137.188L41.539 136.878L41.1748 136.839L41.0276 137.174L39.868 139.815L38.7037 137.173L38.5562 136.839L38.1926 136.878L35.3176 137.188L37.027 134.851L37.2432 134.556L37.0268 134.261L35.319 131.931L38.1926 132.241L38.5562 132.28L38.7037 131.945L39.868 129.304Z" fill="white" stroke="white"/>
<path d="M9.36718 38.0863L11.798 42.5415L11.9385 42.799L12.1958 42.9398L16.648 45.3758L12.1951 47.8169L11.9383 47.9577L11.798 48.2148L9.36718 52.6699L6.9314 48.2141L6.79111 47.9575L6.53465 47.8169L2.08179 45.3758L6.53395 42.9398L6.7909 42.7992L6.9314 42.5422L9.36718 38.0863Z" fill="white" stroke="white" stroke-width="2"/>
<path d="M125.368 2.08481L127.805 6.54216L127.945 6.79879L128.201 6.93938L132.656 9.38125L128.201 11.8231L127.945 11.9637L127.805 12.2203L125.368 16.6777L122.931 12.2203L122.791 11.9637L122.535 11.8231L118.08 9.38125L122.535 6.93938L122.791 6.79879L122.931 6.54216L125.368 2.08481Z" fill="white" stroke="white" stroke-width="2"/>
<path d="M42.3626 67.0863L44.7984 71.5422L44.9387 71.7988L45.1951 71.9394L49.6495 74.3812L45.1951 76.8231L44.9387 76.9637L44.7984 77.2203L42.3626 81.6762L39.9318 77.221L39.7915 76.9639L39.5346 76.8231L35.0803 74.3812L39.5346 71.9394L39.7915 71.7986L39.9318 71.5415L42.3626 67.0863Z" fill="white" stroke="white" stroke-width="2"/>
</svg>
