<svg width="141" height="97" viewBox="0 0 141 97" fill="none" xmlns="http://www.w3.org/2000/svg">
<g clip-path="url(#clip0_722_2155)">
<path d="M125.383 32.0863L125.318 32.1033C125.318 32.1033 125.364 32.0914 125.383 32.0863C126.571 31.9107 127.788 32.4757 128.121 33.3783C128.454 34.2809 127.775 35.1848 126.602 35.417C127.796 35.2397 129.019 35.803 129.359 36.7039C129.704 37.626 128.988 38.5471 127.769 38.7612C127.544 38.7975 127.32 38.8109 127.097 38.8014C123.16 39.7738 120.892 42.8478 122.028 45.966C123.159 49.0701 127.303 51.0966 131.491 50.6628C131.693 50.5646 131.923 50.4966 132.172 50.4464C133.417 50.2256 134.706 50.779 135.065 51.6978C135.417 52.5953 134.727 53.5096 133.523 53.7574C134.748 53.5645 136.01 54.1177 136.362 55.0152C136.715 55.9127 136.024 56.827 134.815 57.0765C134.795 57.0815 134.75 57.0934 134.75 57.0934C134.75 57.0934 134.795 57.0815 134.821 57.0748C136.052 56.8802 137.319 57.4246 137.68 58.3275C138.039 59.2234 137.342 60.1394 136.125 60.3905C136.106 60.3956 136.054 60.4091 136.054 60.4091C136.054 60.4091 136.099 60.3973 136.125 60.3905C137.363 60.1943 138.636 60.737 138.997 61.6399C139.362 62.5569 138.634 63.4885 137.371 63.7214C137.168 63.7598 136.972 63.7735 136.772 63.7731C96.4455 70.847 55.8565 73.871 14.6905 72.9879C14.5062 73.0212 14.3016 73.0295 14.0933 73.0237C12.7585 72.9809 11.509 72.16 11.2954 71.1882C11.0901 70.2218 11.9959 69.4702 13.3307 69.513C13.3795 69.5153 13.4284 69.5176 13.4772 69.5198C13.4284 69.5176 13.3814 69.5223 13.3325 69.52C12.0042 69.4756 10.7612 68.6529 10.5559 67.6865C10.3505 66.7201 11.2563 65.9685 12.5847 66.013C12.6335 66.0153 12.6824 66.0176 12.7248 66.0215C12.6759 66.0192 12.6289 66.024 12.5801 66.0217C11.2582 65.9756 10.0216 65.1512 9.81632 64.1848C9.61745 63.2167 10.5186 62.4739 11.8387 62.513C11.8875 62.5153 11.9364 62.5176 11.9788 62.5216C11.9299 62.5193 11.8829 62.524 11.8405 62.52C10.5251 62.4722 9.29499 61.6462 9.09613 60.678C8.89726 59.7099 9.8049 58.9654 11.112 59.0079C11.3904 59.018 11.6717 59.0651 11.9326 59.1402C16.2565 59.0412 19.1013 56.4053 18.4046 53.1191C17.7022 49.8117 13.7321 47.0292 9.35031 46.6447C9.13562 46.6935 8.89875 46.7103 8.64801 46.7005C7.36021 46.6529 6.16237 45.8184 5.9764 44.8469C5.79043 43.8754 6.68702 43.1414 7.96837 43.1906C8.01723 43.1929 8.05964 43.1969 8.1085 43.1992C8.05964 43.1969 8.01908 43.2 7.97023 43.1977C6.68888 43.1484 5.49748 42.3123 5.31982 41.3462C5.14216 40.38 6.03045 39.6406 7.31179 39.6898C7.36065 39.6921 7.40306 39.6961 7.45192 39.6984C7.40306 39.6961 7.36251 39.6992 7.31365 39.6969C6.03875 39.646 4.8538 38.8081 4.67614 37.842C4.49848 36.8759 5.38677 36.1364 6.66166 36.1874C6.71052 36.1897 6.75293 36.1936 6.80179 36.1959C6.75293 36.1936 6.71238 36.1967 6.66352 36.1944C5.39507 36.1418 4.21843 35.3093 4.04536 34.3344C3.8723 33.3595 4.75599 32.6289 6.02443 32.6815C6.26227 32.6947 6.49092 32.7254 6.7141 32.7877C45.6834 34.1263 84.0566 31.7744 122.316 25.598C122.502 25.5189 122.704 25.4506 122.929 25.4143C124.129 25.2053 125.371 25.7864 125.701 26.7049C126.028 27.6092 125.355 28.5113 124.188 28.7419C124.169 28.7469 124.124 28.7588 124.124 28.7588C124.124 28.7588 124.169 28.7469 124.19 28.7489C125.378 28.5733 126.582 29.1417 126.915 30.0443C127.242 30.9486 126.569 31.8508 125.396 32.083L125.383 32.0863Z" fill="#F2BF27"/>
<path d="M125.383 32.0863L125.318 32.1033C125.318 32.1033 125.364 32.0914 125.383 32.0863ZM125.383 32.0863C126.571 31.9107 127.788 32.4757 128.121 33.3783C128.454 34.2809 127.775 35.1848 126.602 35.417M125.383 32.0863L125.396 32.083C126.569 31.8508 127.242 30.9486 126.915 30.0443C126.582 29.1417 125.378 28.5733 124.19 28.7489C124.169 28.7469 124.124 28.7588 124.124 28.7588C124.124 28.7588 124.169 28.7469 124.188 28.7419C125.355 28.5113 126.028 27.6092 125.701 26.7049C125.371 25.7864 124.129 25.2053 122.929 25.4143C122.704 25.4506 122.502 25.5189 122.316 25.598C84.0566 31.7744 45.6834 34.1263 6.7141 32.7877C6.49092 32.7254 6.26227 32.6947 6.02443 32.6815C4.75599 32.6289 3.8723 33.3595 4.04536 34.3344C4.21843 35.3093 5.39507 36.1418 6.66352 36.1944C6.71238 36.1967 6.75293 36.1936 6.80179 36.1959C6.75293 36.1936 6.71052 36.1897 6.66166 36.1874C5.38677 36.1364 4.49848 36.8759 4.67614 37.842C4.8538 38.8081 6.03875 39.646 7.31365 39.6969C7.36251 39.6992 7.40306 39.6961 7.45192 39.6984C7.40306 39.6961 7.36065 39.6921 7.31179 39.6898C6.03045 39.6406 5.14216 40.38 5.31982 41.3462C5.49748 42.3123 6.68888 43.1484 7.97023 43.1977C8.01908 43.2 8.05964 43.1969 8.1085 43.1992C8.05964 43.1969 8.01723 43.1929 7.96837 43.1906C6.68702 43.1414 5.79043 43.8754 5.9764 44.8469C6.16237 45.8184 7.36021 46.6529 8.64801 46.7005C8.89875 46.7103 9.13562 46.6935 9.35031 46.6447C13.7321 47.0292 17.7022 49.8117 18.4046 53.1191C19.1013 56.4053 16.2565 59.0412 11.9326 59.1402C11.6717 59.0651 11.3904 59.018 11.112 59.0079C9.8049 58.9654 8.89726 59.7099 9.09613 60.678C9.29499 61.6462 10.5251 62.4722 11.8405 62.52C11.8829 62.524 11.9299 62.5193 11.9788 62.5216C11.9364 62.5176 11.8875 62.5153 11.8387 62.513C10.5186 62.4739 9.61745 63.2167 9.81632 64.1848C10.0216 65.1512 11.2582 65.9756 12.5801 66.0217C12.6289 66.024 12.6759 66.0192 12.7248 66.0215C12.6824 66.0176 12.6335 66.0153 12.5847 66.013C11.2563 65.9685 10.3505 66.7201 10.5559 67.6865C10.7612 68.6529 12.0042 69.4756 13.3325 69.52C13.3814 69.5223 13.4284 69.5176 13.4772 69.5198C13.4284 69.5176 13.3795 69.5153 13.3307 69.513C11.9959 69.4702 11.0901 70.2218 11.2954 71.1882C11.509 72.16 12.7585 72.9809 14.0933 73.0237C14.3016 73.0295 14.5062 73.0212 14.6905 72.9879C55.8565 73.871 96.4455 70.847 136.772 63.7731C136.972 63.7735 137.168 63.7598 137.371 63.7214C138.634 63.4885 139.362 62.5569 138.997 61.6399C138.636 60.737 137.363 60.1943 136.125 60.3905M126.602 35.417C126.582 35.4221 126.537 35.4339 126.537 35.4339M126.602 35.417C127.796 35.2397 129.019 35.803 129.359 36.7039C129.704 37.626 128.988 38.5471 127.769 38.7612C127.544 38.7975 127.32 38.8109 127.097 38.8014C123.16 39.7738 120.892 42.8478 122.028 45.966C123.159 49.0701 127.303 51.0966 131.491 50.6628C131.693 50.5646 131.923 50.4966 132.172 50.4464C133.417 50.2256 134.706 50.779 135.065 51.6978C135.417 52.5953 134.727 53.5096 133.523 53.7574M133.523 53.7574C133.504 53.7624 133.459 53.7743 133.459 53.7743M133.523 53.7574C134.748 53.5645 136.01 54.1177 136.362 55.0152C136.715 55.9127 136.024 56.827 134.815 57.0765C134.795 57.0815 134.75 57.0934 134.75 57.0934C134.75 57.0934 134.795 57.0815 134.821 57.0748C136.052 56.8802 137.319 57.4246 137.68 58.3275C138.039 59.2233 137.342 60.1394 136.125 60.3905M136.125 60.3905C136.106 60.3956 136.054 60.4091 136.054 60.4091C136.054 60.4091 136.099 60.3973 136.125 60.3905Z" stroke="white" stroke-miterlimit="10"/>
<path d="M138.24 60.017C138.667 59.4893 138.805 58.8334 138.545 58.1836C138.283 57.5268 137.679 57.0126 136.929 56.703C137.356 56.1753 137.488 55.521 137.234 54.8696C136.972 54.2128 136.375 53.6968 135.625 53.3872C136.052 52.8596 136.184 52.2053 135.93 51.5539C135.432 50.2863 133.644 49.5159 131.926 49.8233C131.656 49.8714 131.399 49.9462 131.155 50.0405C127.429 50.3682 123.879 48.5562 122.884 45.8396C121.881 43.0948 123.773 40.3991 127.26 39.4766C127.509 39.4793 127.759 39.4591 127.994 39.4123C128.811 39.2661 129.491 38.891 129.908 38.3509C130.325 37.8108 130.421 37.1808 130.196 36.5597C129.947 35.8995 129.37 35.3785 128.644 35.055C129.066 34.5361 129.197 33.8818 128.957 33.227C128.714 32.5651 128.136 32.0441 127.419 31.7261C127.841 31.2072 127.972 30.5529 127.732 29.8981C127.489 29.2362 126.918 28.7135 126.2 28.3954C126.616 27.8782 126.754 27.2222 126.513 26.5674C126.29 25.9533 125.765 25.4259 125.044 25.0937C124.321 24.7544 123.48 24.65 122.681 24.7841C122.424 24.8288 122.179 24.8932 121.954 24.9824C83.8029 31.1229 45.5495 33.4585 6.69265 32.1283C6.43078 32.0761 6.14956 32.0289 5.88407 32.0154C5.04059 31.9798 4.2897 32.1919 3.76869 32.6234C3.25413 33.0531 3.03113 33.6483 3.14465 34.2911C3.26003 34.941 3.69983 35.5663 4.38551 36.0515C4.40397 36.0693 4.42703 36.0784 4.4455 36.0962C4.42801 36.1083 4.41696 36.1188 4.39947 36.1309C3.87846 36.5624 3.66191 37.1558 3.77728 37.8057C3.89266 38.4557 4.33891 39.0792 5.02459 39.5644C5.04306 39.5822 5.06612 39.5913 5.08458 39.6091C5.06709 39.6213 5.05605 39.6317 5.03855 39.6439C4.51754 40.0753 4.29454 40.6704 4.41637 41.3187C4.54288 42.011 5.0417 42.651 5.73657 43.1187C5.20354 43.5306 4.93539 44.1375 5.06835 44.8282C5.19018 45.4764 5.64288 46.0983 6.33687 46.5889C7.03545 47.0706 7.89686 47.3586 8.76155 47.3962C9.03994 47.4063 9.30446 47.3898 9.55511 47.3467C13.4235 47.745 16.8751 50.2328 17.4873 53.1179C18.0921 55.9748 15.6478 58.3241 11.8771 58.4822C11.5691 58.4118 11.2621 58.3714 10.956 58.3611C10.0785 58.3268 9.31007 58.5511 8.78261 58.9842C8.25515 59.4174 8.0386 60.0108 8.16873 60.6644C8.29701 61.3109 8.76446 61.9365 9.48425 62.4203C9.50916 62.4364 9.52577 62.4472 9.55069 62.4633C9.01307 62.884 8.74492 63.491 8.89078 64.1782C9.0255 64.8231 9.49296 65.4486 10.2192 65.9307C10.2441 65.9469 10.2607 65.9576 10.2856 65.9738C9.74801 66.3945 9.47986 67.0014 9.62572 67.6887C9.77158 68.376 10.2981 69.0163 11.027 69.4825C11.0095 69.4947 10.992 69.5068 10.981 69.5173C10.4471 69.9521 10.2324 70.5526 10.3671 71.1974C10.5037 71.8494 10.9822 72.4645 11.7149 72.9449C12.2132 73.2676 12.7851 73.503 13.3761 73.6275C13.6611 73.6888 13.945 73.7201 14.2299 73.7285C14.4723 73.7329 14.711 73.7232 14.9377 73.6939C56.0724 74.5626 96.6235 71.5258 136.915 64.4533C137.156 64.4506 137.391 64.4267 137.62 64.3816C138.469 64.227 139.167 63.8398 139.588 63.2909C140.012 62.7491 140.113 62.1103 139.862 61.496C139.6 60.8391 138.996 60.3249 138.234 60.0187L138.24 60.017Z" fill="url(#paint0_linear_722_2155)" stroke="black" stroke-miterlimit="10"/>
<path d="M50.8954 53.9657C50.8954 53.9657 50.8705 53.9495 50.8558 53.9458C50.8002 53.7866 50.7733 53.7105 50.7196 53.5583C50.6807 53.4098 50.6962 53.3377 50.6913 53.1879C50.6986 53.1104 50.7022 53.0716 50.7076 52.9871C50.8668 52.832 51.0446 52.7475 51.2574 52.6917C51.38 52.6595 51.4823 52.6554 51.6122 52.6515C51.7827 52.6445 51.8703 52.6367 52.0408 52.6297C52.1367 52.6272 52.239 52.6231 52.3404 52.6418C52.4086 52.639 52.4363 52.6393 52.5045 52.6365C52.6473 52.6293 52.722 52.6248 52.8649 52.6176C53.1543 52.6172 53.3055 52.6153 53.593 52.6079C53.6825 52.6071 53.7295 52.6023 53.8253 52.5999C54.1664 52.586 54.3369 52.579 54.676 52.558C54.806 52.5542 54.8742 52.5514 55.0023 52.5404C55.3581 52.5302 55.5369 52.5286 55.8946 52.5255C56.0319 52.497 56.1047 52.4855 56.242 52.457C56.5683 52.4394 56.7323 52.4342 57.0586 52.4166C57.1848 52.3986 57.2512 52.3887 57.3793 52.3778C57.6945 52.3707 57.8522 52.3671 58.1738 52.3583C58.3223 52.3722 58.3988 52.3748 58.5472 52.3888C58.8606 52.3746 59.0164 52.3639 59.3362 52.348C59.4404 52.3509 59.4957 52.3515 59.6081 52.3598L59.6404 52.3514C59.7104 52.3556 59.7778 52.3758 59.8986 52.4423C60.311 52.6213 60.503 52.8279 60.542 52.9764C60.5891 53.0245 60.568 53.0754 60.5809 53.1249C60.5932 53.303 60.5961 53.393 60.602 53.5728C60.615 53.6223 60.6335 53.693 60.6263 53.7705C60.5557 54.0006 60.3863 54.1433 60.1855 54.2187C60.0086 54.2802 59.8114 54.3168 59.6077 54.3023C59.4224 54.3055 59.3247 54.3009 59.1394 54.3042C58.9375 54.2967 58.8334 54.2938 58.6296 54.2793C58.3144 54.2864 58.1568 54.29 57.8351 54.2988C57.6867 54.2848 57.6101 54.2822 57.4617 54.2683C57.1594 54.272 57.0018 54.2756 56.6994 54.2793C56.5382 54.3216 56.4543 54.3436 56.2894 54.3718C55.9465 54.3786 55.7741 54.3785 55.4312 54.3853C55.2958 54.4209 55.2249 54.4395 55.0894 54.475C54.8544 54.4989 54.7392 54.5065 54.5042 54.5303C54.4083 54.5328 54.2793 54.5667 54.1779 54.5479C54.0931 54.54 54.059 54.5413 53.9742 54.5334C53.9097 54.5503 53.8839 54.5571 53.8175 54.5669C53.6268 54.6018 53.4286 54.6085 53.1852 54.5741C53.1557 54.5667 53.1409 54.563 53.1114 54.5557C52.9299 54.5731 52.8423 54.5809 52.6607 54.5983C52.3603 54.6092 52.2045 54.6198 51.904 54.6306C51.6717 54.6387 51.4495 54.5534 51.288 54.4371C51.1265 54.3207 50.9796 54.1552 50.901 53.9869L50.8954 53.9657Z" fill="white"/>
<path d="M61.9469 45.1937C61.9495 45.0721 61.9641 45.0229 62.0045 44.914C62.055 44.7647 62.0834 44.6893 62.132 44.5329C62.1558 44.4133 62.1603 44.3517 62.184 44.2321C62.2841 44.0093 62.331 43.8988 62.4228 43.6706C62.4586 43.5705 62.5479 43.5169 62.5892 43.438C62.6822 43.3456 62.7309 43.295 62.8239 43.2026C62.8727 43.152 62.9546 43.0701 63.0374 43.0181C63.0724 42.9938 63.0899 42.9816 63.1203 42.9661C63.2777 42.8568 63.3542 42.8065 63.5052 42.6989C63.5539 42.6483 63.6488 42.6158 63.7373 42.5851C63.8561 42.5388 63.9187 42.5148 64.0376 42.4685C64.2862 42.3125 64.4105 42.2346 64.6545 42.0874C64.7255 42.0688 64.7623 42.0516 64.8379 42.0242C64.9207 41.9722 65.0092 41.9415 65.1041 41.909C65.2395 41.8735 65.304 41.8566 65.4394 41.821C65.5942 41.7804 65.7859 41.7754 65.9482 41.7631C66.0164 41.7603 66.044 41.7606 66.1104 41.7508C66.2661 41.7401 66.3408 41.7357 66.4966 41.725C66.5731 41.7276 66.6155 41.7316 66.7003 41.7396C66.762 41.7385 66.8966 41.7259 66.9639 41.746C67.2497 41.7844 67.3936 41.8071 67.6794 41.8455C67.7854 41.8554 67.8426 41.8631 67.9504 41.8802C68.0519 41.8989 68.1653 41.9372 68.2667 41.9559C68.5296 42.0381 68.6578 42.08 68.9142 42.1639C69.0553 42.2025 69.1706 42.2478 69.2831 42.3089C69.4704 42.4185 69.5664 42.4689 69.7537 42.5785C69.9132 42.6349 69.9972 42.6657 70.1567 42.7221C70.2739 42.7745 70.3347 42.7963 70.4584 42.8471C70.6391 42.9054 70.8071 43.0201 70.9686 43.1364C71.1726 43.3096 71.2778 43.3954 71.4901 43.574C71.564 43.6453 71.6027 43.688 71.6766 43.7593C71.7237 43.8074 71.7763 43.8767 71.8234 43.9248C71.9343 44.0847 71.9907 44.1682 72.1016 44.328C72.1681 44.4239 72.2004 44.4683 72.267 44.5642C72.3503 44.7767 72.3993 44.8847 72.4826 45.0972C72.5104 45.2032 72.5253 45.2598 72.5531 45.3659C72.5771 45.4049 72.5892 45.4244 72.6132 45.4635C72.6733 45.5611 72.7168 45.7008 72.7428 45.7998C72.7502 45.8281 72.7539 45.8422 72.7613 45.8705C72.7763 45.9799 72.7893 46.0294 72.8042 46.1389C72.8394 46.2732 72.858 46.3439 72.8997 46.4766C72.9442 46.6463 72.95 46.7733 72.9272 46.9229C72.9181 46.9933 72.9209 47.0303 72.9118 47.1007C72.8725 47.2924 72.856 47.3874 72.8167 47.5791C72.7846 47.6934 72.7635 47.7442 72.7315 47.8585C72.7048 47.8881 72.7103 47.9093 72.6957 47.9585C72.6102 48.1321 72.5707 48.2181 72.4872 48.3987C72.4303 48.5497 72.294 48.661 72.1642 48.7706C72.1007 48.8175 72.0639 48.8347 71.9939 48.8833C71.9451 48.9339 71.8843 48.965 71.8033 49.024C71.7407 49.048 71.7167 49.0619 71.6541 49.0859C71.435 49.2492 71.3254 49.3308 71.1063 49.4941C71.0336 49.5585 70.994 49.5916 70.9213 49.656C70.808 49.7235 70.7473 49.7546 70.634 49.8221C70.4093 49.9642 70.1919 50.0288 70.002 50.0408C69.6445 50.0968 69.4648 50.1213 69.1137 50.1757C68.9589 50.2163 68.721 50.2031 68.5514 50.1871C68.4942 50.1795 68.4666 50.1792 68.4159 50.1698C68.3302 50.1847 68.2832 50.1895 68.191 50.2061C68.0629 50.2171 67.8988 50.2223 67.7587 50.2137C67.6103 50.1998 67.5338 50.1972 67.3872 50.1903C67.2176 50.1743 67.0479 50.1584 66.9004 50.1215C66.8081 50.0853 66.7703 50.0725 66.6781 50.0362C66.4006 50.0033 66.2651 49.9859 65.9959 49.9583C65.8603 49.9409 65.7128 49.9041 65.6039 49.8571C65.4296 49.797 65.3392 49.7678 65.1649 49.7077C65.0561 49.6607 64.9085 49.6239 64.7941 49.5556C64.6982 49.5052 64.6548 49.4713 64.5588 49.4209C64.2626 49.2114 64.1113 49.1075 63.815 48.898C63.6138 48.709 63.5214 48.6198 63.3202 48.4308C63.2371 48.377 63.1956 48.3501 63.119 48.2947C63.0322 48.2267 62.9381 48.1305 62.8798 48.04C62.793 47.9192 62.7486 47.8552 62.6618 47.7344C62.6249 47.6988 62.6064 47.6809 62.5676 47.6382C62.5075 47.5406 62.4022 47.402 62.3763 47.303C62.317 47.1296 62.2864 47.0394 62.2271 46.866C62.2012 46.8199 62.1874 46.7933 62.1615 46.7471C62.0884 46.6 62.0643 46.5081 62.0594 46.3582C62.0483 46.3158 62.0446 46.3017 62.0335 46.2593C62.0149 46.1885 62.0056 46.1532 61.9889 46.0895C61.963 45.9906 61.924 45.8421 61.9257 45.7434C61.9356 45.5972 61.9428 45.5197 61.9592 45.3718C61.9572 45.3119 61.9563 45.2819 61.9479 45.2236L61.9469 45.1937ZM64.9215 47.4665C65.1247 47.6626 65.2188 47.7588 65.422 47.9549C65.5474 48.0127 65.6055 48.0503 65.731 48.1081C66.0234 48.2506 66.1655 48.3191 66.4579 48.4615C66.5916 48.4718 66.6617 48.4761 66.7954 48.4864C67.0812 48.5248 67.2315 48.5458 67.5191 48.5912C67.6934 48.5984 67.7846 48.6047 67.9588 48.6119C68.1017 48.6046 68.1764 48.6002 68.3174 48.5858C68.4399 48.5537 68.5026 48.5297 68.6232 48.4905C68.7771 48.4728 68.8564 48.4595 69.0103 48.4418C69.3015 48.3956 69.4453 48.3655 69.7365 48.3193C69.9224 48.1345 70.0172 48.0492 70.203 47.8643C70.2757 47.747 70.3161 47.6911 70.3906 47.5808C70.5045 47.3318 70.5624 47.2108 70.6781 46.9688C70.699 46.7593 70.7052 46.6518 70.7261 46.4423C70.7176 46.3312 70.7175 46.2783 70.7174 46.1725C70.6563 46.0449 70.6267 45.9847 70.5657 45.8571C70.5527 45.8076 70.5471 45.7864 70.5341 45.7369C70.5026 45.6167 70.4692 45.4894 70.4653 45.3695C70.4597 45.3483 70.4579 45.3412 70.4523 45.32C70.3709 45.1146 70.3237 45.0137 70.2441 44.8154C70.183 44.6878 70.1534 44.6275 70.0859 44.5017C69.8561 44.3352 69.7399 44.2599 69.5101 44.0935C69.0912 43.8633 68.8827 43.7517 68.4574 43.5232C68.3467 43.4691 68.2987 43.4439 68.188 43.3898C67.9381 43.3571 67.8174 43.3435 67.574 43.3091C67.4348 43.3305 67.3666 43.3333 67.2275 43.3547C66.7565 43.3724 66.526 43.3876 66.055 43.4053C65.8902 43.4864 65.81 43.5225 65.6516 43.6019C65.5688 43.6538 65.4462 43.686 65.3237 43.7182C65.238 43.7331 65.191 43.7379 65.1053 43.7528C64.9138 43.9164 64.8172 43.9946 64.6238 44.1512C64.566 44.2722 64.5338 44.3335 64.4759 44.4545C64.2993 44.6747 64.2101 44.7812 64.0335 45.0014C64.0311 45.2287 64.0267 45.3433 64.0243 45.5706C64.0798 45.677 64.1075 45.7302 64.163 45.8365L64.2133 46.1332C64.2706 46.2467 64.3002 46.3069 64.3575 46.4204C64.3945 46.5089 64.4121 46.5496 64.4491 46.6382C64.5915 46.8653 64.6636 46.9825 64.8059 47.2096C64.8595 47.3089 64.8854 47.355 64.9372 47.4473L64.9215 47.4665ZM68.6689 59.3314C68.6862 59.2135 68.6971 59.1501 68.7145 59.0322C68.8405 58.8556 68.8993 58.7646 69.0253 58.5879C69.1052 58.446 69.1485 58.3742 69.2266 58.2252C69.3305 58.0695 69.3783 57.9889 69.4822 57.8332C69.5033 57.7823 69.5446 57.7034 69.5998 57.6512C69.633 57.6198 69.6486 57.6006 69.6753 57.5709C69.7773 57.3552 69.8259 57.2517 69.9214 57.0377C69.9591 56.9447 69.9821 56.9009 70.0197 56.8079C70.1181 56.6838 70.1632 56.6191 70.2616 56.495C70.3168 56.4427 70.3582 56.3639 70.4069 56.3133C70.5017 56.228 70.5524 56.1844 70.6472 56.0991C70.7381 55.8939 70.7803 55.7921 70.8648 55.5885C70.8785 55.5094 70.9347 55.4871 70.9558 55.4362C71.0993 55.2474 71.1775 55.1513 71.3209 54.9625C71.4212 54.8455 71.4681 54.7878 71.5684 54.6708C71.6759 54.4763 71.7265 54.3799 71.8257 54.1801C71.9131 54.0665 71.96 54.0088 72.0455 53.8881C72.1328 53.7216 72.1742 53.6428 72.2615 53.4763C72.3028 53.3974 72.3847 53.3154 72.4335 53.2648C72.4427 53.2473 72.4454 53.2315 72.4546 53.214C72.5999 53.0322 72.6735 52.9449 72.8272 52.7685C72.8796 52.6792 72.9071 52.6266 72.9595 52.5373C73.0716 52.3341 73.1332 52.2272 73.2435 52.0169C73.3161 51.8996 73.3566 51.8436 73.4311 51.7334C73.4944 51.5807 73.5229 51.5053 73.5862 51.3526C73.622 51.2525 73.6772 51.2002 73.7186 51.1214C73.7636 51.0566 73.7903 51.027 73.8418 50.9606C73.9052 50.8079 73.9336 50.7324 73.997 50.5797C74.0327 50.4797 74.0935 50.4486 74.1349 50.3697C74.1799 50.305 74.2066 50.2753 74.2581 50.2089C74.3702 50.0057 74.4254 49.9005 74.5421 49.6885C74.5649 49.5389 74.6615 49.4078 74.7783 49.2486C74.8546 49.1455 74.8951 49.0895 74.9714 48.9864C75.0662 48.901 75.1104 48.8592 75.2052 48.7739C75.3468 48.578 75.4167 48.4765 75.5565 48.2736C75.618 48.1667 75.6539 48.1195 75.7155 48.0127C75.8405 47.806 75.9021 47.6992 76.0271 47.4926C76.0648 47.3995 76.0877 47.3557 76.1254 47.2627C76.2522 47.0632 76.3157 46.9634 76.4425 46.7638C76.5152 46.6465 76.5492 46.5922 76.6218 46.4749C76.7432 46.3071 76.8039 46.2231 76.9318 46.0535C76.9915 45.9396 77.0172 45.88 77.0769 45.766C77.1614 45.5625 77.2036 45.4607 77.2945 45.2555C77.3322 45.1625 77.3551 45.1186 77.3928 45.0256C77.4139 44.9747 77.4627 44.9242 77.504 44.8453C77.6024 44.7212 77.6475 44.6565 77.7441 44.5253C77.7798 44.4253 77.801 44.3744 77.8349 44.2672C77.9784 44.0784 78.0501 43.984 78.1936 43.7952C78.2718 43.6991 78.3077 43.6519 78.3859 43.5558C78.5017 43.3667 78.5605 43.2757 78.6764 43.0866C78.7269 42.9902 78.7563 42.9447 78.8087 42.8554C78.8831 42.6923 78.9161 42.608 78.9841 42.4466C79.0199 42.3465 79.1009 42.2875 79.1561 42.2352C79.1901 42.1809 79.2104 42.1529 79.2527 42.104C79.3777 41.8974 79.4393 41.7906 79.5643 41.5839C79.5974 41.5526 79.6066 41.535 79.6398 41.5037C79.7078 41.3951 79.7566 41.3445 79.8661 41.2629C79.8772 41.2524 79.8817 41.2437 79.8928 41.2332C80.1377 41.0632 80.5412 40.9195 80.8878 40.9268C81.0473 40.9303 81.1911 40.953 81.3644 40.9831C81.4069 40.9871 81.4281 40.9891 81.4659 41.0019C81.6394 41.1377 81.7633 41.3471 81.7202 41.5246C81.7065 41.6038 81.6919 41.653 81.6708 41.7039C81.6 41.8283 81.5678 41.8896 81.4971 42.014C81.4613 42.1141 81.4199 42.1929 81.3389 42.252C81.3058 42.2833 81.2966 42.3009 81.2634 42.3322C81.0997 42.549 81.0234 42.6522 80.8578 42.8619C80.822 42.962 80.8009 43.0129 80.767 43.12C80.6622 43.2987 80.6098 43.388 80.505 43.5666C80.4379 43.6523 80.4002 43.6924 80.333 43.778C80.2043 43.9705 80.139 44.0632 80.0084 44.2486C79.8971 44.3761 79.8456 44.4425 79.7407 44.5683C79.6249 44.7574 79.566 44.8484 79.4502 45.0375C79.4521 45.0446 79.4539 45.0517 79.4558 45.0587C79.4404 45.2366 79.4046 45.3367 79.308 45.4678C79.2317 45.571 79.1977 45.6253 79.1213 45.7284C79.0616 45.8423 79.0359 45.902 78.9762 46.0159C78.8566 46.1909 78.7978 46.2819 78.6737 46.4656C78.6343 46.6044 78.6187 46.6765 78.5812 46.8224C78.4524 47.0149 78.3871 47.1076 78.2566 47.293C78.2097 47.4036 78.184 47.4632 78.1372 47.5738C78.0885 47.6772 78.0609 47.7298 78.0123 47.8333C77.9351 48.0122 77.7592 48.1037 77.5953 48.2148C77.5732 48.2357 77.5622 48.2461 77.5466 48.2653C77.4307 48.4544 77.3719 48.5455 77.2496 48.7363C77.2065 48.8609 77.1872 48.9189 77.1441 49.0436C77.0412 49.2293 76.9842 49.3274 76.8813 49.5131C76.8307 49.6095 76.8013 49.655 76.7489 49.7443C76.6165 49.9227 76.5512 50.0154 76.4123 50.1954C76.3747 50.2884 76.3517 50.3322 76.314 50.4252C76.1595 50.6245 76.0832 50.7277 75.9287 50.9269C75.8523 51.0301 75.8183 51.0844 75.742 51.1875C75.6261 51.3766 75.5608 51.4693 75.445 51.6584C75.4092 51.7585 75.3881 51.8094 75.3542 51.9166C75.1997 52.1158 75.1233 52.219 74.9688 52.4182C74.8999 52.5497 74.8696 52.6181 74.8025 52.7566C74.6739 53.002 74.6096 53.1247 74.4828 53.3771C74.3301 53.5834 74.2556 53.6937 74.1029 53.9C74.1022 54.0287 74.0996 54.0974 74.0989 54.2261C73.9849 54.4222 73.9215 54.522 73.8075 54.7182C73.7422 54.8109 73.7063 54.8581 73.641 54.9508C73.5142 55.1504 73.4507 55.2501 73.3155 55.4443C73.2282 55.5579 73.1812 55.6156 73.0957 55.7363C72.9937 55.8991 72.9477 55.9867 72.8457 56.1495C72.7969 56.2001 72.7436 56.2595 72.7003 56.3313C72.6709 56.3768 72.6617 56.3943 72.6305 56.4328C72.5486 56.5676 72.5119 56.6377 72.4301 56.7725C72.3887 56.8514 72.2451 56.9344 72.1632 57.0164C72.119 57.0582 72.1034 57.0774 72.0592 57.1192C71.888 57.3077 71.8034 57.4055 71.6258 57.5957C71.6066 57.7066 71.5938 57.7628 71.5747 57.8737C71.422 58.08 71.3456 58.1832 71.1884 58.3982C71.136 58.4876 71.1084 58.5402 71.056 58.6295C70.9171 58.8095 70.85 58.8952 70.7176 59.0735C70.6681 59.2527 70.449 59.4161 70.122 59.5623C69.9727 59.6241 69.7479 59.6605 69.4493 59.6783C69.3212 59.6893 69.253 59.6921 69.1165 59.6976C68.9258 59.7326 68.7543 59.7095 68.6694 59.6487C68.6011 59.5986 68.5769 59.4538 68.6753 59.3297L68.6689 59.3314ZM77.45 53.9665C77.4443 53.8395 77.4468 53.7179 77.4826 53.6179C77.5404 53.444 77.567 53.3614 77.6248 53.1876C77.6439 53.0767 77.6568 53.0205 77.6759 52.9096C77.7448 52.7782 77.7752 52.7098 77.8422 52.5712C77.878 52.4712 77.959 52.4121 78.0068 52.3316C78.0362 52.286 78.0454 52.2685 78.0767 52.2301C78.1107 52.1758 78.1309 52.1478 78.1733 52.0989C78.2146 52.0201 78.2901 51.9398 78.372 51.8579C78.418 51.8231 78.4355 51.811 78.4815 51.7762C78.5782 51.6979 78.6307 51.6615 78.7273 51.5832C78.7963 51.5047 78.8359 51.4716 78.9049 51.393C79.0356 51.2605 79.2262 51.1198 79.403 51.0583C79.7015 50.9346 79.8507 50.8728 80.1427 50.7508C80.2873 50.6978 80.3564 50.6721 80.5011 50.619C80.6642 50.5838 80.7434 50.5706 80.9065 50.5353C81.0954 50.4933 81.3119 50.4516 81.5138 50.4591C81.5562 50.4631 81.5774 50.4651 81.6217 50.4762C81.7922 50.4692 81.8816 50.4684 82.0521 50.4615C82.2355 50.3982 82.4373 50.4057 82.6991 50.4051C82.7249 50.3983 82.7378 50.3949 82.7673 50.4023C83.0301 50.4316 83.1573 50.4436 83.4201 50.4729C83.5658 50.5027 83.6312 50.5157 83.7751 50.5384C84.0508 50.6172 84.19 50.6487 84.4658 50.7275C84.5082 50.7315 84.5294 50.7335 84.5737 50.7446C84.7489 50.7817 84.9628 50.8088 85.1168 50.8968C85.3198 50.9872 85.4157 51.0376 85.6187 51.1279C85.8676 51.1835 86.0604 51.2614 86.3207 51.4652C86.4037 51.519 86.4453 51.5459 86.5265 51.5926C86.7959 51.7789 86.9307 51.872 87.1983 52.0512C87.2333 52.0798 87.25 52.0905 87.285 52.1191C87.4585 52.255 87.5905 52.3639 87.7097 52.5292C87.8086 52.6695 87.8548 52.7405 87.9537 52.8808C88.0119 52.9714 88.0396 53.0245 88.0914 53.1168C88.2015 53.3524 88.2607 53.4729 88.3726 53.7156C88.4244 53.8078 88.4586 53.8593 88.5103 53.9516C88.5845 54.1815 88.616 54.3017 88.6901 54.5317C88.7161 54.6307 88.7622 54.6488 88.7541 54.7492C88.7645 54.9203 88.772 55.0014 88.7824 55.1725C88.8408 55.3688 88.8301 55.5379 88.7806 55.7172C88.7659 55.7664 88.765 55.7893 88.7522 55.8455C88.745 55.923 88.6557 55.9767 88.6087 56.0343C88.5434 56.1271 88.5159 56.1796 88.4506 56.2723C88.4001 56.3687 88.3706 56.4142 88.3201 56.5106C88.3045 56.5827 88.2926 56.6161 88.2771 56.6882C88.2487 56.8166 88.1788 56.918 88.1052 57.0054C88.0712 57.0596 88.051 57.0876 88.0087 57.1365C87.9323 57.2397 87.8983 57.2939 87.8238 57.4042C87.7558 57.5127 87.6462 57.5944 87.5367 57.676C87.5017 57.7003 87.4842 57.7125 87.4557 57.7351C87.2439 57.8738 87.1371 57.9396 86.9253 58.0783C86.7079 58.1958 86.5993 58.2545 86.3755 58.3737C86.2945 58.4328 86.1719 58.4649 86.077 58.4974C85.984 58.5369 85.9343 58.5575 85.8394 58.5899C85.7426 58.6153 85.691 58.6289 85.5878 58.6559C85.3502 58.7485 85.0875 58.7721 84.7852 58.7759C84.7317 58.7823 84.7041 58.782 84.6571 58.7868C84.5345 58.8189 84.306 58.8411 84.1658 58.8326C84.0552 58.8313 84.0064 58.829 83.8957 58.8278C83.751 58.828 83.6764 58.8325 83.5252 58.8344C83.2514 58.8155 83.1113 58.8069 82.8393 58.7951C82.8006 58.8053 82.7794 58.8033 82.7389 58.8064C82.5969 58.7907 82.4291 58.7819 82.2816 58.745C82.1506 58.7189 82.0833 58.6988 81.9588 58.671C81.8113 58.6341 81.6361 58.5969 81.5152 58.5304C81.4673 58.5052 81.4423 58.4891 81.3944 58.4639C81.2155 58.4125 81.1251 58.3834 80.9508 58.3233C80.7958 58.2581 80.6427 58.2001 80.5162 58.1123C80.4867 58.1049 80.472 58.1013 80.4425 58.0939C80.2709 58.018 80.1851 57.98 80.0135 57.9041C79.8189 57.8191 79.6307 57.7325 79.4849 57.5969C79.4793 57.5757 79.4774 57.5686 79.4719 57.5474C79.2504 57.3864 79.1387 57.3023 78.9172 57.1412C78.7908 57.0535 78.6569 56.9375 78.5904 56.8415C78.4546 56.6656 78.3899 56.5767 78.2606 56.399C78.22 56.3492 78.2015 56.3314 78.1608 56.2816C78.1008 56.184 78.0231 56.0457 77.9971 55.9467C77.9277 55.7608 77.8971 55.6706 77.8277 55.4848C77.7612 55.3889 77.7288 55.3444 77.6559 55.2502C77.6373 55.1795 77.628 55.1442 77.6113 55.0805C77.5928 55.0098 77.5594 54.8825 77.5685 54.8121C77.5693 54.7363 77.571 54.6905 77.5783 54.6131C77.5226 54.4009 77.5012 54.2932 77.452 54.0794C77.452 54.0265 77.4528 54.0036 77.4463 53.9524L77.45 53.9665ZM80.6485 56.1731C80.8276 56.3301 80.9162 56.4051 81.1018 56.5605C81.1831 56.6601 81.2255 56.717 81.3133 56.8149C81.5909 56.9008 81.7338 56.9464 82.0179 57.0306C82.2023 57.1031 82.2946 57.1393 82.4726 57.2136C82.8238 57.2121 82.9962 57.2122 83.3492 57.2178C83.4893 57.2264 83.553 57.2324 83.6931 57.241C83.8617 57.227 83.9493 57.2191 84.118 57.2051C84.2811 57.1698 84.3668 57.1549 84.5299 57.1197C84.8598 57.0634 85.0247 57.0352 85.3592 56.9701C85.4577 56.8989 85.512 56.8695 85.6106 56.7983C85.7928 56.6523 85.8849 56.5828 86.0736 56.435C86.1223 56.3315 86.1499 56.279 86.1985 56.1755C86.3033 55.9968 86.3557 55.9075 86.467 55.7272C86.4916 55.5847 86.5007 55.5143 86.5254 55.3717C86.4928 55.1687 86.4714 55.0609 86.4388 54.8579C86.4395 54.7292 86.4421 54.6605 86.4428 54.5318C86.3653 54.4464 86.3283 54.4107 86.2443 54.3269C86.2229 54.2192 86.2164 54.168 86.195 54.0602C86.1441 53.9451 86.1228 53.8902 86.072 53.7751C85.9841 53.5714 85.9387 53.4775 85.8508 53.2739C85.7704 53.1514 85.7344 53.0928 85.6604 52.9686C85.4629 52.7937 85.366 52.7133 85.162 52.5401C85.0789 52.4863 85.0374 52.4594 84.9543 52.4056C84.6564 52.2949 84.5033 52.2368 84.2054 52.126C84.0375 52.0643 83.9582 52.0246 83.7903 51.9628C83.4575 51.9292 83.2962 51.9187 82.9634 51.8851C82.8371 51.9031 82.7708 51.9129 82.6464 51.938C82.4685 51.9696 82.3847 51.9916 82.2068 52.0231C82.052 52.0637 81.8557 52.0775 81.6879 52.0686C81.6308 52.0609 81.6031 52.0606 81.546 52.0529C81.3083 52.1455 81.1876 52.1847 80.9435 52.279C80.8542 52.3327 80.8081 52.3674 80.7188 52.4211C80.5348 52.613 80.4437 52.7125 80.2597 52.9043C80.1181 53.1531 80.0473 53.2775 79.9141 53.5316C79.8709 53.6034 79.8461 53.6401 79.8029 53.7119C79.8125 53.9588 79.8118 54.0875 79.8214 54.3344C79.8769 54.4407 79.9111 54.4922 79.9666 54.5986C79.9898 54.7134 79.9982 54.7717 80.0233 54.8936C80.0511 54.9996 80.066 55.0562 80.1002 55.1606C80.1262 55.2596 80.1392 55.3091 80.1716 55.4064C80.2799 55.6349 80.3372 55.7484 80.4454 55.9769C80.5359 56.059 80.5811 56.1 80.6716 56.1821L80.6485 56.1731Z" fill="white"/>
<path d="M20.0892 70.3394C18.3363 69.9907 16.842 68.8409 16.5504 67.5193C16.165 65.7612 15.9736 64.8743 15.5946 63.1145C15.3726 62.0845 15.9103 61.1649 16.9899 60.7078C20.4192 59.2488 22.0911 56.3463 21.4046 53.1783C20.7182 50.0104 17.8023 47.0419 13.8083 45.3766C12.5538 44.8518 11.6461 43.8883 11.4453 42.8602C11.1004 41.099 10.9321 40.2212 10.5936 38.4583C10.4486 37.6953 10.7009 37.0018 11.3038 36.4884C11.9067 35.975 12.7894 35.7131 13.7822 35.7398C48.5214 36.5105 82.7857 34.3675 116.957 29.2181C118.917 28.9082 120.938 29.8592 121.476 31.358C122.075 33.0373 122.379 33.8797 122.986 35.5644C123.338 36.5377 122.982 37.5456 122.057 38.1965C119.111 40.2619 117.921 43.4005 119.009 46.4178C120.097 49.435 123.322 51.8992 127.434 52.7778C128.726 53.051 129.762 53.8221 130.129 54.7991C130.78 56.4948 131.107 57.3462 131.759 59.042C132.336 60.5307 131.139 62.0388 129.087 62.3883C93.3408 68.185 57.4734 70.8393 21.0784 70.4577C20.7466 70.4541 20.4119 70.4135 20.0846 70.3482L20.0892 70.3394ZM117.896 30.4834C117.737 30.4799 117.573 30.4852 117.408 30.5133C83.1732 35.6867 48.8444 37.8466 14.0407 37.0929C12.9566 37.0599 12.2018 37.7038 12.3636 38.5305C12.7085 40.2917 12.8768 41.1696 13.2281 42.929C13.335 43.4678 13.7986 43.9735 14.4461 44.2343C19.0498 46.1478 22.4126 49.5582 23.2123 53.2104C24.012 56.8626 22.0948 60.2224 18.1395 61.9102C17.5877 62.1457 17.3138 62.6256 17.429 63.1698C17.808 64.9296 18.004 65.8077 18.3913 67.5729C18.4823 67.9722 18.776 68.3562 19.2245 68.6466C19.673 68.9371 20.2263 69.1018 20.7729 69.1095C57.1034 69.5079 92.9081 66.8777 128.598 61.1033C129.673 60.9194 130.308 60.1331 130.004 59.3436C129.353 57.6479 129.026 56.7965 128.381 55.099C128.185 54.591 127.652 54.1868 126.993 54.0421C122.246 53.0279 118.521 50.181 117.275 46.6914C116.028 43.2019 117.417 39.5877 120.815 37.2223C121.288 36.8943 121.466 36.3639 121.283 35.8525C120.682 34.1661 120.38 33.3308 119.786 31.6427C119.651 31.2623 119.33 30.9309 118.881 30.7163C118.574 30.5701 118.236 30.4924 117.896 30.4834Z" fill="white"/>
</g>
<defs>
<linearGradient id="paint0_linear_722_2155" x1="130.5" y1="19.4106" x2="-51.5" y2="96.4106" gradientUnits="userSpaceOnUse">
<stop offset="0.0269208" stop-color="#25C869"/>
<stop offset="1" stop-color="#25C869"/>
</linearGradient>
<clipPath id="clip0_722_2155">
<rect width="128.411" height="65.6536" fill="white" transform="translate(0 33) rotate(-14.7019)"/>
</clipPath>
</defs>
</svg>
