<svg width="31" height="31" viewBox="0 0 31 31" fill="none" xmlns="http://www.w3.org/2000/svg">
<g clip-path="url(#clip0_2032_2539)">
<path d="M11.1714 1.25H3C2.0335 1.25 1.25 2.0335 1.25 3V11.1714C1.25 12.1379 2.0335 12.9214 3 12.9214H11.1714C12.1379 12.9214 12.9214 12.1379 12.9214 11.1714V3C12.9214 2.0335 12.1379 1.25 11.1714 1.25Z" stroke="white" stroke-width="2.5"/>
<path d="M9 5H5V9H9V5Z" fill="white"/>
<path d="M26 5H22V9H26V5Z" fill="white"/>
<path d="M9 22H5V26H9V22Z" fill="white"/>
<path d="M11.1714 18.0786H3C2.0335 18.0786 1.25 18.8621 1.25 19.8286V28C1.25 28.9665 2.0335 29.75 3 29.75H11.1714C12.1379 29.75 12.9214 28.9665 12.9214 28V19.8286C12.9214 18.8621 12.1379 18.0786 11.1714 18.0786Z" stroke="white" stroke-width="2.5"/>
<path d="M28 18.0786H19.8286C18.8621 18.0786 18.0786 18.8621 18.0786 19.8286V28C18.0786 28.9665 18.8621 29.75 19.8286 29.75H28C28.9665 29.75 29.75 28.9665 29.75 28V19.8286C29.75 18.8621 28.9665 18.0786 28 18.0786Z" stroke="white" stroke-width="2.5"/>
<path d="M28 1.25012H19.8286C18.8621 1.25012 18.0786 2.03362 18.0786 3.00012V11.1715C18.0786 12.138 18.8621 12.9215 19.8286 12.9215H28C28.9665 12.9215 29.75 12.138 29.75 11.1715V3.00012C29.75 2.03362 28.9665 1.25012 28 1.25012Z" stroke="white" stroke-width="2.5"/>
</g>
<defs>
<clipPath id="clip0_2032_2539">
<rect width="31" height="31" fill="white"/>
</clipPath>
</defs>
</svg>
