<svg width="29" height="25" viewBox="0 0 29 25" fill="none" xmlns="http://www.w3.org/2000/svg">
<g clip-path="url(#clip0_2001_2444)">
<path d="M1.98111 1.05348L7.22959 2.1018C7.58358 2.21301 7.84227 2.57445 7.84227 2.99149V23.9686C7.84227 24.5803 7.29767 25.0251 6.76668 24.8583L1.5182 23.8656C1.15059 23.7544 0.905524 23.3929 0.905524 22.9759V1.92926C0.891908 1.3176 1.43651 0.872761 1.98111 1.05348Z" fill="white"/>
<path d="M11.1916 2.10181L17.332 0.141716C17.8766 -0.0390013 18.4212 0.405842 18.4212 1.0314V22.0641C18.4212 22.4812 18.1762 22.8426 17.8085 22.9538L11.6818 24.8583C11.1372 25.0251 10.6062 24.5803 10.6062 23.9686V2.99149C10.6062 2.58835 10.8513 2.22692 11.2189 2.10181H11.1916Z" fill="white"/>
<path d="M28.1081 2.07972V23.0569C28.1081 23.6685 27.5635 24.1134 27.0325 23.9465L21.7841 22.9538C21.4165 22.8426 21.1714 22.4812 21.1714 22.0641V1.0175C21.1714 0.405838 21.716 -0.0390051 22.2606 0.127811L27.5091 1.17614C28.1217 1.41005 28.1217 2.56055 28.1217 2.97759L28.1149 2.52865L28.1081 2.07972Z" fill="white"/>
</g>
<defs>
<clipPath id="clip0_2001_2444">
<rect width="29" height="24.8" fill="white" transform="translate(0 0.100006)"/>
</clipPath>
</defs>
</svg>
