<svg width="31" height="31" viewBox="0 0 31 31" fill="none" xmlns="http://www.w3.org/2000/svg">
<g clip-path="url(#clip0_2001_504)">
<path d="M15.4998 1.34778C23.3172 1.34778 29.652 7.68256 29.652 15.5C29.652 19.9613 27.5898 23.9373 24.355 26.5252C22.7646 23.223 19.4085 20.9452 15.4998 20.9452C11.5911 20.9452 8.23505 23.223 6.64461 26.5252C3.40983 23.9373 1.34766 19.9613 1.34766 15.5C1.34766 7.68256 7.68244 1.34778 15.4998 1.34778ZM20.2172 12.2382C20.2172 9.62343 18.1011 7.52082 15.4998 7.52082C12.8985 7.52082 10.7824 9.62343 10.7824 12.2382C10.7824 14.853 12.8985 16.9556 15.4998 16.9556C18.1011 16.9556 20.2172 14.8395 20.2172 12.2382Z" fill="white"/>
<path d="M15.4996 16.9557C18.105 16.9557 20.217 14.8436 20.217 12.2383C20.217 9.63292 18.105 7.52087 15.4996 7.52087C12.8943 7.52087 10.7822 9.63292 10.7822 12.2383C10.7822 14.8436 12.8943 16.9557 15.4996 16.9557Z" stroke="#2D2D2D" stroke-width="0.75" stroke-linecap="round" stroke-linejoin="round"/>
<path d="M6.64453 26.5387C8.23497 23.223 11.5911 20.9452 15.4997 20.9452C19.4084 20.9452 22.7645 23.223 24.355 26.5252" stroke="#2D2D2D" stroke-width="0.75" stroke-linecap="round" stroke-linejoin="round"/>
<path d="M24.355 26.5252C27.5898 23.9373 29.652 19.9613 29.652 15.5C29.652 7.68256 23.3172 1.34778 15.4998 1.34778C7.68244 1.34778 1.34766 7.68256 1.34766 15.5C1.34766 19.9613 3.40983 23.9373 6.64461 26.5252C9.05722 28.4795 12.1437 29.6521 15.4998 29.6521C18.8559 29.6521 21.9424 28.4795 24.355 26.5252Z" stroke="white" stroke-width="3" stroke-linecap="round" stroke-linejoin="round"/>
</g>
<defs>
<clipPath id="clip0_2001_504">
<rect width="31" height="31" fill="white"/>
</clipPath>
</defs>
</svg>
