<svg width="390" height="964" viewBox="0 0 390 964" fill="none" xmlns="http://www.w3.org/2000/svg">
<g clip-path="url(#clip0_3263_5270)">
<rect width="390" height="964" fill="white"/>
<rect width="390" height="964" fill="url(#paint0_linear_3263_5270)"/>
<path d="M350.923 20.2051C350.923 19.4971 351.497 18.9231 352.205 18.9231H369.833C370.541 18.9231 371.115 19.4971 371.115 20.2051V26.2949C371.115 27.0029 370.541 27.5769 369.833 27.5769H352.205C351.497 27.5769 350.923 27.0029 350.923 26.2949V20.2051Z" fill="black"/>
<path opacity="0.4" fill-rule="evenodd" clip-rule="evenodd" d="M352.205 17.9615H369.833C371.072 17.9615 372.077 18.966 372.077 20.2051V26.2949C372.077 27.534 371.072 28.5385 369.833 28.5385H352.205C350.966 28.5385 349.962 27.534 349.962 26.2949V20.2051C349.962 18.966 350.966 17.9615 352.205 17.9615ZM349 20.2051C349 18.435 350.435 17 352.205 17H369.833C371.603 17 373.038 18.435 373.038 20.2051V26.2949C373.038 28.065 371.603 29.5 369.833 29.5H352.205C350.435 29.5 349 28.065 349 26.2949V20.2051ZM375.603 23.25C375.603 24.2351 374.919 25.0605 374 25.2776V21.2224C374.919 21.4395 375.603 22.2649 375.603 23.25Z" fill="black"/>
<path fill-rule="evenodd" clip-rule="evenodd" d="M317.85 18C317.298 18 316.85 18.4477 316.85 19V28C316.85 28.5523 317.298 29 317.85 29H319.15C319.702 29 320.15 28.5523 320.15 28V19C320.15 18.4477 319.702 18 319.15 18H317.85ZM311.9 21.1999C311.9 20.6476 312.348 20.1999 312.9 20.1999H314.2C314.752 20.1999 315.2 20.6476 315.2 21.1999V27.9999C315.2 28.5522 314.752 28.9999 314.2 28.9999H312.9C312.348 28.9999 311.9 28.5522 311.9 27.9999V21.1999ZM307.95 22.4C307.398 22.4 306.95 22.8478 306.95 23.4V28C306.95 28.5523 307.398 29 307.95 29H309.25C309.802 29 310.25 28.5523 310.25 28V23.4C310.25 22.8478 309.802 22.4 309.25 22.4H307.95ZM303.1 29C302.492 29 302 28.5075 302 27.9V25.15C302 24.5425 302.492 24.05 303.1 24.05H304.2C304.808 24.05 305.3 24.5425 305.3 25.15V27.9C305.3 28.5075 304.808 29 304.2 29H303.1Z" fill="black"/>
<path d="M325.371 29H331.612V27.5166H327.135V19.1357H325.371V29Z" fill="black"/>
<path d="M333.237 29H334.993V20.6191H337.94V19.1357H330.283V20.6191H333.237V29Z" fill="black"/>
<path d="M338.45 29H344.834V27.5166H340.213V24.707H344.581V23.2783H340.213V20.6191H344.834V19.1357H338.45V29Z" fill="black"/>
<path d="M31.3499 30H33.5735V17.3174H31.3323L28.0188 19.6465V21.7295L31.2971 19.4795H31.3499V30ZM40.86 17.0977C38.1266 17.0977 36.1139 18.9346 36.1139 21.4922V21.5098C36.1139 23.8916 37.8366 25.6494 40.2799 25.6494C41.9938 25.6494 43.2594 24.7705 43.7604 23.6104H43.8131C43.8131 23.751 43.8043 23.8828 43.7955 24.0146C43.7077 26.4141 42.8551 28.3652 40.8161 28.3652C39.6823 28.3652 38.9088 27.8027 38.5661 26.9326L38.5397 26.8535H36.2897L36.3073 26.9502C36.7028 28.8662 38.4606 30.2197 40.8073 30.2197C44.0416 30.2197 45.984 27.7148 45.984 23.5225V23.5049C45.984 19.0576 43.6549 17.0977 40.86 17.0977ZM40.86 23.9004C39.4186 23.9004 38.3463 22.8721 38.3463 21.4307V21.4131C38.3463 20.042 39.4801 18.9521 40.8864 18.9521C42.3102 18.9521 43.4176 20.0508 43.4176 21.457V21.4658C43.4176 22.8809 42.3102 23.9004 40.86 23.9004ZM48.4541 21.7031C49.166 21.7031 49.7197 21.1406 49.7197 20.4287C49.7197 19.7168 49.166 19.1631 48.4541 19.1631C47.7422 19.1631 47.1797 19.7168 47.1797 20.4287C47.1797 21.1406 47.7422 21.7031 48.4541 21.7031ZM48.4541 28.1543C49.166 28.1543 49.7197 27.5918 49.7197 26.8799C49.7197 26.168 49.166 25.6143 48.4541 25.6143C47.7422 25.6143 47.1797 26.168 47.1797 26.8799C47.1797 27.5918 47.7422 28.1543 48.4541 28.1543ZM55.9164 30.2197C59.0189 30.2197 60.8998 27.6973 60.8998 23.6631V23.6455C60.8998 19.6113 59.0189 17.0977 55.9164 17.0977C52.805 17.0977 50.933 19.6113 50.933 23.6455V23.6631C50.933 27.6973 52.805 30.2197 55.9164 30.2197ZM55.9164 28.3652C54.2025 28.3652 53.2181 26.5898 53.2181 23.6631V23.6455C53.2181 20.7188 54.2025 18.9609 55.9164 18.9609C57.6214 18.9609 58.6146 20.7188 58.6146 23.6455V23.6631C58.6146 26.5898 57.6214 28.3652 55.9164 28.3652ZM62.113 30H71.0251V28.1455H65.1101V28.0488L67.905 25.3945C70.1374 23.25 70.8318 22.2393 70.8318 20.7451V20.7275C70.8318 18.6357 69.0564 17.0977 66.5163 17.0977C63.9411 17.0977 61.99 18.7588 61.99 21.0791V21.1406H64.1169V21.0791C64.1433 19.8574 65.1277 18.917 66.5339 18.917C67.7556 18.917 68.6081 19.7256 68.6169 20.8594V20.877C68.6169 21.8174 68.2566 22.459 66.5954 24.085L62.113 28.4531V30Z" fill="black"/>
</g>
<defs>
<linearGradient id="paint0_linear_3263_5270" x1="195" y1="0" x2="195" y2="964" gradientUnits="userSpaceOnUse">
<stop/>
<stop offset="0.925" stop-color="#E05174"/>
<stop offset="1" stop-color="#CBCBCB"/>
</linearGradient>
<clipPath id="clip0_3263_5270">
<rect width="390" height="964" fill="white"/>
</clipPath>
</defs>
</svg>
